  0
SECTION
  2
HEADER
  9
$ACADVER
  1
AC1015
  9
$ACADMAINTVER
 70
     6
  9
$DWGCODEPAGE
  3
ANSI_1252
  9
$INSBASE
 10
0.0
 20
0.0
 30
0.0
  9
$EXTMIN
 10
-21.7366
 20
-1103.6521566402
 30
0.0
  9
$EXTMAX
 10
23.2336272893
 20
-103.65215664
 30
0.0
  9
$LIMMIN
 10
0.0
 20
0.0
  9
$LIMMAX
 10
420.0
 20
297.0
  9
$ORTHOMODE
 70
     0
  9
$REGENMODE
 70
     1
  9
$FILLMODE
 70
     1
  9
$QTEXTMODE
 70
     0
  9
$MIRRTEXT
 70
     1
  9
$LTSCALE
 40
1.0
  9
$ATTMODE
 70
     1
  9
$TEXTSIZE
 40
3.5
  9
$TRACEWID
 40
1.0
  9
$TEXTSTYLE
  7
Standard
  9
$CLAYER
  8
0
  9
$CELTYPE
  6
ByLayer
  9
$CECOLOR
 62
   256
  9
$CELTSCALE
 40
1.0
  9
$DISPSILH
 70
     0
  9
$DIMSCALE
 40
1.0
  9
$DIMASZ
 40
3.302
  9
$DIMEXO
 40
0.0
  9
$DIMDLI
 40
3.75
  9
$DIMRND
 40
0.0
  9
$DIMDLE
 40
0.0
  9
$DIMEXE
 40
1.0
  9
$DIMTP
 40
0.0
  9
$DIMTM
 40
0.0
  9
$DIMTXT
 40
3.5
  9
$DIMCEN
 40
2.5
  9
$DIMTSZ
 40
0.0
  9
$DIMTOL
 70
     0
  9
$DIMLIM
 70
     0
  9
$DIMTIH
 70
     1
  9
$DIMTOH
 70
     1
  9
$DIMSE1
 70
     0
  9
$DIMSE2
 70
     0
  9
$DIMTAD
 70
     1
  9
$DIMZIN
 70
     1
  9
$DIMBLK
  1

  9
$DIMASO
 70
     1
  9
$DIMSHO
 70
     1
  9
$DIMPOST
  1

  9
$DIMAPOST
  1

  9
$DIMALT
 70
     0
  9
$DIMALTD
 70
     3
  9
$DIMALTF
 40
0.0393700787
  9
$DIMLFAC
 40
1.0
  9
$DIMTOFL
 70
     1
  9
$DIMTVP
 40
0.0
  9
$DIMTIX
 70
     0
  9
$DIMSOXD
 70
     0
  9
$DIMSAH
 70
     0
  9
$DIMBLK1
  1

  9
$DIMBLK2
  1

  9
$DIMSTYLE
  2
ISO-25
  9
$DIMCLRD
 70
     0
  9
$DIMCLRE
 70
     0
  9
$DIMCLRT
 70
     0
  9
$DIMTFAC
 40
1.0
  9
$DIMGAP
 40
1.524
  9
$DIMJUST
 70
     0
  9
$DIMSD1
 70
     0
  9
$DIMSD2
 70
     0
  9
$DIMTOLJ
 70
     0
  9
$DIMTZIN
 70
     1
  9
$DIMALTZ
 70
     0
  9
$DIMALTTZ
 70
     0
  9
$DIMUPT
 70
     0
  9
$DIMDEC
 70
     2
  9
$DIMTDEC
 70
     2
  9
$DIMALTU
 70
     2
  9
$DIMALTTD
 70
     3
  9
$DIMTXSTY
  7
Standard
  9
$DIMAUNIT
 70
     0
  9
$DIMADEC
 70
     2
  9
$DIMALTRND
 40
0.0
  9
$DIMAZIN
 70
     0
  9
$DIMDSEP
 70
    44
  9
$DIMATFIT
 70
     3
  9
$DIMFRAC
 70
     0
  9
$DIMLDRBLK
  1

  9
$DIMLUNIT
 70
     2
  9
$DIMLWD
 70
    -2
  9
$DIMLWE
 70
    -2
  9
$DIMTMOVE
 70
     0
  9
$LUNITS
 70
     2
  9
$LUPREC
 70
     2
  9
$SKETCHINC
 40
1.0
  9
$FILLETRAD
 40
10.0
  9
$AUNITS
 70
     0
  9
$AUPREC
 70
     2
  9
$MENU
  1
.
  9
$ELEVATION
 40
0.0
  9
$PELEVATION
 40
0.0
  9
$THICKNESS
 40
0.0
  9
$LIMCHECK
 70
     0
  9
$CHAMFERA
 40
0.0
  9
$CHAMFERB
 40
0.0
  9
$CHAMFERC
 40
0.0
  9
$CHAMFERD
 40
0.0
  9
$SKPOLY
 70
     0
  9
$TDCREATE
 40
2460232.501835637
  9
$TDUCREATE
 40
2460232.376835637
  9
$TDUPDATE
 40
2460232.501881146
  9
$TDUUPDATE
 40
2460232.376881146
  9
$TDINDWG
 40
0.0000000116
  9
$TDUSRTIMER
 40
0.0000000116
  9
$USRTIMER
 70
     1
  9
$ANGBASE
 50
0.0
  9
$ANGDIR
 70
     0
  9
$PDMODE
 70
     0
  9
$PDSIZE
 40
-1.0
  9
$PLINEWID
 40
0.0
  9
$SPLFRAME
 70
     0
  9
$SPLINETYPE
 70
     6
  9
$SPLINESEGS
 70
     8
  9
$HANDSEED
  5
8C
  9
$SURFTAB1
 70
     6
  9
$SURFTAB2
 70
     6
  9
$SURFTYPE
 70
     6
  9
$SURFU
 70
     6
  9
$SURFV
 70
     6
  9
$UCSBASE
  2

  9
$UCSNAME
  2

  9
$UCSORG
 10
0.0
 20
0.0
 30
0.0
  9
$UCSXDIR
 10
1.0
 20
0.0
 30
0.0
  9
$UCSYDIR
 10
0.0
 20
1.0
 30
0.0
  9
$UCSORTHOREF
  2

  9
$UCSORTHOVIEW
 70
     0
  9
$UCSORGTOP
 10
0.0
 20
0.0
 30
0.0
  9
$UCSORGBOTTOM
 10
0.0
 20
0.0
 30
0.0
  9
$UCSORGLEFT
 10
0.0
 20
0.0
 30
0.0
  9
$UCSORGRIGHT
 10
0.0
 20
0.0
 30
0.0
  9
$UCSORGFRONT
 10
0.0
 20
0.0
 30
0.0
  9
$UCSORGBACK
 10
0.0
 20
0.0
 30
0.0
  9
$PUCSBASE
  2

  9
$PUCSNAME
  2

  9
$PUCSORG
 10
0.0
 20
0.0
 30
0.0
  9
$PUCSXDIR
 10
1.0
 20
0.0
 30
0.0
  9
$PUCSYDIR
 10
0.0
 20
1.0
 30
0.0
  9
$PUCSORTHOREF
  2

  9
$PUCSORTHOVIEW
 70
     0
  9
$PUCSORGTOP
 10
0.0
 20
0.0
 30
0.0
  9
$PUCSORGBOTTOM
 10
0.0
 20
0.0
 30
0.0
  9
$PUCSORGLEFT
 10
0.0
 20
0.0
 30
0.0
  9
$PUCSORGRIGHT
 10
0.0
 20
0.0
 30
0.0
  9
$PUCSORGFRONT
 10
0.0
 20
0.0
 30
0.0
  9
$PUCSORGBACK
 10
0.0
 20
0.0
 30
0.0
  9
$USERI1
 70
     0
  9
$USERI2
 70
     0
  9
$USERI3
 70
     0
  9
$USERI4
 70
     0
  9
$USERI5
 70
     0
  9
$USERR1
 40
0.0
  9
$USERR2
 40
0.0
  9
$USERR3
 40
0.0
  9
$USERR4
 40
0.0
  9
$USERR5
 40
0.0
  9
$WORLDVIEW
 70
     1
  9
$SHADEDGE
 70
     3
  9
$SHADEDIF
 70
    70
  9
$TILEMODE
 70
     1
  9
$MAXACTVP
 70
    64
  9
$PINSBASE
 10
0.0
 20
0.0
 30
0.0
  9
$PLIMCHECK
 70
     0
  9
$PEXTMIN
 10
1.0000000000E+20
 20
1.0000000000E+20
 30
1.0000000000E+20
  9
$PEXTMAX
 10
-1.0000000000E+20
 20
-1.0000000000E+20
 30
-1.0000000000E+20
  9
$PLIMMIN
 10
0.0
 20
0.0
  9
$PLIMMAX
 10
420.0
 20
297.0
  9
$UNITMODE
 70
     0
  9
$VISRETAIN
 70
     1
  9
$PLINEGEN
 70
     0
  9
$PSLTSCALE
 70
     1
  9
$TREEDEPTH
 70
  3020
  9
$CMLSTYLE
  2
Standard
  9
$CMLJUST
 70
     0
  9
$CMLSCALE
 40
20.0
  9
$PROXYGRAPHICS
 70
     1
  9
$MEASUREMENT
 70
     1
  9
$CELWEIGHT
370
    -1
  9
$ENDCAPS
280
     0
  9
$JOINSTYLE
280
     0
  9
$LWDISPLAY
290
     1
  9
$INSUNITS
 70
     4
  9
$HYPERLINKBASE
  1

  9
$STYLESHEET
  1

  9
$XEDIT
290
     1
  9
$CEPSNTYPE
380
     0
  9
$PSTYLEMODE
290
     1
  9
$FINGERPRINTGUID
  2
{80c0ab60-b2c4-4080-b853-4819f0296744}
  9
$VERSIONGUID
  2
{FAEB1C32-E019-11D5-929B-00C0DF256EC4}
  9
$EXTNAMES
290
     1
  9
$PSVPSCALE
 40
0.0
  9
$OLESTARTUP
290
     0
  0
ENDSEC
  0
SECTION
  2
CLASSES
  0
CLASS
  1
ACDBDICTIONARYWDFLT
  2
AcDbDictionaryWithDefault
  3
ObjectDBX Classes
 90
        0
280
     0
281
     0
  0
CLASS
  1
VISUALSTYLE
  2
AcDbVisualStyle
  3
ObjectDBX Classes
 90
     4095
280
     0
281
     0
  0
CLASS
  1
MATERIAL
  2
AcDbMaterial
  3
ObjectDBX Classes
 90
     1153
280
     0
281
     0
  0
CLASS
  1
SCALE
  2
AcDbScale
  3
ObjectDBX Classes
 90
     1153
280
     0
281
     0
  0
CLASS
  1
TABLESTYLE
  2
AcDbTableStyle
  3
ObjectDBX Classes
 90
     4095
280
     0
281
     0
  0
CLASS
  1
MLEADERSTYLE
  2
AcDbMLeaderStyle
  3
ACDB_MLEADERSTYLE_CLASS
 90
     4095
280
     0
281
     0
  0
CLASS
  1
SUN
  2
AcDbSun
  3
SCENEOE
 90
     1153
280
     0
281
     0
  0
CLASS
  1
ACDBPLACEHOLDER
  2
AcDbPlaceHolder
  3
ObjectDBX Classes
 90
        0
280
     0
281
     0
  0
CLASS
  1
LAYOUT
  2
AcDbLayout
  3
ObjectDBX Classes
 90
        0
280
     0
281
     0
  0
ENDSEC
  0
SECTION
  2
TABLES
  0
TABLE
  2
VPORT
  5
8
330
0
100
AcDbSymbolTable
 70
     1
  0
VPORT
  5
29
330
8
100
AcDbSymbolTableRecord
100
AcDbViewportTableRecord
  2
*Active
 70
     0
 10
0.0
 20
0.0
 11
1.0
 21
1.0
 12
0.7485136446
 22
-603.6521566401
 13
0.0
 23
0.0
 14
10.0
 24
10.0
 15
10.0
 25
10.0
 16
0.0
 26
0.0
 36
1.0
 17
0.0
 27
0.0
 37
0.0
 40
1020.0000000002
 41
0.0449702273
 42
50.0
 43
0.0
 44
0.0
 50
0.0
 51
0.0
 71
     0
 72
   100
 73
     1
 74
     3
 75
     0
 76
     0
 77
     0
 78
     0
281
     0
 65
     1
110
0.0
120
0.0
130
0.0
111
1.0
121
0.0
131
0.0
112
0.0
122
1.0
132
0.0
 79
     0
146
0.0
  0
ENDTAB
  0
TABLE
  2
LTYPE
  5
5
330
0
100
AcDbSymbolTable
 70
     6
  0
LTYPE
  5
14
330
5
100
AcDbSymbolTableRecord
100
AcDbLinetypeTableRecord
  2
ByBlock
 70
     0
  3

 72
    65
 73
     0
 40
0.0
  0
LTYPE
  5
15
330
5
100
AcDbSymbolTableRecord
100
AcDbLinetypeTableRecord
  2
ByLayer
 70
     0
  3

 72
    65
 73
     0
 40
0.0
  0
LTYPE
  5
16
330
5
100
AcDbSymbolTableRecord
100
AcDbLinetypeTableRecord
  2
Continuous
 70
     0
  3
Solid line
 72
    65
 73
     0
 40
0.0
  0
LTYPE
  5
6E
330
5
100
AcDbSymbolTableRecord
100
AcDbLinetypeTableRecord
  2
HIDDEN
 70
     0
  3
Hidden __ __ __ __ __ __ __ __ __ __ __ __ __ __
 72
    65
 73
     2
 40
1.905
 49
1.27
 74
     0
 49
-0.635
 74
     0
  0
LTYPE
  5
6F
330
5
100
AcDbSymbolTableRecord
100
AcDbLinetypeTableRecord
  2
PHANTOM
 70
     0
  3
Phantom ______  __  __  ______  __  __  ______
 72
    65
 73
     6
 40
12.7
 49
6.35
 74
     0
 49
-1.27
 74
     0
 49
1.27
 74
     0
 49
-1.27
 74
     0
 49
1.27
 74
     0
 49
-1.27
 74
     0
  0
LTYPE
  5
70
330
5
100
AcDbSymbolTableRecord
100
AcDbLinetypeTableRecord
  2
CENTER
 70
     0
  3
Center ____ _ ____ _ ____ _ ____ _ ____ _ ____
 72
    65
 73
     4
 40
10.16
 49
6.35
 74
     0
 49
-1.27
 74
     0
 49
1.27
 74
     0
 49
-1.27
 74
     0
  0
LTYPE
  5
71
330
5
100
AcDbSymbolTableRecord
100
AcDbLinetypeTableRecord
  2
CENTERX2
 70
     0
  3
Center (2x) ________  __  ________  __  _____
 72
    65
 73
     4
 40
20.32
 49
12.7
 74
     0
 49
-2.54
 74
     0
 49
2.54
 74
     0
 49
-2.54
 74
     0
  0
LTYPE
  5
72
330
5
100
AcDbSymbolTableRecord
100
AcDbLinetypeTableRecord
  2
DOT2
 70
     0
  3
Dot (.5x) ........................................
 72
    65
 73
     2
 40
0.635
 49
0.0
 74
     0
 49
-0.635
 74
     0
  0
ENDTAB
  0
TABLE
  2
LAYER
  5
2
330
0
100
AcDbSymbolTable
 70
     1
  0
LAYER
  5
10
330
2
100
AcDbSymbolTableRecord
100
AcDbLayerTableRecord
  2
0
 70
     0
 62
     7
  6
Continuous
370
    -3
390
F
  0
ENDTAB
  0
TABLE
  2
STYLE
  5
3
330
0
100
AcDbSymbolTable
 70
     1
  0
STYLE
  5
11
330
3
100
AcDbSymbolTableRecord
100
AcDbTextStyleTableRecord
  2
Standard
 70
     0
 40
0.0
 41
1.0
 50
0.0
 71
     0
 42
3.5
  3
txt
  4

  0
ENDTAB
  0
TABLE
  2
VIEW
  5
6
330
0
100
AcDbSymbolTable
 70
     0
  0
ENDTAB
  0
TABLE
  2
UCS
  5
7
330
0
100
AcDbSymbolTable
 70
     0
  0
ENDTAB
  0
TABLE
  2
APPID
  5
9
330
0
100
AcDbSymbolTable
 70
     1
  0
APPID
  5
12
330
9
100
AcDbSymbolTableRecord
100
AcDbRegAppTableRecord
  2
ACAD
 70
     0
  0
ENDTAB
  0
TABLE
  2
DIMSTYLE
  5
A
330
0
100
AcDbSymbolTable
 70
     1
100
AcDbDimStyleTable
  0
DIMSTYLE
105
27
330
A
100
AcDbSymbolTableRecord
100
AcDbDimStyleTableRecord
  2
ISO-25
 70
     0
 41
2.5
 42
0.625
 43
3.75
 44
1.25
 73
     0
 74
     0
 77
     1
 78
     8
140
2.5
141
2.5
143
0.0393700787
147
0.625
171
     3
172
     1
178
     0
271
     2
272
     2
274
     3
278
    44
283
     0
284
     8
340
11
  0
ENDTAB
  0
TABLE
  2
BLOCK_RECORD
  5
1
330
0
100
AcDbSymbolTable
 70
     1
  0
BLOCK_RECORD
  5
1F
330
1
100
AcDbSymbolTableRecord
100
AcDbBlockTableRecord
  2
*Model_Space
340
22
  0
BLOCK_RECORD
  5
1B
330
1
100
AcDbSymbolTableRecord
100
AcDbBlockTableRecord
  2
*Paper_Space
340
1E
  0
BLOCK_RECORD
  5
23
330
1
100
AcDbSymbolTableRecord
100
AcDbBlockTableRecord
  2
*Paper_Space0
340
26
  0
ENDTAB
  0
ENDSEC
  0
SECTION
  2
BLOCKS
  0
BLOCK
  5
20
330
1F
100
AcDbEntity
  8
0
100
AcDbBlockBegin
  2
*Model_Space
 70
     0
 10
0.0
 20
0.0
 30
0.0
  3
*Model_Space
  1

  0
ENDBLK
  5
21
330
1F
100
AcDbEntity
  8
0
100
AcDbBlockEnd
  0
BLOCK
  5
1C
330
1B
100
AcDbEntity
 67
     1
  8
0
100
AcDbBlockBegin
  2
*Paper_Space
 70
     0
 10
0.0
 20
0.0
 30
0.0
  3
*Paper_Space
  1

  0
ENDBLK
  5
1D
330
1B
100
AcDbEntity
 67
     1
  8
0
100
AcDbBlockEnd
  0
BLOCK
  5
24
330
23
100
AcDbEntity
  8
0
100
AcDbBlockBegin
  2
*Paper_Space0
 70
     0
 10
0.0
 20
0.0
 30
0.0
  3
*Paper_Space0
  1

  0
ENDBLK
  5
25
330
23
100
AcDbEntity
  8
0
100
AcDbBlockEnd
  0
ENDSEC
  0
SECTION
  2
ENTITIES
  0
LINE
  5
73
330
1F
100
AcDbEntity
  8
0
  6
CENTERX2
 62
     7
100
AcDbLine
 10
-0.8831863557
 20
-103.6521566402
 30
0.0
 11
-0.8831863557
 21
-1103.6521566402
 31
0.0
  0
SPLINE
  5
74
330
1F
100
AcDbEntity
  8
0
  6
Continuous
 62
     7
370
    25
100
AcDbSpline
210
0.0
220
0.0
230
1.0
 70
     8
 71
     3
 72
    34
 73
    30
 74
     0
 42
0.00000001
 43
0.00000001
 40
0.0
 40
0.0
 40
0.0
 40
0.0
 40
0.0624999999999832
 40
0.0624999999999832
 40
0.1249999999999665
 40
0.1249999999999665
 40
0.1874999999999498
 40
0.1874999999999498
 40
0.249999999999933
 40
0.249999999999933
 40
0.3749999999999334
 40
0.3749999999999334
 40
0.4374999999999334
 40
0.4374999999999334
 40
0.4999999999999333
 40
0.4999999999999333
 40
0.5624999999999332
 40
0.5624999999999332
 40
0.624999999999933
 40
0.624999999999933
 40
0.7499999999999328
 40
0.7499999999999328
 40
0.8124999999999497
 40
0.8124999999999497
 40
0.8749999999999665
 40
0.8749999999999665
 40
0.9374999999999832
 40
0.9374999999999832
 40
1.0
 40
1.0
 40
1.0
 40
1.0
 10
9.351927289299182
 20
-558.6521566401199
 30
0.0
 10
9.351890973216635
 20
-558.8007224141795
 30
0.0
 10
9.366150494687153
 20
-558.9471820584474
 30
0.0
 10
9.423650282798851
 20
-559.2358317677742
 30
0.0
 10
9.467531279345843
 20
-559.3789671345896
 30
0.0
 10
9.580063884103067
 20
-559.6503142191957
 30
0.0
 10
9.648839778201289
 20
-559.7797795425769
 30
0.0
 10
9.813087816254216
 20
-560.0254614625055
 30
0.0
 10
9.907902004993026
 20
-560.1401397728018
 30
0.0
 10
10.21886987722409
 20
-560.4510241460647
 30
0.0
 10
10.47002630041902
 20
-560.6186335971342
 30
0.0
 10
10.87653199633558
 20
-560.7870989513768
 30
0.0
 10
11.01959398855713
 20
-560.8308748964971
 30
0.0
 10
11.3084001875469
 20
-560.8881324371931
 30
0.0
 10
11.45422604902041
 20
-560.902087142537
 30
0.0
 10
11.74857036118158
 20
-560.9022257596891
 30
0.0
 10
11.89744231097802
 20
-560.8878675424597
 30
0.0
 10
12.18493911825678
 20
-560.8306101750845
 30
0.0
 10
12.32520709851102
 20
-560.7878409644827
 30
0.0
 10
12.73580820040402
 20
-560.6180804685686
 30
0.0
 10
12.98312518161892
 20
-560.4526425753938
 30
0.0
 10
13.29666359044693
 20
-560.1395481031304
 30
0.0
 10
13.38993252978942
 20
-560.0265220079483
 30
0.0
 10
13.55328169205072
 20
-559.78260729573
 30
0.0
 10
13.62366928733269
 20
-559.6504049995559
 30
0.0
 10
13.73637508632985
 20
-559.3790400221058
 30
0.0
 10
13.77953705574179
 20
-559.238983496599
 30
0.0
 10
13.83752671080716
 20
-558.9494749595551
 30
0.0
 10
13.85192728929908
 20
-558.8007968190068
 30
0.0
 10
13.85192728929907
 20
-558.6521566401199
 30
0.0
  0
SPLINE
  5
75
330
1F
100
AcDbEntity
  8
0
  6
Continuous
 62
     7
370
    25
100
AcDbSpline
210
0.0
220
0.0
230
1.0
 70
     8
 71
     3
 72
    34
 73
    30
 74
     0
 42
0.00000001
 43
0.00000001
 40
0.0
 40
0.0
 40
0.0
 40
0.0
 40
0.06250000000002
 40
0.06250000000002
 40
0.1250000000000401
 40
0.1250000000000401
 40
0.1875000000000601
 40
0.1875000000000601
 40
0.2500000000000801
 40
0.2500000000000801
 40
0.3750000000000872
 40
0.3750000000000872
 40
0.4375000000000904
 40
0.4375000000000904
 40
0.5000000000000936
 40
0.5000000000000936
 40
0.5625000000000967
 40
0.5625000000000967
 40
0.6250000000000999
 40
0.6250000000000999
 40
0.750000000000089
 40
0.750000000000089
 40
0.8125000000000668
 40
0.8125000000000668
 40
0.8750000000000445
 40
0.8750000000000445
 40
0.9375000000000223
 40
0.9375000000000223
 40
1.0
 40
1.0
 40
1.0
 40
1.0
 10
13.85192728929907
 20
-558.6521566401198
 30
0.0
 10
13.85192728928371
 20
-558.5035958348947
 30
0.0
 10
13.8376907066155
 20
-558.357132285212
 30
0.0
 10
13.78020879694675
 20
-558.0684785955069
 30
0.0
 10
13.73632241710127
 20
-557.9253439090035
 30
0.0
 10
13.62379106698411
 20
-557.6540000697152
 30
0.0
 10
13.5550168250676
 20
-557.5245380425229
 30
0.0
 10
13.39077653788393
 20
-557.2788651647155
 30
0.0
 10
13.29595593063371
 20
-557.1641772030367
 30
0.0
 10
12.98498603259195
 20
-556.8532897875448
 30
0.0
 10
12.7338263219808
 20
-556.6856787903811
 30
0.0
 10
12.32732272538937
 20
-556.5172144299139
 30
0.0
 10
12.18426448371144
 20
-556.4734390740747
 30
0.0
 10
11.89544812354559
 20
-556.4161796830487
 30
0.0
 10
11.7496211246366
 20
-556.4022258454264
 30
0.0
 10
11.45528243967402
 20
-556.402087809472
 30
0.0
 10
11.30640489876573
 20
-556.4164465138717
 30
0.0
 10
11.01890273835934
 20
-556.4737063313286
 30
0.0
 10
10.87863623629089
 20
-556.5164764994427
 30
0.0
 10
10.46805005763707
 20
-556.6862322218844
 30
0.0
 10
10.22072765017466
 20
-556.8516702000992
 30
0.0
 10
9.907178503291364
 20
-557.1647787696227
 30
0.0
 10
9.813920884709908
 20
-557.2778156665505
 30
0.0
 10
9.650576866870393
 20
-557.5217274418505
 30
0.0
 10
9.580178589360557
 20
-557.6539222517745
 30
0.0
 10
9.467474443110827
 20
-557.925287585456
 30
0.0
 10
9.424332704985826
 20
-558.065345643045
 30
0.0
 10
9.366365694524971
 20
-558.3548404456254
 30
0.0
 10
9.351963622703439
 20
-558.5035200667056
 30
0.0
 10
9.35192728929918
 20
-558.6521566401198
 30
0.0
  0
SPLINE
  5
76
330
1F
100
AcDbEntity
  8
0
  6
Continuous
 62
     7
370
    25
100
AcDbSpline
210
0.0
220
0.0
230
1.0
 70
     8
 71
     3
 72
    34
 73
    30
 74
     0
 42
0.00000001
 43
0.00000001
 40
0.0
 40
0.0
 40
0.0
 40
0.0
 40
0.062500000000001
 40
0.062500000000001
 40
0.1250000000000021
 40
0.1250000000000021
 40
0.1875000000000031
 40
0.1875000000000031
 40
0.2500000000000041
 40
0.2500000000000041
 40
0.3750000000000056
 40
0.3750000000000056
 40
0.4375000000000063
 40
0.4375000000000063
 40
0.5000000000000071
 40
0.5000000000000071
 40
0.5625000000000079
 40
0.5625000000000079
 40
0.6250000000000087
 40
0.6250000000000087
 40
0.7500000000000058
 40
0.7500000000000058
 40
0.8125000000000042
 40
0.8125000000000042
 40
0.8750000000000028
 40
0.8750000000000028
 40
0.9375000000000014
 40
0.9375000000000014
 40
1.0
 40
1.0
 40
1.0
 40
1.0
 10
9.351927289299182
 20
-133.6521566401201
 30
0.0
 10
9.351890973216634
 20
-133.8007224141861
 30
0.0
 10
9.366150494688368
 20
-133.9471820584602
 30
0.0
 10
9.42365028280516
 20
-134.2358317677993
 30
0.0
 10
9.467531279356086
 20
-134.3789671346204
 30
0.0
 10
9.580063884122712
 20
-134.6503142192369
 30
0.0
 10
9.648839778208297
 20
-134.7797795426326
 30
0.0
 10
9.813087816276797
 20
-135.0254614625705
 30
0.0
 10
9.907902005040748
 20
-135.1401397728567
 30
0.0
 10
10.21886987730704
 20
-135.4510241461348
 30
0.0
 10
10.47002630046296
 20
-135.6186335972843
 30
0.0
 10
10.87653199645499
 20
-135.7870989513597
 30
0.0
 10
11.01959398866373
 20
-135.8308748965
 30
0.0
 10
11.30840018764968
 20
-135.8881324372102
 30
0.0
 10
11.45422604912187
 20
-135.9020871425433
 30
0.0
 10
11.74857036127742
 20
-135.9022257596831
 30
0.0
 10
11.89744231107115
 20
-135.8878675424647
 30
0.0
 10
12.18493911834095
 20
-135.8306101750936
 30
0.0
 10
12.32520709858703
 20
-135.7878409644853
 30
0.0
 10
12.73580820043624
 20
-135.6180804684876
 30
0.0
 10
12.98312518165523
 20
-135.4526425752554
 30
0.0
 10
13.29666359053694
 20
-135.1395481030917
 30
0.0
 10
13.3899325298536
 20
-135.0265220079088
 30
0.0
 10
13.55328169207455
 20
-134.7826072956981
 30
0.0
 10
13.62366928734628
 20
-134.6504049995277
 30
0.0
 10
13.73637508633878
 20
-134.3790400220794
 30
0.0
 10
13.77953705574796
 20
-134.2389834965748
 30
0.0
 10
13.83752671080881
 20
-133.9494749595399
 30
0.0
 10
13.85192728929907
 20
-133.8007968189998
 30
0.0
 10
13.85192728929907
 20
-133.6521566401201
 30
0.0
  0
SPLINE
  5
77
330
1F
100
AcDbEntity
  8
0
  6
Continuous
 62
     7
370
    25
100
AcDbSpline
210
0.0
220
0.0
230
1.0
 70
     8
 71
     3
 72
    34
 73
    30
 74
     0
 42
0.00000001
 43
0.00000001
 40
0.0
 40
0.0
 40
0.0
 40
0.0
 40
0.0624999999999958
 40
0.0624999999999958
 40
0.1249999999999915
 40
0.1249999999999915
 40
0.1874999999999873
 40
0.1874999999999873
 40
0.249999999999983
 40
0.249999999999983
 40
0.3749999999999824
 40
0.3749999999999824
 40
0.4374999999999843
 40
0.4374999999999843
 40
0.4999999999999863
 40
0.4999999999999863
 40
0.5624999999999883
 40
0.5624999999999883
 40
0.6249999999999902
 40
0.6249999999999902
 40
0.7499999999999934
 40
0.7499999999999934
 40
0.8124999999999951
 40
0.8124999999999951
 40
0.8749999999999967
 40
0.8749999999999967
 40
0.9374999999999983
 40
0.9374999999999983
 40
1.0
 40
1.0
 40
1.0
 40
1.0
 10
13.85192728929907
 20
-133.65215664012
 30
0.0
 10
13.85192728928372
 20
-133.503595834891
 30
0.0
 10
13.83769070664203
 20
-133.3571322852004
 30
0.0
 10
13.78020879697021
 20
-133.0684785954867
 30
0.0
 10
13.73632241709562
 20
-132.9253439089858
 30
0.0
 10
13.62379106696664
 20
-132.6540000696779
 30
0.0
 10
13.55501682510596
 20
-132.5245380424428
 30
0.0
 10
13.39077653791737
 20
-132.2788651646026
 30
0.0
 10
13.29595593061632
 20
-132.164177202953
 30
0.0
 10
12.98498603244462
 20
-131.8532897875304
 30
0.0
 10
12.73382632192741
 20
-131.6856787902255
 30
0.0
 10
12.32732272526772
 20
-131.5172144299305
 30
0.0
 10
12.18426448360504
 20
-131.4734390740723
 30
0.0
 10
11.89544812344236
 20
-131.4161796830319
 30
0.0
 10
11.74962112453463
 20
-131.4022258454204
 30
0.0
 10
11.45528243957803
 20
-131.4020878094783
 30
0.0
 10
11.30640489867412
 20
-131.4164465138504
 30
0.0
 10
11.01890273828491
 20
-131.4737063312997
 30
0.0
 10
10.87863623623257
 20
-131.5164764994342
 30
0.0
 10
10.46805005763591
 20
-131.686232221951
 30
0.0
 10
10.22072765013321
 20
-131.8516702001331
 30
0.0
 10
9.90717850326913
 20
-132.1647787696483
 30
0.0
 10
9.81392088469239
 20
-132.2778156665736
 30
0.0
 10
9.65057686685979
 20
-132.5217274418694
 30
0.0
 10
9.580178589352247
 20
-132.6539222517919
 30
0.0
 10
9.467474443106688
 20
-132.9252875854685
 30
0.0
 10
9.424332704983238
 20
-133.0653456430552
 30
0.0
 10
9.366365694524363
 20
-133.3548404456312
 30
0.0
 10
9.35196362270342
 20
-133.5035200667086
 30
0.0
 10
9.35192728929918
 20
-133.6521566401201
 30
0.0
  0
SPLINE
  5
78
330
1F
100
AcDbEntity
  8
0
  6
Continuous
 62
     7
370
    25
100
AcDbSpline
210
0.0
220
0.0
230
1.0
 70
     8
 71
     3
 72
    34
 73
    30
 74
     0
 42
0.00000001
 43
0.00000001
 40
0.0
 40
0.0
 40
0.0
 40
0.0
 40
0.0625000000000032
 40
0.0625000000000032
 40
0.1250000000000063
 40
0.1250000000000063
 40
0.1875000000000095
 40
0.1875000000000095
 40
0.2500000000000127
 40
0.2500000000000127
 40
0.375000000000019
 40
0.375000000000019
 40
0.4375000000000225
 40
0.4375000000000225
 40
0.500000000000026
 40
0.500000000000026
 40
0.5625000000000295
 40
0.5625000000000295
 40
0.625000000000033
 40
0.625000000000033
 40
0.7500000000000221
 40
0.7500000000000221
 40
0.8125000000000165
 40
0.8125000000000165
 40
0.8750000000000111
 40
0.8750000000000111
 40
0.9375000000000056
 40
0.9375000000000056
 40
1.0
 40
1.0
 40
1.0
 40
1.0
 10
9.351927289299015
 20
-623.65215664012
 30
0.0
 10
9.351890973216454
 20
-623.8007224141808
 30
0.0
 10
9.366150494667906
 20
-623.9471820584527
 30
0.0
 10
9.423650282774878
 20
-624.2358317677844
 30
0.0
 10
9.467531279336526
 20
-624.3789671345996
 30
0.0
 10
9.580063884119234
 20
-624.6503142192053
 30
0.0
 10
9.64883977820835
 20
-624.7797795425973
 30
0.0
 10
9.813087816266416
 20
-625.0254614625369
 30
0.0
 10
9.907902005014908
 20
-625.1401397728265
 30
0.0
 10
10.21886987725928
 20
-625.4510241460957
 30
0.0
 10
10.47002630043544
 20
-625.6186335972052
 30
0.0
 10
10.87653199638903
 20
-625.7870989513672
 30
0.0
 10
11.01959398860419
 20
-625.830874896498
 30
0.0
 10
11.30840018759149
 20
-625.8881324372014
 30
0.0
 10
11.45422604906418
 20
-625.9020871425402
 30
0.0
 10
11.74857036122245
 20
-625.9022257596864
 30
0.0
 10
11.89744231101735
 20
-625.8878675424628
 30
0.0
 10
12.18493911829179
 20
-625.8306101750906
 30
0.0
 10
12.32520709854215
 20
-625.7878409644862
 30
0.0
 10
12.73580820041457
 20
-625.6180804685328
 30
0.0
 10
12.98312518162925
 20
-625.4526425753301
 30
0.0
 10
13.29666359048614
 20
-625.139548103118
 30
0.0
 10
13.38993252982226
 20
-625.0265220079401
 30
0.0
 10
13.55328169206756
 20
-624.7826072957271
 30
0.0
 10
13.62366928734181
 20
-624.6504049995518
 30
0.0
 10
13.73637508632703
 20
-624.3790400220968
 30
0.0
 10
13.77953705573805
 20
-624.2389834965894
 30
0.0
 10
13.83752671080485
 20
-623.9494749595476
 30
0.0
 10
13.85192728929891
 20
-623.800796819004
 30
0.0
 10
13.8519272892989
 20
-623.65215664012
 30
0.0
  0
SPLINE
  5
79
330
1F
100
AcDbEntity
  8
0
  6
Continuous
 62
     7
370
    25
100
AcDbSpline
210
0.0
220
0.0
230
1.0
 70
     8
 71
     3
 72
    34
 73
    30
 74
     0
 42
0.00000001
 43
0.00000001
 40
0.0
 40
0.0
 40
0.0
 40
0.0
 40
0.0624999999999878
 40
0.0624999999999878
 40
0.1249999999999757
 40
0.1249999999999757
 40
0.1874999999999635
 40
0.1874999999999635
 40
0.2499999999999514
 40
0.2499999999999514
 40
0.37499999999996
 40
0.37499999999996
 40
0.4374999999999644
 40
0.4374999999999644
 40
0.4999999999999687
 40
0.4999999999999687
 40
0.5624999999999729
 40
0.5624999999999729
 40
0.6249999999999772
 40
0.6249999999999772
 40
0.7499999999999851
 40
0.7499999999999851
 40
0.8124999999999888
 40
0.8124999999999888
 40
0.8749999999999926
 40
0.8749999999999926
 40
0.9374999999999962
 40
0.9374999999999962
 40
1.0
 40
1.0
 40
1.0
 40
1.0
 10
13.8519272892989
 20
-623.65215664012
 30
0.0
 10
13.85192728928354
 20
-623.5035958348935
 30
0.0
 10
13.83769070663443
 20
-623.3571322852066
 30
0.0
 10
13.78020879697037
 20
-623.0684785954968
 30
0.0
 10
13.73632241710998
 20
-622.9253439089933
 30
0.0
 10
13.62379106696684
 20
-622.6540000697058
 30
0.0
 10
13.55501682505938
 20
-622.5245380425022
 30
0.0
 10
13.39077653787075
 20
-622.2788651646835
 30
0.0
 10
13.29595593061082
 20
-622.1641772030111
 30
0.0
 10
12.98498603255453
 20
-621.8532897875142
 30
0.0
 10
12.733826321963
 20
-621.6856787903096
 30
0.0
 10
12.32732272533432
 20
-621.5172144299236
 30
0.0
 10
12.18426448366282
 20
-621.4734390740741
 30
0.0
 10
11.89544812349945
 20
-621.4161796830406
 30
0.0
 10
11.74962112459135
 20
-621.4022258454235
 30
0.0
 10
11.45528243963174
 20
-621.4020878094755
 30
0.0
 10
11.30640489872497
 20
-621.4164465138692
 30
0.0
 10
11.01890273832303
 20
-621.4737063313232
 30
0.0
 10
10.8786362362584
 20
-621.5164764994404
 30
0.0
 10
10.46805005762545
 20
-621.6862322219223
 30
0.0
 10
10.22072765016316
 20
-621.8516702001641
 30
0.0
 10
9.907178503251316
 20
-622.1647787696367
 30
0.0
 10
9.813920884676442
 20
-622.2778156665598
 30
0.0
 10
9.650576866853214
 20
-622.5217274418543
 30
0.0
 10
9.580178589351123
 20
-622.6539222517791
 30
0.0
 10
9.467474443113183
 20
-622.9252875854655
 30
0.0
 10
9.424332704989226
 20
-623.0653456430548
 30
0.0
 10
9.366365694526944
 20
-623.354840445633
 30
0.0
 10
9.351963622703277
 20
-623.5035200667087
 30
0.0
 10
9.351927289299013
 20
-623.65215664012
 30
0.0
  0
SPLINE
  5
7A
330
1F
100
AcDbEntity
  8
0
  6
Continuous
 62
     7
370
    25
100
AcDbSpline
210
0.0
220
0.0
230
1.0
 70
     8
 71
     3
 72
    34
 73
    30
 74
     0
 42
0.00000001
 43
0.00000001
 40
0.0
 40
0.0
 40
0.0
 40
0.0
 40
0.0625000000000112
 40
0.0625000000000112
 40
0.1250000000000223
 40
0.1250000000000223
 40
0.1875000000000335
 40
0.1875000000000335
 40
0.2500000000000446
 40
0.2500000000000446
 40
0.3750000000000669
 40
0.3750000000000669
 40
0.4375000000000603
 40
0.4375000000000603
 40
0.5000000000000537
 40
0.5000000000000537
 40
0.5625000000000471
 40
0.5625000000000471
 40
0.6250000000000405
 40
0.6250000000000405
 40
0.7500000000000273
 40
0.7500000000000273
 40
0.8125000000000204
 40
0.8125000000000204
 40
0.8750000000000137
 40
0.8750000000000137
 40
0.9375000000000068
 40
0.9375000000000068
 40
1.0
 40
1.0
 40
1.0
 40
1.0
 10
9.351927289299015
 20
-1048.65215664012
 30
0.0
 10
9.351890973216445
 20
-1048.800722414185
 30
0.0
 10
9.366150494674429
 20
-1048.94718205846
 30
0.0
 10
9.423650282790264
 20
-1049.235831767798
 30
0.0
 10
9.46753127935353
 20
-1049.378967134616
 30
0.0
 10
9.580063884121394
 20
-1049.650314219237
 30
0.0
 10
9.648839778185971
 20
-1049.779779542647
 30
0.0
 10
9.813087816250393
 20
-1050.025461462597
 30
0.0
 10
9.907902005027744
 20
-1050.140139772873
 30
0.0
 10
10.21886987734158
 20
-1050.45102414611
 30
0.0
 10
10.47002630047164
 20
-1050.618633597289
 30
0.0
 10
10.87653199646077
 20
-1050.787098951363
 30
0.0
 10
11.01959398866891
 20
-1050.830874896503
 30
0.0
 10
11.30840018765591
 20
-1050.888132437212
 30
0.0
 10
11.45422604912841
 20
-1050.902087142544
 30
0.0
 10
11.7485703612842
 20
-1050.902225759683
 30
0.0
 10
11.89744231107745
 20
-1050.887867542464
 30
0.0
 10
12.18493911834658
 20
-1050.830610175093
 30
0.0
 10
12.32520709859233
 20
-1050.787840964484
 30
0.0
 10
12.73580820044106
 20
-1050.618080468486
 30
0.0
 10
12.9831251816583
 20
-1050.452642575253
 30
0.0
 10
13.29666359053879
 20
-1050.13954810309
 30
0.0
 10
13.38993252985575
 20
-1050.026522007907
 30
0.0
 10
13.55328169207672
 20
-1049.782607295697
 30
0.0
 10
13.62366928734814
 20
-1049.650404999526
 30
0.0
 10
13.7363750863393
 20
-1049.379040022079
 30
0.0
 10
13.77953705574806
 20
-1049.238983496574
 30
0.0
 10
13.83752671080865
 20
-1048.949474959539
 30
0.0
 10
13.8519272892989
 20
-1048.800796818999
 30
0.0
 10
13.8519272892989
 20
-1048.65215664012
 30
0.0
  0
SPLINE
  5
7B
330
1F
100
AcDbEntity
  8
0
  6
Continuous
 62
     7
370
    25
100
AcDbSpline
210
0.0
220
0.0
230
1.0
 70
     8
 71
     3
 72
    34
 73
    30
 74
     0
 42
0.00000001
 43
0.00000001
 40
0.0
 40
0.0
 40
0.0
 40
0.0
 40
0.062500000000018
 40
0.062500000000018
 40
0.1250000000000361
 40
0.1250000000000361
 40
0.1875000000000541
 40
0.1875000000000541
 40
0.2500000000000721
 40
0.2500000000000721
 40
0.3750000000001076
 40
0.3750000000001076
 40
0.4375000000001076
 40
0.4375000000001076
 40
0.5000000000001076
 40
0.5000000000001076
 40
0.5625000000001076
 40
0.5625000000001076
 40
0.6250000000001077
 40
0.6250000000001077
 40
0.7500000000000718
 40
0.7500000000000718
 40
0.812500000000054
 40
0.812500000000054
 40
0.875000000000036
 40
0.875000000000036
 40
0.9375000000000181
 40
0.9375000000000181
 40
1.0
 40
1.0
 40
1.0
 40
1.0
 10
13.8519272892989
 20
-1048.652156640119
 30
0.0
 10
13.85192728928352
 20
-1048.503595834889
 30
0.0
 10
13.83769070662755
 20
-1048.357132285198
 30
0.0
 10
13.7802087969548
 20
-1048.068478595483
 30
0.0
 10
13.73632241709305
 20
-1047.925343908977
 30
0.0
 10
13.6237910669649
 20
-1047.654000069674
 30
0.0
 10
13.55501682508238
 20
-1047.524538042454
 30
0.0
 10
13.39077653788801
 20
-1047.278865164626
 30
0.0
 10
13.29595593059959
 20
-1047.164177202967
 30
0.0
 10
12.98498603247499
 20
-1046.853289787503
 30
0.0
 10
12.73382632193029
 20
-1046.685678790229
 30
0.0
 10
12.32732272526752
 20
-1046.51721442993
 30
0.0
 10
12.18426448360348
 20
-1046.473439074071
 30
0.0
 10
11.89544812344112
 20
-1046.416179683031
 30
0.0
 10
11.74962112453345
 20
-1046.40222584542
 30
0.0
 10
11.45528243957674
 20
-1046.402087809479
 30
0.0
 10
11.30640489867201
 20
-1046.416446513859
 30
0.0
 10
11.01890273827872
 20
-1046.473706331311
 30
0.0
 10
10.87863623622228
 20
-1046.516476499438
 30
0.0
 10
10.46805005761904
 20
-1046.686232221959
 30
0.0
 10
10.22072765013549
 20
-1046.851670200187
 30
0.0
 10
9.907178503234723
 20
-1047.164778769657
 30
0.0
 10
9.813920884668198
 20
-1047.277815666582
 30
0.0
 10
9.650576866852118
 20
-1047.521727441876
 30
0.0
 10
9.580178589348558
 20
-1047.653922251798
 30
0.0
 10
9.467474443103892
 20
-1047.925287585476
 30
0.0
 10
9.424332704981172
 20
-1048.065345643063
 30
0.0
 10
9.366365694523738
 20
-1048.354840445636
 30
0.0
 10
9.351963622703307
 20
-1048.503520066711
 30
0.0
 10
9.351927289299018
 20
-1048.65215664012
 30
0.0
  0
SPLINE
  5
83
330
1F
100
AcDbEntity
  8
0
  6
Continuous
 62
     7
370
    25
100
AcDbSpline
210
0.0
220
0.0
230
1.0
 70
     8
 71
     3
 72
    22
 73
    18
 74
     0
 42
0.00000001
 43
0.00000001
 40
0.0
 40
0.0
 40
0.0
 40
0.0
 40
0.0625
 40
0.0625
 40
0.125
 40
0.125
 40
0.1875
 40
0.1875
 40
0.25
 40
0.25
 40
0.3125
 40
0.3125
 40
0.375
 40
0.375
 40
0.4375
 40
0.4375
 40
0.5
 40
0.5
 40
0.5
 40
0.5
 10
-15.4324519522783
 20
-1089.08385664035
 30
0.0
 10
-15.4325249764397
 20
-1088.785121440423
 30
0.0
 10
-15.48961532705623
 20
-1088.49810886615
 30
0.0
 10
-15.71783068119957
 20
-1087.94752896891
 30
0.0
 10
-15.88069104482736
 20
-1087.703534014227
 30
0.0
 10
-16.30223234438976
 20
-1087.282198751133
 30
0.0
 10
-16.54606852768448
 20
-1087.119100769473
 30
0.0
 10
-17.09675993122922
 20
-1086.891154614927
 30
0.0
 10
-17.3844500856788
 20
-1086.83378379544
 30
0.0
 10
-17.9804538188778
 20
-1086.833929485259
 30
0.0
 10
-18.26819972636652
 20
-1086.891020015135
 30
0.0
 10
-18.81877962383298
 20
-1087.119235369265
 30
0.0
 10
-19.06277457823735
 20
-1087.282095732776
 30
0.0
 10
-19.48410984165875
 20
-1087.703637032584
 30
0.0
 10
-19.64720782317993
 20
-1087.947473215738
 30
0.0
 10
-19.87515397767747
 20
-1088.498164619322
 30
0.0
 10
-19.9324519522783
 20
-1088.786055513384
 30
0.0
 10
-19.9324519522783
 20
-1089.08385664035
 30
0.0
  0
SPLINE
  5
84
330
1F
100
AcDbEntity
  8
0
  6
Continuous
 62
     7
370
    25
100
AcDbSpline
210
0.0
220
0.0
230
1.0
 70
     8
 71
     3
 72
    22
 73
    18
 74
     0
 42
0.00000001
 43
0.00000001
 40
0.5
 40
0.5
 40
0.5
 40
0.5
 40
0.5625
 40
0.5625
 40
0.625
 40
0.625
 40
0.6875
 40
0.6875
 40
0.75
 40
0.75
 40
0.8125
 40
0.8125
 40
0.875
 40
0.875
 40
0.9375
 40
0.9375
 40
1.0
 40
1.0
 40
1.0
 40
1.0
 10
-15.4324519522783
 20
-1089.08385664035
 30
0.0
 10
-15.43237923176092
 20
-1089.381349660229
 30
0.0
 10
-15.48974992687622
 20
-1089.669548661377
 30
0.0
 10
-15.71769608137958
 20
-1090.220240064967
 30
0.0
 10
-15.88079406289465
 20
-1090.464076248116
 30
0.0
 10
-16.30212932632247
 20
-1090.885617547924
 30
0.0
 10
-16.54612428072362
 20
-1091.048477911436
 30
0.0
 10
-17.09670417819008
 20
-1091.276693265564
 30
0.0
 10
-17.3844500856788
 20
-1091.33378379544
 30
0.0
 10
-17.9804538188778
 20
-1091.333929485259
 30
0.0
 10
-18.26814397343012
 20
-1091.276558665731
 30
0.0
 10
-18.81883537676938
 20
-1091.048612511269
 30
0.0
 10
-19.06267156020792
 20
-1090.885514529466
 30
0.0
 10
-19.48421285968818
 20
-1090.464179266575
 30
0.0
 10
-19.64700019919563
 20
-1090.220360485899
 30
0.0
 10
-19.87536160166177
 20
-1089.669428240445
 30
0.0
 10
-19.9324519522783
 20
-1089.382415666171
 30
0.0
 10
-19.9324519522783
 20
-1089.08385664035
 30
0.0
  0
SPLINE
  5
85
330
1F
100
AcDbEntity
  8
0
  6
Continuous
 62
     7
370
    25
100
AcDbSpline
210
0.0
220
0.0
230
1.0
 70
     8
 71
     3
 72
    22
 73
    18
 74
     0
 42
0.00000001
 43
0.00000001
 40
0.5
 40
0.5
 40
0.5
 40
0.5
 40
0.5625
 40
0.5625
 40
0.625
 40
0.625
 40
0.6875
 40
0.6875
 40
0.75
 40
0.75
 40
0.8125
 40
0.8125
 40
0.875
 40
0.875
 40
0.9375
 40
0.9375
 40
1.0
 40
1.0
 40
1.0
 40
1.0
 10
-15.4324519522786
 20
-118.22045664036
 30
0.0
 10
-15.43237923176122
 20
-118.5179496602409
 30
0.0
 10
-15.4897499268765
 20
-118.8061486613874
 30
0.0
 10
-15.71769608137989
 20
-119.3568400649765
 30
0.0
 10
-15.88079406289496
 20
-119.6006762481244
 30
0.0
 10
-16.30212932632277
 20
-120.0222175479352
 30
0.0
 10
-16.54612428072392
 20
-120.1850779114448
 30
0.0
 10
-17.09670417819038
 20
-120.4132932655753
 30
0.0
 10
-17.3844500856791
 20
-120.4703837954495
 30
0.0
 10
-17.9804538188781
 20
-120.4705294852706
 30
0.0
 10
-18.26814397343041
 20
-120.4131586657408
 30
0.0
 10
-18.81883537676968
 20
-120.1852125112793
 30
0.0
 10
-19.06267156020982
 20
-120.0221145294724
 30
0.0
 10
-19.48421285968688
 20
-119.6007792665872
 30
0.0
 10
-19.64700019919594
 20
-119.356960485906
 30
0.0
 10
-19.87536160166207
 20
-118.8060282404579
 30
0.0
 10
-19.9324519522786
 20
-118.5190156661839
 30
0.0
 10
-19.9324519522786
 20
-118.22045664036
 30
0.0
  0
SPLINE
  5
86
330
1F
100
AcDbEntity
  8
0
  6
Continuous
 62
     7
370
    25
100
AcDbSpline
210
0.0
220
0.0
230
1.0
 70
     8
 71
     3
 72
    22
 73
    18
 74
     0
 42
0.00000001
 43
0.00000001
 40
0.0
 40
0.0
 40
0.0
 40
0.0
 40
0.0625
 40
0.0625
 40
0.125
 40
0.125
 40
0.1875
 40
0.1875
 40
0.25
 40
0.25
 40
0.3125
 40
0.3125
 40
0.375
 40
0.375
 40
0.4375
 40
0.4375
 40
0.5
 40
0.5
 40
0.5
 40
0.5
 10
-19.9324519522786
 20
-118.22045664036
 30
0.0
 10
-19.9324519522786
 20
-117.9226555134004
 30
0.0
 10
-19.87515397767613
 20
-117.6347646193257
 30
0.0
 10
-19.64720782318187
 20
-117.0840732157499
 30
0.0
 10
-19.48410984165905
 20
-116.8402370325927
 30
0.0
 10
-19.06277457823765
 20
-116.4186957327871
 30
0.0
 10
-18.81877962383328
 20
-116.2558353692738
 30
0.0
 10
-18.26819972636682
 20
-116.0276200151459
 30
0.0
 10
-17.9804538188781
 20
-115.9705294852695
 30
0.0
 10
-17.3844500856791
 20
-115.9703837954507
 30
0.0
 10
-17.09675993123112
 20
-116.0277546149365
 30
0.0
 10
-16.54606852768319
 20
-116.2557007694833
 30
0.0
 10
-16.30223234439073
 20
-116.4187987511419
 30
0.0
 10
-15.880691044827
 20
-116.8401340142379
 30
0.0
 10
-15.71783068119987
 20
-117.0841289689162
 30
0.0
 10
-15.48961532705653
 20
-117.6347088661593
 30
0.0
 10
-15.43252497643999
 20
-117.9217214404334
 30
0.0
 10
-15.4324519522786
 20
-118.22045664036
 30
0.0
  0
LINE
  5
87
330
1F
100
AcDbEntity
  8
0
  6
Continuous
 62
     7
370
    25
100
AcDbLine
 10
23.2336272893
 20
-1103.65215664
 30
0.0
 11
-21.7366
 21
-1103.65215664
 31
0.0
  0
LINE
  5
88
330
1F
100
AcDbEntity
  8
0
  6
Continuous
 62
     7
370
    25
100
AcDbLine
 10
-21.7366
 20
-103.65215664
 30
0.0
 11
-21.7366
 21
-1103.65215664
 31
0.0
  0
LINE
  5
89
330
1F
100
AcDbEntity
  8
0
  6
Continuous
 62
     7
370
    25
100
AcDbLine
 10
-21.7366
 20
-103.65215664
 30
0.0
 11
23.2336272893
 21
-103.65215664
 31
0.0
  0
LINE
  5
8A
330
1F
100
AcDbEntity
  8
0
  6
Continuous
 62
     7
370
    25
100
AcDbLine
 10
23.2336272893
 20
-103.65215664
 30
0.0
 11
23.2336272893
 21
-1103.65215664
 31
0.0
  0
ENDSEC
  0
SECTION
  2
OBJECTS
  0
DICTIONARY
  5
C
330
0
100
AcDbDictionary
281
     1
  3
ACAD_GROUP
350
D
  3
ACAD_LAYOUT
350
1A
  3
ACAD_MLINESTYLE
350
17
  3
ACAD_PLOTSETTINGS
350
19
  3
ACAD_PLOTSTYLENAME
350
E
  3
ACAD_SCALELIST
350
47
  3
DWGPROPS
350
8B
  0
DICTIONARY
  5
D
102
{ACAD_REACTORS
330
C
102
}
330
C
100
AcDbDictionary
281
     1
  0
DICTIONARY
  5
1A
102
{ACAD_REACTORS
330
C
102
}
330
C
100
AcDbDictionary
281
     1
  3
Layout1
350
1E
  3
Layout2
350
26
  3
Model
350
22
  0
DICTIONARY
  5
17
102
{ACAD_REACTORS
330
C
102
}
330
C
100
AcDbDictionary
281
     1
  3
Standard
350
18
  0
DICTIONARY
  5
19
102
{ACAD_REACTORS
330
C
102
}
330
C
100
AcDbDictionary
281
     1
  0
ACDBDICTIONARYWDFLT
  5
E
102
{ACAD_REACTORS
330
C
102
}
330
C
100
AcDbDictionary
281
     1
  3
Normal
350
F
100
AcDbDictionaryWithDefault
340
F
  0
DICTIONARY
  5
47
102
{ACAD_REACTORS
330
C
102
}
330
C
100
AcDbDictionary
281
     1
  3
A0
350
48
  3
A1
350
49
  3
A2
350
4A
  3
A3
350
4B
  3
A4
350
4C
  3
A5
350
4D
  3
A6
350
4E
  3
A7
350
4F
  3
A8
350
50
  3
A9
350
51
  3
B0
350
52
  3
B1
350
53
  3
B2
350
54
  3
B3
350
55
  3
B4
350
56
  3
B5
350
57
  3
B6
350
58
  3
B7
350
59
  3
B8
350
5A
  3
B9
350
5B
  3
C0
350
5C
  3
C1
350
5D
  3
C2
350
5E
  3
C3
350
5F
  3
C4
350
60
  3
C5
350
61
  3
C6
350
62
  3
C7
350
63
  3
C8
350
64
  3
C9
350
65
  3
D0
350
66
  3
D1
350
67
  3
D2
350
68
  0
XRECORD
  5
8B
102
{ACAD_REACTORS
330
C
102
}
330
C
100
AcDbXrecord
280
     1
  1
DWGPROPS COOKIE
  2

  3

  4

  6

  7

  8
barre
  9

300
=
301
=
302
=
303
=
304
=
305
=
306
=
307
=
308
=
309
=
 40
0.0
 41
2460232.376835637
 42
2460232.376881146
  1

 90
        0
  0
LAYOUT
  5
1E
102
{ACAD_REACTORS
330
1A
102
}
330
1A
100
AcDbPlotSettings
  1

  2
none_device
  4

  6

 40
0.0
 41
0.0
 42
0.0
 43
0.0
 44
0.0
 45
0.0
 46
0.0
 47
0.0
 48
0.0
 49
0.0
140
0.0
141
0.0
142
1.0
143
1.0
 70
   688
 72
     1
 73
     0
 74
     5
  7

 75
    16
147
1.0
148
0.0
149
0.0
100
AcDbLayout
  1
Layout1
 70
     1
 71
     1
 10
0.0
 20
0.0
 11
420.0
 21
297.0
 12
0.0
 22
0.0
 32
0.0
 14
1.0000000000E+20
 24
1.0000000000E+20
 34
1.0000000000E+20
 15
-1.0000000000E+20
 25
-1.0000000000E+20
 35
-1.0000000000E+20
146
0.0
 13
0.0
 23
0.0
 33
0.0
 16
1.0
 26
0.0
 36
0.0
 17
0.0
 27
1.0
 37
0.0
 76
     0
330
1B
  0
LAYOUT
  5
26
102
{ACAD_REACTORS
330
1A
102
}
330
1A
100
AcDbPlotSettings
  1

  2
none_device
  4

  6

 40
0.0
 41
0.0
 42
0.0
 43
0.0
 44
0.0
 45
0.0
 46
0.0
 47
0.0
 48
0.0
 49
0.0
140
0.0
141
0.0
142
1.0
143
1.0
 70
   688
 72
     1
 73
     0
 74
     5
  7

 75
    16
147
1.0
148
0.0
149
0.0
100
AcDbLayout
  1
Layout2
 70
     1
 71
     2
 10
0.0
 20
0.0
 11
0.0
 21
0.0
 12
0.0
 22
0.0
 32
0.0
 14
0.0
 24
0.0
 34
0.0
 15
0.0
 25
0.0
 35
0.0
146
0.0
 13
0.0
 23
0.0
 33
0.0
 16
1.0
 26
0.0
 36
0.0
 17
0.0
 27
1.0
 37
0.0
 76
     0
330
23
  0
LAYOUT
  5
22
102
{ACAD_REACTORS
330
1A
102
}
330
1A
100
AcDbPlotSettings
  1

  2
none_device
  4
ANSI_A_(11.00_x_8.50_Inches)
  6

 40
6.35
 41
19.05
 42
6.35000508
 43
19.05000254
 44
279.4
 45
215.9
 46
133.1900094051
 47
217.9252143424
 48
0.0
 49
0.0
140
0.0
141
0.0
142
0.008415
143
1.0
 70
  1696
 72
     0
 73
     0
 74
     0
  7

 75
     0
147
0.0179189148
148
-1300.4909072572
149
0.0
100
AcDbLayout
  1
Model
 70
     1
 71
     0
 10
0.0
 20
0.0
 11
420.0
 21
297.0
 12
0.0
 22
0.0
 32
0.0
 14
-21.7366
 24
-1103.6521566402
 34
0.0
 15
23.2336272893
 25
-103.65215664
 35
0.0
146
0.0
 13
0.0
 23
0.0
 33
0.0
 16
1.0
 26
0.0
 36
0.0
 17
0.0
 27
1.0
 37
0.0
 76
     0
330
1F
331
29
  0
MLINESTYLE
  5
18
102
{ACAD_REACTORS
330
17
102
}
330
17
100
AcDbMlineStyle
  2
Standard
 70
     0
  3

 62
   256
 51
90.0
 52
90.0
 71
     2
 49
0.5
 62
   256
  6
BYLAYER
 49
-0.5
 62
   256
  6
BYLAYER
  0
ACDBPLACEHOLDER
  5
F
102
{ACAD_REACTORS
330
E
102
}
330
E
  0
SCALE
  5
48
102
{ACAD_REACTORS
330
47
102
}
330
47
100
AcDbScale
 70
     0
300
1:1
140
1.0
141
1.0
290
     1
  0
SCALE
  5
49
102
{ACAD_REACTORS
330
47
102
}
330
47
100
AcDbScale
 70
     0
300
1:2
140
1.0
141
2.0
290
     0
  0
SCALE
  5
4A
102
{ACAD_REACTORS
330
47
102
}
330
47
100
AcDbScale
 70
     0
300
1:4
140
1.0
141
4.0
290
     0
  0
SCALE
  5
4B
102
{ACAD_REACTORS
330
47
102
}
330
47
100
AcDbScale
 70
     0
300
1:5
140
1.0
141
5.0
290
     0
  0
SCALE
  5
4C
102
{ACAD_REACTORS
330
47
102
}
330
47
100
AcDbScale
 70
     0
300
1:8
140
1.0
141
8.0
290
     0
  0
SCALE
  5
4D
102
{ACAD_REACTORS
330
47
102
}
330
47
100
AcDbScale
 70
     0
300
1:10
140
1.0
141
10.0
290
     0
  0
SCALE
  5
4E
102
{ACAD_REACTORS
330
47
102
}
330
47
100
AcDbScale
 70
     0
300
1:16
140
1.0
141
16.0
290
     0
  0
SCALE
  5
4F
102
{ACAD_REACTORS
330
47
102
}
330
47
100
AcDbScale
 70
     0
300
1:20
140
1.0
141
20.0
290
     0
  0
SCALE
  5
50
102
{ACAD_REACTORS
330
47
102
}
330
47
100
AcDbScale
 70
     0
300
1:30
140
1.0
141
30.0
290
     0
  0
SCALE
  5
51
102
{ACAD_REACTORS
330
47
102
}
330
47
100
AcDbScale
 70
     0
300
1:40
140
1.0
141
40.0
290
     0
  0
SCALE
  5
52
102
{ACAD_REACTORS
330
47
102
}
330
47
100
AcDbScale
 70
     0
300
1:50
140
1.0
141
50.0
290
     0
  0
SCALE
  5
53
102
{ACAD_REACTORS
330
47
102
}
330
47
100
AcDbScale
 70
     0
300
1:100
140
1.0
141
100.0
290
     0
  0
SCALE
  5
54
102
{ACAD_REACTORS
330
47
102
}
330
47
100
AcDbScale
 70
     0
300
2:1
140
2.0
141
1.0
290
     0
  0
SCALE
  5
55
102
{ACAD_REACTORS
330
47
102
}
330
47
100
AcDbScale
 70
     0
300
4:1
140
4.0
141
1.0
290
     0
  0
SCALE
  5
56
102
{ACAD_REACTORS
330
47
102
}
330
47
100
AcDbScale
 70
     0
300
8:1
140
8.0
141
1.0
290
     0
  0
SCALE
  5
57
102
{ACAD_REACTORS
330
47
102
}
330
47
100
AcDbScale
 70
     0
300
10:1
140
10.0
141
1.0
290
     0
  0
SCALE
  5
58
102
{ACAD_REACTORS
330
47
102
}
330
47
100
AcDbScale
 70
     0
300
100:1
140
100.0
141
1.0
290
     0
  0
SCALE
  5
59
102
{ACAD_REACTORS
330
47
102
}
330
47
100
AcDbScale
 70
     0
300
1/128" = 1'-0"
140
0.0078125
141
12.0
290
     0
  0
SCALE
  5
5A
102
{ACAD_REACTORS
330
47
102
}
330
47
100
AcDbScale
 70
     0
300
1/64" = 1'-0"
140
0.015625
141
12.0
290
     0
  0
SCALE
  5
5B
102
{ACAD_REACTORS
330
47
102
}
330
47
100
AcDbScale
 70
     0
300
1/32" = 1'-0"
140
0.03125
141
12.0
290
     0
  0
SCALE
  5
5C
102
{ACAD_REACTORS
330
47
102
}
330
47
100
AcDbScale
 70
     0
300
1/16" = 1'-0"
140
0.0625
141
12.0
290
     0
  0
SCALE
  5
5D
102
{ACAD_REACTORS
330
47
102
}
330
47
100
AcDbScale
 70
     0
300
3/32" = 1'-0"
140
0.09375
141
12.0
290
     0
  0
SCALE
  5
5E
102
{ACAD_REACTORS
330
47
102
}
330
47
100
AcDbScale
 70
     0
300
1/8" = 1'-0"
140
0.125
141
12.0
290
     0
  0
SCALE
  5
5F
102
{ACAD_REACTORS
330
47
102
}
330
47
100
AcDbScale
 70
     0
300
3/16" = 1'-0"
140
0.1875
141
12.0
290
     0
  0
SCALE
  5
60
102
{ACAD_REACTORS
330
47
102
}
330
47
100
AcDbScale
 70
     0
300
1/4" = 1'-0"
140
0.25
141
12.0
290
     0
  0
SCALE
  5
61
102
{ACAD_REACTORS
330
47
102
}
330
47
100
AcDbScale
 70
     0
300
3/8" = 1'-0"
140
0.375
141
12.0
290
     0
  0
SCALE
  5
62
102
{ACAD_REACTORS
330
47
102
}
330
47
100
AcDbScale
 70
     0
300
1/2" = 1'-0"
140
0.5
141
12.0
290
     0
  0
SCALE
  5
63
102
{ACAD_REACTORS
330
47
102
}
330
47
100
AcDbScale
 70
     0
300
3/4" = 1'-0"
140
0.75
141
12.0
290
     0
  0
SCALE
  5
64
102
{ACAD_REACTORS
330
47
102
}
330
47
100
AcDbScale
 70
     0
300
1" = 1'-0"
140
1.0
141
12.0
290
     0
  0
SCALE
  5
65
102
{ACAD_REACTORS
330
47
102
}
330
47
100
AcDbScale
 70
     0
300
1-1/2" = 1'-0"
140
1.5
141
12.0
290
     0
  0
SCALE
  5
66
102
{ACAD_REACTORS
330
47
102
}
330
47
100
AcDbScale
 70
     0
300
3" = 1'-0"
140
3.0
141
12.0
290
     0
  0
SCALE
  5
67
102
{ACAD_REACTORS
330
47
102
}
330
47
100
AcDbScale
 70
     0
300
6" = 1'-0"
140
6.0
141
12.0
290
     0
  0
SCALE
  5
68
102
{ACAD_REACTORS
330
47
102
}
330
47
100
AcDbScale
 70
     0
300
1'-0" = 1'-0"
140
12.0
141
12.0
290
     0
  0
ENDSEC
  0
EOF
