  0
SECTION
  2
HEADER
  9
$ACADVER
  1
AC1015
  9
$ACADMAINTVER
 70
     6
  9
$DWGCODEPAGE
  3
ANSI_1252
  9
$INSBASE
 10
0.0
 20
0.0
 30
0.0
  9
$EXTMIN
 10
0.0
 20
-0.0000000002
 30
0.0
  9
$EXTMAX
 10
132.9384934754
 20
1000.0
 30
0.0
  9
$LIMMIN
 10
0.0
 20
0.0
  9
$LIMMAX
 10
420.0
 20
297.0
  9
$ORTHOMODE
 70
     0
  9
$REGENMODE
 70
     1
  9
$FILLMODE
 70
     1
  9
$QTEXTMODE
 70
     0
  9
$MIRRTEXT
 70
     1
  9
$LTSCALE
 40
1.0
  9
$ATTMODE
 70
     1
  9
$TEXTSIZE
 40
3.5
  9
$TRACEWID
 40
1.0
  9
$TEXTSTYLE
  7
Standard
  9
$CLAYER
  8
0
  9
$CELTYPE
  6
ByLayer
  9
$CECOLOR
 62
   256
  9
$CELTSCALE
 40
1.0
  9
$DISPSILH
 70
     0
  9
$DIMSCALE
 40
1.0
  9
$DIMASZ
 40
3.302
  9
$DIMEXO
 40
0.0
  9
$DIMDLI
 40
3.75
  9
$DIMRND
 40
0.0
  9
$DIMDLE
 40
0.0
  9
$DIMEXE
 40
1.0
  9
$DIMTP
 40
0.0
  9
$DIMTM
 40
0.0
  9
$DIMTXT
 40
3.5
  9
$DIMCEN
 40
2.5
  9
$DIMTSZ
 40
0.0
  9
$DIMTOL
 70
     0
  9
$DIMLIM
 70
     0
  9
$DIMTIH
 70
     1
  9
$DIMTOH
 70
     1
  9
$DIMSE1
 70
     0
  9
$DIMSE2
 70
     0
  9
$DIMTAD
 70
     1
  9
$DIMZIN
 70
     1
  9
$DIMBLK
  1

  9
$DIMASO
 70
     1
  9
$DIMSHO
 70
     1
  9
$DIMPOST
  1

  9
$DIMAPOST
  1

  9
$DIMALT
 70
     0
  9
$DIMALTD
 70
     3
  9
$DIMALTF
 40
0.0393700787
  9
$DIMLFAC
 40
1.0
  9
$DIMTOFL
 70
     1
  9
$DIMTVP
 40
0.0
  9
$DIMTIX
 70
     0
  9
$DIMSOXD
 70
     0
  9
$DIMSAH
 70
     0
  9
$DIMBLK1
  1

  9
$DIMBLK2
  1

  9
$DIMSTYLE
  2
ISO-25
  9
$DIMCLRD
 70
     0
  9
$DIMCLRE
 70
     0
  9
$DIMCLRT
 70
     0
  9
$DIMTFAC
 40
1.0
  9
$DIMGAP
 40
1.524
  9
$DIMJUST
 70
     0
  9
$DIMSD1
 70
     0
  9
$DIMSD2
 70
     0
  9
$DIMTOLJ
 70
     0
  9
$DIMTZIN
 70
     1
  9
$DIMALTZ
 70
     0
  9
$DIMALTTZ
 70
     0
  9
$DIMUPT
 70
     0
  9
$DIMDEC
 70
     2
  9
$DIMTDEC
 70
     2
  9
$DIMALTU
 70
     2
  9
$DIMALTTD
 70
     3
  9
$DIMTXSTY
  7
Standard
  9
$DIMAUNIT
 70
     0
  9
$DIMADEC
 70
     2
  9
$DIMALTRND
 40
0.0
  9
$DIMAZIN
 70
     0
  9
$DIMDSEP
 70
    44
  9
$DIMATFIT
 70
     3
  9
$DIMFRAC
 70
     0
  9
$DIMLDRBLK
  1

  9
$DIMLUNIT
 70
     2
  9
$DIMLWD
 70
    -2
  9
$DIMLWE
 70
    -2
  9
$DIMTMOVE
 70
     0
  9
$LUNITS
 70
     2
  9
$LUPREC
 70
     2
  9
$SKETCHINC
 40
1.0
  9
$FILLETRAD
 40
10.0
  9
$AUNITS
 70
     0
  9
$AUPREC
 70
     2
  9
$MENU
  1
.
  9
$ELEVATION
 40
0.0
  9
$PELEVATION
 40
0.0
  9
$THICKNESS
 40
0.0
  9
$LIMCHECK
 70
     0
  9
$CHAMFERA
 40
0.0
  9
$CHAMFERB
 40
0.0
  9
$CHAMFERC
 40
0.0
  9
$CHAMFERD
 40
0.0
  9
$SKPOLY
 70
     0
  9
$TDCREATE
 40
2460151.562436146
  9
$TDUCREATE
 40
2460151.437436146
  9
$TDUPDATE
 40
2460151.562469572
  9
$TDUUPDATE
 40
2460151.437469572
  9
$TDINDWG
 40
0.0000000116
  9
$TDUSRTIMER
 40
0.0000000116
  9
$USRTIMER
 70
     1
  9
$ANGBASE
 50
0.0
  9
$ANGDIR
 70
     0
  9
$PDMODE
 70
     0
  9
$PDSIZE
 40
-1.0
  9
$PLINEWID
 40
0.0
  9
$SPLFRAME
 70
     0
  9
$SPLINETYPE
 70
     6
  9
$SPLINESEGS
 70
     8
  9
$HANDSEED
  5
9B
  9
$SURFTAB1
 70
     6
  9
$SURFTAB2
 70
     6
  9
$SURFTYPE
 70
     6
  9
$SURFU
 70
     6
  9
$SURFV
 70
     6
  9
$UCSBASE
  2

  9
$UCSNAME
  2

  9
$UCSORG
 10
0.0
 20
0.0
 30
0.0
  9
$UCSXDIR
 10
1.0
 20
0.0
 30
0.0
  9
$UCSYDIR
 10
0.0
 20
1.0
 30
0.0
  9
$UCSORTHOREF
  2

  9
$UCSORTHOVIEW
 70
     0
  9
$UCSORGTOP
 10
0.0
 20
0.0
 30
0.0
  9
$UCSORGBOTTOM
 10
0.0
 20
0.0
 30
0.0
  9
$UCSORGLEFT
 10
0.0
 20
0.0
 30
0.0
  9
$UCSORGRIGHT
 10
0.0
 20
0.0
 30
0.0
  9
$UCSORGFRONT
 10
0.0
 20
0.0
 30
0.0
  9
$UCSORGBACK
 10
0.0
 20
0.0
 30
0.0
  9
$PUCSBASE
  2

  9
$PUCSNAME
  2

  9
$PUCSORG
 10
0.0
 20
0.0
 30
0.0
  9
$PUCSXDIR
 10
1.0
 20
0.0
 30
0.0
  9
$PUCSYDIR
 10
0.0
 20
1.0
 30
0.0
  9
$PUCSORTHOREF
  2

  9
$PUCSORTHOVIEW
 70
     0
  9
$PUCSORGTOP
 10
0.0
 20
0.0
 30
0.0
  9
$PUCSORGBOTTOM
 10
0.0
 20
0.0
 30
0.0
  9
$PUCSORGLEFT
 10
0.0
 20
0.0
 30
0.0
  9
$PUCSORGRIGHT
 10
0.0
 20
0.0
 30
0.0
  9
$PUCSORGFRONT
 10
0.0
 20
0.0
 30
0.0
  9
$PUCSORGBACK
 10
0.0
 20
0.0
 30
0.0
  9
$USERI1
 70
     0
  9
$USERI2
 70
     0
  9
$USERI3
 70
     0
  9
$USERI4
 70
     0
  9
$USERI5
 70
     0
  9
$USERR1
 40
0.0
  9
$USERR2
 40
0.0
  9
$USERR3
 40
0.0
  9
$USERR4
 40
0.0
  9
$USERR5
 40
0.0
  9
$WORLDVIEW
 70
     1
  9
$SHADEDGE
 70
     3
  9
$SHADEDIF
 70
    70
  9
$TILEMODE
 70
     1
  9
$MAXACTVP
 70
    64
  9
$PINSBASE
 10
0.0
 20
0.0
 30
0.0
  9
$PLIMCHECK
 70
     0
  9
$PEXTMIN
 10
1.0000000000E+20
 20
1.0000000000E+20
 30
1.0000000000E+20
  9
$PEXTMAX
 10
-1.0000000000E+20
 20
-1.0000000000E+20
 30
-1.0000000000E+20
  9
$PLIMMIN
 10
0.0
 20
0.0
  9
$PLIMMAX
 10
420.0
 20
297.0
  9
$UNITMODE
 70
     0
  9
$VISRETAIN
 70
     1
  9
$PLINEGEN
 70
     0
  9
$PSLTSCALE
 70
     1
  9
$TREEDEPTH
 70
  3020
  9
$CMLSTYLE
  2
Standard
  9
$CMLJUST
 70
     0
  9
$CMLSCALE
 40
20.0
  9
$PROXYGRAPHICS
 70
     1
  9
$MEASUREMENT
 70
     1
  9
$CELWEIGHT
370
    -1
  9
$ENDCAPS
280
     0
  9
$JOINSTYLE
280
     0
  9
$LWDISPLAY
290
     1
  9
$INSUNITS
 70
     4
  9
$HYPERLINKBASE
  1

  9
$STYLESHEET
  1

  9
$XEDIT
290
     1
  9
$CEPSNTYPE
380
     0
  9
$PSTYLEMODE
290
     1
  9
$FINGERPRINTGUID
  2
{ce99aecc-ccac-48db-a68c-ea50bb240def}
  9
$VERSIONGUID
  2
{FAEB1C32-E019-11D5-929B-00C0DF256EC4}
  9
$EXTNAMES
290
     1
  9
$PSVPSCALE
 40
0.0
  9
$OLESTARTUP
290
     0
  0
ENDSEC
  0
SECTION
  2
CLASSES
  0
CLASS
  1
ACDBDICTIONARYWDFLT
  2
AcDbDictionaryWithDefault
  3
ObjectDBX Classes
 90
        0
280
     0
281
     0
  0
CLASS
  1
VISUALSTYLE
  2
AcDbVisualStyle
  3
ObjectDBX Classes
 90
     4095
280
     0
281
     0
  0
CLASS
  1
MATERIAL
  2
AcDbMaterial
  3
ObjectDBX Classes
 90
     1153
280
     0
281
     0
  0
CLASS
  1
SCALE
  2
AcDbScale
  3
ObjectDBX Classes
 90
     1153
280
     0
281
     0
  0
CLASS
  1
TABLESTYLE
  2
AcDbTableStyle
  3
ObjectDBX Classes
 90
     4095
280
     0
281
     0
  0
CLASS
  1
MLEADERSTYLE
  2
AcDbMLeaderStyle
  3
ACDB_MLEADERSTYLE_CLASS
 90
     4095
280
     0
281
     0
  0
CLASS
  1
SUN
  2
AcDbSun
  3
SCENEOE
 90
     1153
280
     0
281
     0
  0
CLASS
  1
ACDBPLACEHOLDER
  2
AcDbPlaceHolder
  3
ObjectDBX Classes
 90
        0
280
     0
281
     0
  0
CLASS
  1
LAYOUT
  2
AcDbLayout
  3
ObjectDBX Classes
 90
        0
280
     0
281
     0
  0
ENDSEC
  0
SECTION
  2
TABLES
  0
TABLE
  2
VPORT
  5
8
330
0
100
AcDbSymbolTable
 70
     1
  0
VPORT
  5
29
330
8
100
AcDbSymbolTableRecord
100
AcDbViewportTableRecord
  2
*Active
 70
     0
 10
0.0
 20
0.0
 11
1.0
 21
1.0
 12
66.4692467377
 22
499.9999999999
 13
0.0
 23
0.0
 14
10.0
 24
10.0
 15
10.0
 25
10.0
 16
0.0
 26
0.0
 36
1.0
 17
0.0
 27
0.0
 37
0.0
 40
1020.0000000002
 41
0.1329384935
 42
50.0
 43
0.0
 44
0.0
 50
0.0
 51
0.0
 71
     0
 72
   100
 73
     1
 74
     3
 75
     0
 76
     0
 77
     0
 78
     0
281
     0
 65
     1
110
0.0
120
0.0
130
0.0
111
1.0
121
0.0
131
0.0
112
0.0
122
1.0
132
0.0
 79
     0
146
0.0
  0
ENDTAB
  0
TABLE
  2
LTYPE
  5
5
330
0
100
AcDbSymbolTable
 70
     6
  0
LTYPE
  5
14
330
5
100
AcDbSymbolTableRecord
100
AcDbLinetypeTableRecord
  2
ByBlock
 70
     0
  3

 72
    65
 73
     0
 40
0.0
  0
LTYPE
  5
15
330
5
100
AcDbSymbolTableRecord
100
AcDbLinetypeTableRecord
  2
ByLayer
 70
     0
  3

 72
    65
 73
     0
 40
0.0
  0
LTYPE
  5
16
330
5
100
AcDbSymbolTableRecord
100
AcDbLinetypeTableRecord
  2
Continuous
 70
     0
  3
Solid line
 72
    65
 73
     0
 40
0.0
  0
LTYPE
  5
6E
330
5
100
AcDbSymbolTableRecord
100
AcDbLinetypeTableRecord
  2
HIDDEN
 70
     0
  3
Hidden __ __ __ __ __ __ __ __ __ __ __ __ __ __
 72
    65
 73
     2
 40
1.905
 49
1.27
 74
     0
 49
-0.635
 74
     0
  0
LTYPE
  5
6F
330
5
100
AcDbSymbolTableRecord
100
AcDbLinetypeTableRecord
  2
PHANTOM
 70
     0
  3
Phantom ______  __  __  ______  __  __  ______
 72
    65
 73
     6
 40
12.7
 49
6.35
 74
     0
 49
-1.27
 74
     0
 49
1.27
 74
     0
 49
-1.27
 74
     0
 49
1.27
 74
     0
 49
-1.27
 74
     0
  0
LTYPE
  5
70
330
5
100
AcDbSymbolTableRecord
100
AcDbLinetypeTableRecord
  2
CENTER
 70
     0
  3
Center ____ _ ____ _ ____ _ ____ _ ____ _ ____
 72
    65
 73
     4
 40
10.16
 49
6.35
 74
     0
 49
-1.27
 74
     0
 49
1.27
 74
     0
 49
-1.27
 74
     0
  0
LTYPE
  5
71
330
5
100
AcDbSymbolTableRecord
100
AcDbLinetypeTableRecord
  2
CENTERX2
 70
     0
  3
Center (2x) ________  __  ________  __  _____
 72
    65
 73
     4
 40
20.32
 49
12.7
 74
     0
 49
-2.54
 74
     0
 49
2.54
 74
     0
 49
-2.54
 74
     0
  0
LTYPE
  5
72
330
5
100
AcDbSymbolTableRecord
100
AcDbLinetypeTableRecord
  2
DOT2
 70
     0
  3
Dot (.5x) ........................................
 72
    65
 73
     2
 40
0.635
 49
0.0
 74
     0
 49
-0.635
 74
     0
  0
ENDTAB
  0
TABLE
  2
LAYER
  5
2
330
0
100
AcDbSymbolTable
 70
     1
  0
LAYER
  5
10
330
2
100
AcDbSymbolTableRecord
100
AcDbLayerTableRecord
  2
0
 70
     0
 62
     7
  6
Continuous
370
    -3
390
F
  0
ENDTAB
  0
TABLE
  2
STYLE
  5
3
330
0
100
AcDbSymbolTable
 70
     1
  0
STYLE
  5
11
330
3
100
AcDbSymbolTableRecord
100
AcDbTextStyleTableRecord
  2
Standard
 70
     0
 40
0.0
 41
1.0
 50
0.0
 71
     0
 42
3.5
  3
txt
  4

  0
ENDTAB
  0
TABLE
  2
VIEW
  5
6
330
0
100
AcDbSymbolTable
 70
     0
  0
ENDTAB
  0
TABLE
  2
UCS
  5
7
330
0
100
AcDbSymbolTable
 70
     0
  0
ENDTAB
  0
TABLE
  2
APPID
  5
9
330
0
100
AcDbSymbolTable
 70
     1
  0
APPID
  5
12
330
9
100
AcDbSymbolTableRecord
100
AcDbRegAppTableRecord
  2
ACAD
 70
     0
  0
ENDTAB
  0
TABLE
  2
DIMSTYLE
  5
A
330
0
100
AcDbSymbolTable
 70
     1
100
AcDbDimStyleTable
  0
DIMSTYLE
105
27
330
A
100
AcDbSymbolTableRecord
100
AcDbDimStyleTableRecord
  2
ISO-25
 70
     0
 41
2.5
 42
0.625
 43
3.75
 44
1.25
 73
     0
 74
     0
 77
     1
 78
     8
140
2.5
141
2.5
143
0.0393700787
147
0.625
171
     3
172
     1
178
     0
271
     2
272
     2
274
     3
278
    44
283
     0
284
     8
340
11
  0
ENDTAB
  0
TABLE
  2
BLOCK_RECORD
  5
1
330
0
100
AcDbSymbolTable
 70
     1
  0
BLOCK_RECORD
  5
1F
330
1
100
AcDbSymbolTableRecord
100
AcDbBlockTableRecord
  2
*Model_Space
340
22
  0
BLOCK_RECORD
  5
1B
330
1
100
AcDbSymbolTableRecord
100
AcDbBlockTableRecord
  2
*Paper_Space
340
1E
  0
BLOCK_RECORD
  5
23
330
1
100
AcDbSymbolTableRecord
100
AcDbBlockTableRecord
  2
*Paper_Space0
340
26
  0
ENDTAB
  0
ENDSEC
  0
SECTION
  2
BLOCKS
  0
BLOCK
  5
20
330
1F
100
AcDbEntity
  8
0
100
AcDbBlockBegin
  2
*Model_Space
 70
     0
 10
0.0
 20
0.0
 30
0.0
  3
*Model_Space
  1

  0
ENDBLK
  5
21
330
1F
100
AcDbEntity
  8
0
100
AcDbBlockEnd
  0
BLOCK
  5
1C
330
1B
100
AcDbEntity
 67
     1
  8
0
100
AcDbBlockBegin
  2
*Paper_Space
 70
     0
 10
0.0
 20
0.0
 30
0.0
  3
*Paper_Space
  1

  0
ENDBLK
  5
1D
330
1B
100
AcDbEntity
 67
     1
  8
0
100
AcDbBlockEnd
  0
BLOCK
  5
24
330
23
100
AcDbEntity
  8
0
100
AcDbBlockBegin
  2
*Paper_Space0
 70
     0
 10
0.0
 20
0.0
 30
0.0
  3
*Paper_Space0
  1

  0
ENDBLK
  5
25
330
23
100
AcDbEntity
  8
0
100
AcDbBlockEnd
  0
ENDSEC
  0
SECTION
  2
ENTITIES
  0
LINE
  5
73
330
1F
100
AcDbEntity
  8
0
  6
CENTERX2
 62
     7
100
AcDbLine
 10
49.3524330934
 20
-0.0000000002
 30
0.0
 11
49.3524330934
 21
999.9999999998
 31
0.0
  0
LINE
  5
74
330
1F
100
AcDbEntity
  8
0
  6
CENTERX2
 62
     7
100
AcDbLine
 10
108.8216798311
 20
999.9999999998
 30
0.0
 11
108.8216798311
 21
-0.0000000002
 31
0.0
  0
SPLINE
  5
7A
330
1F
100
AcDbEntity
  8
0
  6
Continuous
 62
     7
370
    25
100
AcDbSpline
210
0.0
220
0.0
230
1.0
 70
     8
 71
     3
 72
    22
 73
    18
 74
     0
 42
0.00000001
 43
0.00000001
 40
0.5
 40
0.5
 40
0.5
 40
0.5
 40
0.5625
 40
0.5625
 40
0.625
 40
0.625
 40
0.6875
 40
0.6875
 40
0.75
 40
0.75
 40
0.8125
 40
0.8125
 40
0.875
 40
0.875
 40
0.9375
 40
0.9375
 40
1.0
 40
1.0
 40
1.0
 40
1.0
 10
119.0567934754293
 20
479.9999999996401
 30
0.0
 10
119.0567207549044
 20
479.7025069798114
 30
0.0
 10
119.1140914500477
 20
479.4143079785477
 30
0.0
 10
119.34203760451
 20
478.8636165750902
 30
0.0
 10
119.5051355862291
 20
478.6197803917374
 30
0.0
 10
119.9264708492899
 20
478.1982390922026
 30
0.0
 10
120.170465804023
 20
478.0353787285546
 30
0.0
 10
120.7210457011927
 20
477.8071633744253
 30
0.0
 10
121.0087916088871
 20
477.7500728445493
 30
0.0
 10
121.6047953419714
 20
477.7499271547306
 30
0.0
 10
121.8924854965222
 20
477.8072979742593
 30
0.0
 10
122.4431768999791
 20
478.0352441287206
 30
0.0
 10
122.6870130833317
 20
478.1983421104393
 30
0.0
 10
123.1085543828663
 20
478.6196773735006
 30
0.0
 10
123.2713417223466
 20
478.8634961541136
 30
0.0
 10
123.4997031248127
 20
479.4144283995243
 30
0.0
 10
123.5567934754292
 20
479.7014409737976
 30
0.0
 10
123.5567934754292
 20
479.9999999996401
 30
0.0
  0
SPLINE
  5
7B
330
1F
100
AcDbEntity
  8
0
  6
Continuous
 62
     7
370
    25
100
AcDbSpline
210
0.0
220
0.0
230
1.0
 70
     8
 71
     3
 72
    22
 73
    18
 74
     0
 42
0.00000001
 43
0.00000001
 40
0.0
 40
0.0
 40
0.0
 40
0.0
 40
0.0625
 40
0.0625
 40
0.125
 40
0.125
 40
0.1875
 40
0.1875
 40
0.25
 40
0.25
 40
0.3125
 40
0.3125
 40
0.375
 40
0.375
 40
0.4375
 40
0.4375
 40
0.5
 40
0.5
 40
0.5
 40
0.5
 10
123.5567934754294
 20
544.9999999996402
 30
0.0
 10
123.5567934754294
 20
545.2978011264195
 30
0.0
 10
123.4994955007471
 20
545.5856920208239
 30
0.0
 10
123.2715493464126
 20
546.136383424097
 30
0.0
 10
123.1084513644755
 20
546.380219607667
 30
0.0
 10
122.6871161017228
 20
546.8017609069536
 30
0.0
 10
122.4431211466901
 20
546.964621270727
 30
0.0
 10
121.8925412498116
 20
547.1928366248536
 30
0.0
 10
121.6047953418991
 20
547.24992715473
 30
0.0
 10
121.0087916089598
 20
547.2500728445502
 30
0.0
 10
120.7211014543878
 20
547.1927020250138
 30
0.0
 10
120.1704100508282
 20
546.9647558705668
 30
0.0
 10
119.9265738675484
 20
546.8016578889237
 30
0.0
 10
119.505032567971
 20
546.3803226256967
 30
0.0
 10
119.3421722043431
 20
546.136327671014
 30
0.0
 10
119.1139568502149
 20
545.5857477739069
 30
0.0
 10
119.0568664995984
 20
545.2987351996335
 30
0.0
 10
119.0567934754294
 20
544.9999999996402
 30
0.0
  0
SPLINE
  5
7C
330
1F
100
AcDbEntity
  8
0
  6
Continuous
 62
     7
370
    25
100
AcDbSpline
210
0.0
220
0.0
230
1.0
 70
     8
 71
     3
 72
    22
 73
    18
 74
     0
 42
0.00000001
 43
0.00000001
 40
0.5
 40
0.5
 40
0.5
 40
0.5
 40
0.5625
 40
0.5625
 40
0.625
 40
0.625
 40
0.6875
 40
0.6875
 40
0.75
 40
0.75
 40
0.8125
 40
0.8125
 40
0.875
 40
0.875
 40
0.9375
 40
0.9375
 40
1.0
 40
1.0
 40
1.0
 40
1.0
 10
119.0567934754294
 20
544.9999999996402
 30
0.0
 10
119.0567207549046
 20
544.7025069799458
 30
0.0
 10
119.1140914500904
 20
544.4143079785068
 30
0.0
 10
119.3420376044676
 20
543.8636165751336
 30
0.0
 10
119.5051355863319
 20
543.6197803916338
 30
0.0
 10
119.9264708491874
 20
543.1982390923071
 30
0.0
 10
120.1704658041687
 20
543.0353787285534
 30
0.0
 10
120.7210457010473
 20
542.8071633744269
 30
0.0
 10
121.0087916089598
 20
542.7500728445501
 30
0.0
 10
121.6047953418991
 20
542.7499271547301
 30
0.0
 10
121.892485496471
 20
542.8072979742666
 30
0.0
 10
122.4431769000307
 20
543.0352441287137
 30
0.0
 10
122.6870130833104
 20
543.1983421103571
 30
0.0
 10
123.1085543828878
 20
543.6196773735836
 30
0.0
 10
123.2713417223468
 20
543.8634961541468
 30
0.0
 10
123.4997031248129
 20
544.4144283994938
 30
0.0
 10
123.5567934754294
 20
544.7014409737669
 30
0.0
 10
123.5567934754294
 20
544.9999999996402
 30
0.0
  0
SPLINE
  5
7D
330
1F
100
AcDbEntity
  8
0
  6
Continuous
 62
     7
370
    25
100
AcDbSpline
210
0.0
220
0.0
230
1.0
 70
     8
 71
     3
 72
    22
 73
    18
 74
     0
 42
0.00000001
 43
0.00000001
 40
0.0
 40
0.0
 40
0.0
 40
0.0
 40
0.0625
 40
0.0625
 40
0.125
 40
0.125
 40
0.1875
 40
0.1875
 40
0.25
 40
0.25
 40
0.3125
 40
0.3125
 40
0.375
 40
0.375
 40
0.4375
 40
0.4375
 40
0.5
 40
0.5
 40
0.5
 40
0.5
 10
123.5567934754292
 20
54.99999999963978
 30
0.0
 10
123.5567934754292
 20
55.29780112649285
 30
0.0
 10
123.4994955007895
 20
55.58569202072427
 30
0.0
 10
123.2715493463698
 20
56.13638342419836
 30
0.0
 10
123.1084513647836
 20
56.3802196074179
 30
0.0
 10
122.6871161014144
 20
56.8017609072009
 30
0.0
 10
122.4431211469811
 20
56.96462127072577
 30
0.0
 10
121.8925412495202
 20
57.19283662485442
 30
0.0
 10
121.6047953420438
 20
57.24992715473021
 30
0.0
 10
121.0087916088147
 20
57.25007284454953
 30
0.0
 10
120.7211014543877
 20
57.19270202507265
 30
0.0
 10
120.170410050828
 20
56.96475587050753
 30
0.0
 10
119.9265738675056
 20
56.80165788881864
 30
0.0
 10
119.5050325680134
 20
56.38032262580018
 30
0.0
 10
119.3421722043429
 20
56.13632767101606
 30
0.0
 10
119.1139568502147
 20
55.58574777390657
 30
0.0
 10
119.0568664995982
 20
55.29873519963257
 30
0.0
 10
119.0567934754293
 20
54.99999999963978
 30
0.0
  0
SPLINE
  5
7E
330
1F
100
AcDbEntity
  8
0
  6
Continuous
 62
     7
370
    25
100
AcDbSpline
210
0.0
220
0.0
230
1.0
 70
     8
 71
     3
 72
    22
 73
    18
 74
     0
 42
0.00000001
 43
0.00000001
 40
0.5
 40
0.5
 40
0.5
 40
0.5
 40
0.5625
 40
0.5625
 40
0.625
 40
0.625
 40
0.6875
 40
0.6875
 40
0.75
 40
0.75
 40
0.8125
 40
0.8125
 40
0.875
 40
0.875
 40
0.9375
 40
0.9375
 40
1.0
 40
1.0
 40
1.0
 40
1.0
 10
119.0567934754293
 20
54.99999999963978
 30
0.0
 10
119.0567207549044
 20
54.702506979871
 30
0.0
 10
119.1140914500477
 20
54.41430797860703
 30
0.0
 10
119.34203760451
 20
53.86361657502947
 30
0.0
 10
119.5051355860236
 20
53.61978039188298
 30
0.0
 10
119.9264708494955
 20
53.19823909205734
 30
0.0
 10
120.1704658038774
 20
53.03537872855379
 30
0.0
 10
120.7210457013383
 20
52.80716337442514
 30
0.0
 10
121.0087916088147
 20
52.75007284454936
 30
0.0
 10
121.6047953420438
 20
52.74992715473004
 30
0.0
 10
121.8924854965736
 20
52.80729797424954
 30
0.0
 10
122.4431768999278
 20
53.0352441287294
 30
0.0
 10
122.6870130833956
 20
53.19834211056352
 30
0.0
 10
123.1085543828024
 20
53.61967737337636
 30
0.0
 10
123.2713417223466
 20
53.86349615414243
 30
0.0
 10
123.4997031248127
 20
54.41442839949406
 30
0.0
 10
123.5567934754292
 20
54.70144097376828
 30
0.0
 10
123.5567934754292
 20
54.99999999963978
 30
0.0
  0
SPLINE
  5
7F
330
1F
100
AcDbEntity
  8
0
  6
Continuous
 62
     7
370
    25
100
AcDbSpline
210
0.0
220
0.0
230
1.0
 70
     8
 71
     3
 72
    22
 73
    18
 74
     0
 42
0.00000001
 43
0.00000001
 40
0.0
 40
0.0
 40
0.0
 40
0.0
 40
0.0625
 40
0.0625
 40
0.125
 40
0.125
 40
0.1875
 40
0.1875
 40
0.25
 40
0.25
 40
0.3125
 40
0.3125
 40
0.375
 40
0.375
 40
0.4375
 40
0.4375
 40
0.5
 40
0.5
 40
0.5
 40
0.5
 10
123.5567934754292
 20
479.9999999996401
 30
0.0
 10
123.5567934754292
 20
480.297801126554
 30
0.0
 10
123.4994955007895
 20
480.5856920207836
 30
0.0
 10
123.2715493463698
 20
481.1363834241382
 30
0.0
 10
123.108451364578
 20
481.3802196075641
 30
0.0
 10
122.6871161016199
 20
481.801760907056
 30
0.0
 10
122.4431211468355
 20
481.9646212707254
 30
0.0
 10
121.8925412496658
 20
482.1928366248547
 30
0.0
 10
121.6047953419714
 20
482.2499271547306
 30
0.0
 10
121.0087916088871
 20
482.2500728445493
 30
0.0
 10
120.7211014543363
 20
482.1927020250207
 30
0.0
 10
120.1704100508794
 20
481.9647558705593
 30
0.0
 10
119.9265738675268
 20
481.8016578888407
 30
0.0
 10
119.5050325679922
 20
481.3803226257793
 30
0.0
 10
119.3421722043429
 20
481.1363276710455
 30
0.0
 10
119.1139568502147
 20
480.5857477738763
 30
0.0
 10
119.0568664995982
 20
480.2987351996024
 30
0.0
 10
119.0567934754293
 20
479.9999999996401
 30
0.0
  0
SPLINE
  5
80
330
1F
100
AcDbEntity
  8
0
  6
Continuous
 62
     7
370
    25
100
AcDbSpline
210
0.0
220
0.0
230
1.0
 70
     8
 71
     3
 72
    22
 73
    18
 74
     0
 42
0.00000001
 43
0.00000001
 40
0.0
 40
0.0
 40
0.0
 40
0.0
 40
0.0625
 40
0.0625
 40
0.125
 40
0.125
 40
0.1875
 40
0.1875
 40
0.25
 40
0.25
 40
0.3125
 40
0.3125
 40
0.375
 40
0.375
 40
0.4375
 40
0.4375
 40
0.5
 40
0.5
 40
0.5
 40
0.5
 10
56.8837434216333
 20
842.1223817200353
 30
0.0
 10
56.8837434216333
 20
842.420182847059
 30
0.0
 10
56.94104139623484
 20
842.7080737411277
 30
0.0
 10
57.16898755073097
 20
843.2587651445849
 30
0.0
 10
57.33208553245942
 20
843.5026013279472
 30
0.0
 10
57.7534207954678
 20
843.9241426274633
 30
0.0
 10
57.99741575022315
 20
844.0870029911205
 30
0.0
 10
58.54799564740046
 20
844.3152183452498
 30
0.0
 10
58.83574155510437
 20
844.3723088751251
 30
0.0
 10
59.43174528816223
 20
844.3724545649453
 30
0.0
 10
59.7194354427323
 20
844.3150837454077
 30
0.0
 10
60.2701268461771
 20
844.0871375909626
 30
0.0
 10
60.51396302949894
 20
843.9240396092747
 30
0.0
 10
60.93550432910707
 20
843.5027043461358
 30
0.0
 10
61.09836469271203
 20
843.2587093915089
 30
0.0
 10
61.32658004685537
 20
842.7081294942036
 30
0.0
 10
61.38367039747192
 20
842.4211169199298
 30
0.0
 10
61.38374342163331
 20
842.1223817200353
 30
0.0
  0
SPLINE
  5
81
330
1F
100
AcDbEntity
  8
0
  6
Continuous
 62
     7
370
    25
100
AcDbSpline
210
0.0
220
0.0
230
1.0
 70
     8
 71
     3
 72
    22
 73
    18
 74
     0
 42
0.00000001
 43
0.00000001
 40
0.0
 40
0.0
 40
0.0
 40
0.0
 40
0.0625
 40
0.0625
 40
0.125
 40
0.125
 40
0.1875
 40
0.1875
 40
0.25
 40
0.25
 40
0.3125
 40
0.3125
 40
0.375
 40
0.375
 40
0.4375
 40
0.4375
 40
0.5
 40
0.5
 40
0.5
 40
0.5
 10
56.8837434216332
 20
592.1223817200353
 30
0.0
 10
56.8837434216332
 20
592.4201828470585
 30
0.0
 10
56.94104139623474
 20
592.7080737411293
 30
0.0
 10
57.16898755073087
 20
593.2587651445853
 30
0.0
 10
57.33208553245937
 20
593.5026013279473
 30
0.0
 10
57.75342079546763
 20
593.9241426274632
 30
0.0
 10
57.99741575022311
 20
594.0870029911222
 30
0.0
 10
58.54799564740031
 20
594.3152183452502
 30
0.0
 10
58.83574155510427
 20
594.3723088751252
 30
0.0
 10
59.43174528816213
 20
594.3724545649452
 30
0.0
 10
59.71943544273226
 20
594.3150837454094
 30
0.0
 10
60.27012684617694
 20
594.0871375909629
 30
0.0
 10
60.51396302949885
 20
593.9240396092746
 30
0.0
 10
60.93550432910697
 20
593.5027043461359
 30
0.0
 10
61.09836469271193
 20
593.2587093915106
 30
0.0
 10
61.32658004685528
 20
592.708129494204
 30
0.0
 10
61.38367039747182
 20
592.42111691993
 30
0.0
 10
61.38374342163321
 20
592.1223817200353
 30
0.0
  0
SPLINE
  5
82
330
1F
100
AcDbEntity
  8
0
  6
Continuous
 62
     7
370
    25
100
AcDbSpline
210
0.0
220
0.0
230
1.0
 70
     8
 71
     3
 72
    22
 73
    18
 74
     0
 42
0.00000001
 43
0.00000001
 40
0.0
 40
0.0
 40
0.0
 40
0.0
 40
0.0625
 40
0.0625
 40
0.125
 40
0.125
 40
0.1875
 40
0.1875
 40
0.25
 40
0.25
 40
0.3125
 40
0.3125
 40
0.375
 40
0.375
 40
0.4375
 40
0.4375
 40
0.5
 40
0.5
 40
0.5
 40
0.5
 10
89.7724142344554
 20
985.4316999996402
 30
0.0
 10
89.7724142344554
 20
985.7295011265998
 30
0.0
 10
89.82971220905786
 20
986.0173920206745
 30
0.0
 10
90.05765836355214
 20
986.5680834242503
 30
0.0
 10
90.22075634507496
 20
986.8119196074074
 30
0.0
 10
90.64209160849634
 20
987.233460907213
 30
0.0
 10
90.88608656290072
 20
987.3963212707264
 30
0.0
 10
91.43666646036719
 20
987.6245366248542
 30
0.0
 10
91.7244123678559
 20
987.6816271547307
 30
0.0
 10
92.3204161010549
 20
987.6817728445495
 30
0.0
 10
92.60810625550289
 20
987.6244020250638
 30
0.0
 10
93.15879765905082
 20
987.3964558705168
 30
0.0
 10
93.40263384234328
 20
987.2333578888583
 30
0.0
 10
93.824175141907
 20
986.8120226257622
 30
0.0
 10
93.98703550553414
 20
986.568027671084
 30
0.0
 10
94.21525085967747
 20
986.0174477738408
 30
0.0
 10
94.27234121029402
 20
985.7304351995668
 30
0.0
 10
94.2724142344554
 20
985.4316999996402
 30
0.0
  0
SPLINE
  5
83
330
1F
100
AcDbEntity
  8
0
  6
Continuous
 62
     7
370
    25
100
AcDbSpline
210
0.0
220
0.0
230
1.0
 70
     8
 71
     3
 72
    22
 73
    18
 74
     0
 42
0.00000001
 43
0.00000001
 40
0.0
 40
0.0
 40
0.0
 40
0.0
 40
0.0625
 40
0.0625
 40
0.125
 40
0.125
 40
0.1875
 40
0.1875
 40
0.25
 40
0.25
 40
0.3125
 40
0.3125
 40
0.375
 40
0.375
 40
0.4375
 40
0.4375
 40
0.5
 40
0.5
 40
0.5
 40
0.5
 10
55.23774756355441
 20
992.3302389026902
 30
0.0
 10
55.23774756355441
 20
992.628040029652
 30
0.0
 10
55.29504553815594
 20
992.9159309237248
 30
0.0
 10
55.52299169265207
 20
993.4666223273001
 30
0.0
 10
55.68608967417497
 20
993.7104585104577
 30
0.0
 10
56.10742493759444
 20
994.1319998102629
 30
0.0
 10
56.3514198919987
 20
994.2948601737764
 30
0.0
 10
56.90199978946711
 20
994.5230755279042
 30
0.0
 10
57.189745696953
 20
994.5801660577806
 30
0.0
 10
57.7857494301558
 20
994.5803117475996
 30
0.0
 10
58.07343958460208
 20
994.5229409281138
 30
0.0
 10
58.62413098814953
 20
994.2949947735668
 30
0.0
 10
58.8679671714413
 20
994.1318967919084
 30
0.0
 10
59.2895084710069
 20
993.7105615288123
 30
0.0
 10
59.45236883463313
 20
993.4665665741367
 30
0.0
 10
59.68058418877648
 20
992.9159866768882
 30
0.0
 10
59.737674539393
 20
992.6289741026142
 30
0.0
 10
59.73774756355441
 20
992.3302389026902
 30
0.0
  0
SPLINE
  5
84
330
1F
100
AcDbEntity
  8
0
  6
Continuous
 62
     7
370
    25
100
AcDbSpline
210
0.0
220
0.0
230
1.0
 70
     8
 71
     3
 72
    22
 73
    18
 74
     0
 42
0.00000001
 43
0.00000001
 40
0.0
 40
0.0
 40
0.0
 40
0.0
 40
0.0625
 40
0.0625
 40
0.125
 40
0.125
 40
0.1875
 40
0.1875
 40
0.25
 40
0.25
 40
0.3125
 40
0.3125
 40
0.375
 40
0.375
 40
0.4375
 40
0.4375
 40
0.5
 40
0.5
 40
0.5
 40
0.5
 10
55.23774756355451
 20
978.7068165918303
 30
0.0
 10
55.23774756355451
 20
979.0046177187951
 30
0.0
 10
55.2950455381547
 20
979.2925086128605
 30
0.0
 10
55.52299169265351
 20
979.8432000164444
 30
0.0
 10
55.68608967417187
 20
980.0870361995964
 30
0.0
 10
56.10742493759774
 20
980.5085774994043
 30
0.0
 10
56.3514198919988
 20
980.6714378629165
 30
0.0
 10
56.9019997894672
 20
980.8996532170441
 30
0.0
 10
57.1897456969531
 20
980.9567437469207
 30
0.0
 10
57.7857494301559
 20
980.9568894367395
 30
0.0
 10
58.07343958460217
 20
980.8995186172538
 30
0.0
 10
58.62413098814964
 20
980.6715724627069
 30
0.0
 10
58.86796717144141
 20
980.5084744810484
 30
0.0
 10
59.289508471007
 20
980.0871392179522
 30
0.0
 10
59.45236883463323
 20
979.8431442632767
 30
0.0
 10
59.68058418877657
 20
979.2925643660283
 30
0.0
 10
59.7376745393931
 20
979.0055517917542
 30
0.0
 10
59.7377475635545
 20
978.7068165918303
 30
0.0
  0
SPLINE
  5
85
330
1F
100
AcDbEntity
  8
0
  6
Continuous
 62
     7
370
    25
100
AcDbSpline
210
0.0
220
0.0
230
1.0
 70
     8
 71
     3
 72
    22
 73
    18
 74
     0
 42
0.00000001
 43
0.00000001
 40
0.0
 40
0.0
 40
0.0
 40
0.0
 40
0.0625
 40
0.0625
 40
0.125
 40
0.125
 40
0.1875
 40
0.1875
 40
0.25
 40
0.25
 40
0.3125
 40
0.3125
 40
0.375
 40
0.375
 40
0.4375
 40
0.4375
 40
0.5
 40
0.5
 40
0.5
 40
0.5
 10
94.27241423445571
 20
14.56829999965037
 30
0.0
 10
94.2723412102943
 20
14.86703519957699
 30
0.0
 10
94.21525085967778
 20
15.1540477738501
 30
0.0
 10
93.98703550553444
 20
15.70462767109015
 30
0.0
 10
93.82417514190664
 20
15.94862262577346
 30
0.0
 10
93.40263384234423
 20
16.36995788886697
 30
0.0
 10
93.15879765904953
 20
16.53305587052678
 30
0.0
 10
92.60810625550478
 20
16.76100202507369
 30
0.0
 10
92.3204161010552
 20
16.81837284455967
 30
0.0
 10
91.72441236785619
 20
16.8182271547408
 30
0.0
 10
91.43666646036748
 20
16.76113662486545
 30
0.0
 10
90.88608656290103
 20
16.53292127073502
 30
0.0
 10
90.64209160849666
 20
16.37006090722415
 30
0.0
 10
90.22075634507526
 20
15.94851960741628
 30
0.0
 10
90.05765836355405
 20
15.70468342426223
 30
0.0
 10
89.82971220905652
 20
15.15399202067802
 30
0.0
 10
89.7724142344557
 20
14.86610112661579
 30
0.0
 10
89.7724142344557
 20
14.56829999965037
 30
0.0
  0
SPLINE
  5
86
330
1F
100
AcDbEntity
  8
0
  6
Continuous
 62
     7
370
    25
100
AcDbSpline
210
0.0
220
0.0
230
1.0
 70
     8
 71
     3
 72
    22
 73
    18
 74
     0
 42
0.00000001
 43
0.00000001
 40
0.0
 40
0.0
 40
0.0
 40
0.0
 40
0.0625
 40
0.0625
 40
0.125
 40
0.125
 40
0.1875
 40
0.1875
 40
0.25
 40
0.25
 40
0.3125
 40
0.3125
 40
0.375
 40
0.375
 40
0.4375
 40
0.4375
 40
0.5
 40
0.5
 40
0.5
 40
0.5
 10
55.23774756355471
 20
7.669761097600203
 30
0.0
 10
55.23774756355471
 20
7.967562224566072
 30
0.0
 10
55.29504553815489
 20
8.25545311862741
 30
0.0
 10
55.5229916926537
 20
8.8061445222134
 30
0.0
 10
55.68608967417207
 20
9.049980705364558
 30
0.0
 10
56.10742493759794
 20
9.471522005175537
 30
0.0
 10
56.351419891999
 20
9.63438236868508
 30
0.0
 10
56.9019997894674
 20
9.862597722815503
 30
0.0
 10
57.18974569695337
 20
9.91968825268974
 30
0.0
 10
57.78574943015604
 20
9.919833942510836
 30
0.0
 10
58.07343958460237
 20
9.862463123025078
 30
0.0
 10
58.62413098814984
 20
9.634516968475504
 30
0.0
 10
58.86796717144161
 20
9.471418986817914
 30
0.0
 10
59.2895084710072
 20
9.05008372372218
 30
0.0
 10
59.45236883463343
 20
8.806088769041986
 30
0.0
 10
59.68058418877678
 20
8.255508871798822
 30
0.0
 10
59.7376745393933
 20
7.968496297526384
 30
0.0
 10
59.73774756355471
 20
7.669761097600203
 30
0.0
  0
SPLINE
  5
87
330
1F
100
AcDbEntity
  8
0
  6
Continuous
 62
     7
370
    25
100
AcDbSpline
210
0.0
220
0.0
230
1.0
 70
     8
 71
     3
 72
    22
 73
    18
 74
     0
 42
0.00000001
 43
0.00000001
 40
0.0
 40
0.0
 40
0.0
 40
0.0
 40
0.0625
 40
0.0625
 40
0.125
 40
0.125
 40
0.1875
 40
0.1875
 40
0.25
 40
0.25
 40
0.3125
 40
0.3125
 40
0.375
 40
0.375
 40
0.4375
 40
0.4375
 40
0.5
 40
0.5
 40
0.5
 40
0.5
 10
55.23774756355451
 20
21.29318340747011
 30
0.0
 10
55.23774756355451
 20
21.59098453443708
 30
0.0
 10
55.2950455381547
 20
21.87887542849665
 30
0.0
 10
55.52299169265351
 20
22.42956683208352
 30
0.0
 10
55.68608967417187
 20
22.67340301523535
 30
0.0
 10
56.10742493759774
 20
23.09494431504544
 30
0.0
 10
56.3514198919988
 20
23.25780467855498
 30
0.0
 10
56.9019997894672
 20
23.48602003268541
 30
0.0
 10
57.1897456969531
 20
23.54311056256076
 30
0.0
 10
57.7857494301559
 20
23.54325625237963
 30
0.0
 10
58.07343958460217
 20
23.48588543289498
 30
0.0
 10
58.62413098814964
 20
23.25793927834541
 30
0.0
 10
58.86796717144141
 20
23.09484129668849
 30
0.0
 10
59.289508471007
 20
22.6735060335923
 30
0.0
 10
59.45236883463323
 20
22.42951107891123
 30
0.0
 10
59.68058418877657
 20
21.87893118166895
 30
0.0
 10
59.7376745393931
 20
21.5919186073954
 30
0.0
 10
59.7377475635545
 20
21.29318340747011
 30
0.0
  0
SPLINE
  5
88
330
1F
100
AcDbEntity
  8
0
  6
Continuous
 62
     7
370
    25
100
AcDbSpline
210
0.0
220
0.0
230
1.0
 70
     8
 71
     3
 72
    22
 73
    18
 74
     0
 42
0.00000001
 43
0.00000001
 40
0.0
 40
0.0
 40
0.0
 40
0.0
 40
0.0625
 40
0.0625
 40
0.125
 40
0.125
 40
0.1875
 40
0.1875
 40
0.25
 40
0.25
 40
0.3125
 40
0.3125
 40
0.375
 40
0.375
 40
0.4375
 40
0.4375
 40
0.5
 40
0.5
 40
0.5
 40
0.5
 10
56.8837434216336
 20
302.122381720035
 30
0.0
 10
56.8837434216336
 20
302.4201828470617
 30
0.0
 10
56.94104139623379
 20
302.7080737411242
 30
0.0
 10
57.1689875507326
 20
303.258765144588
 30
0.0
 10
57.33208553245652
 20
303.5026013279458
 30
0.0
 10
57.7534207954713
 20
303.9241426274644
 30
0.0
 10
57.99741575022344
 20
304.0870029911205
 30
0.0
 10
58.54799564740077
 20
304.3152183452498
 30
0.0
 10
58.83574155510468
 20
304.3723088751257
 30
0.0
 10
59.43174528816254
 20
304.3724545649443
 30
0.0
 10
59.7194354427326
 20
304.3150837454078
 30
0.0
 10
60.2701268461774
 20
304.0871375909624
 30
0.0
 10
60.51396302949924
 20
303.9240396092744
 30
0.0
 10
60.93550432910737
 20
303.5027043461358
 30
0.0
 10
61.09836469271234
 20
303.2587093915089
 30
0.0
 10
61.32658004685567
 20
302.7081294942033
 30
0.0
 10
61.38367039747223
 20
302.4211169199295
 30
0.0
 10
61.38374342163361
 20
302.122381720035
 30
0.0
  0
SPLINE
  5
89
330
1F
100
AcDbEntity
  8
0
  6
Continuous
 62
     7
370
    25
100
AcDbSpline
210
0.0
220
0.0
230
1.0
 70
     8
 71
     3
 72
    22
 73
    18
 74
     0
 42
0.00000001
 43
0.00000001
 40
0.0
 40
0.0
 40
0.0
 40
0.0
 40
0.0625
 40
0.0625
 40
0.125
 40
0.125
 40
0.1875
 40
0.1875
 40
0.25
 40
0.25
 40
0.3125
 40
0.3125
 40
0.375
 40
0.375
 40
0.4375
 40
0.4375
 40
0.5
 40
0.5
 40
0.5
 40
0.5
 10
56.8837434216335
 20
52.12238172004025
 30
0.0
 10
56.8837434216335
 20
52.42018284700234
 30
0.0
 10
56.94104139623504
 20
52.70807374107412
 30
0.0
 10
57.16898755073117
 20
53.25876514465033
 30
0.0
 10
57.33208553225407
 20
53.50260132780637
 30
0.0
 10
57.75342079567353
 20
53.92414262761424
 30
0.0
 10
57.9974157500778
 20
54.08700299112512
 30
0.0
 10
58.5479956475462
 20
54.31521834525554
 30
0.0
 10
58.8357415550321
 20
54.37230887512933
 30
0.0
 10
59.4317452882349
 20
54.37245456495088
 30
0.0
 10
59.71943544268117
 20
54.31508374546512
 30
0.0
 10
60.27012684622864
 20
54.08713759091555
 30
0.0
 10
60.51396302952041
 20
53.9240396092584
 30
0.0
 10
60.935504329086
 20
53.50270434616222
 30
0.0
 10
61.09836469271223
 20
53.25870939148491
 30
0.0
 10
61.32658004685558
 20
52.70812949423953
 30
0.0
 10
61.38367039747209
 20
52.42111691996642
 30
0.0
 10
61.3837434216335
 20
52.12238172004025
 30
0.0
  0
SPLINE
  5
8A
330
1F
100
AcDbEntity
  8
0
  6
Continuous
 62
     7
370
    25
100
AcDbSpline
210
0.0
220
0.0
230
1.0
 70
     8
 71
     3
 72
    22
 73
    18
 74
     0
 42
0.00000001
 43
0.00000001
 40
0.0
 40
0.0
 40
0.0
 40
0.0
 40
0.0625
 40
0.0625
 40
0.125
 40
0.125
 40
0.1875
 40
0.1875
 40
0.25
 40
0.25
 40
0.3125
 40
0.3125
 40
0.375
 40
0.375
 40
0.4375
 40
0.4375
 40
0.5
 40
0.5
 40
0.5
 40
0.5
 10
123.5567934754294
 20
969.9999999996403
 30
0.0
 10
123.5567934754294
 20
970.2978011265722
 30
0.0
 10
123.4994955008323
 20
970.5856920206204
 30
0.0
 10
123.2715493463274
 20
971.1363834243001
 30
0.0
 10
123.1084513648862
 20
971.3802196073776
 30
0.0
 10
122.6871161013121
 20
971.8017609072434
 30
0.0
 10
122.4431211469819
 20
971.9646212707268
 30
0.0
 10
121.8925412495197
 20
972.1928366248535
 30
0.0
 10
121.6047953420432
 20
972.2499271547297
 30
0.0
 10
121.0087916088156
 20
972.2500728445501
 30
0.0
 10
120.721101454491
 20
972.1927020251165
 30
0.0
 10
120.170410050725
 20
971.9647558704637
 30
0.0
 10
119.9265738675484
 20
971.8016578889241
 30
0.0
 10
119.505032567971
 20
971.3803226256971
 30
0.0
 10
119.342172204343
 20
971.1363276710136
 30
0.0
 10
119.1139568502149
 20
970.5857477739069
 30
0.0
 10
119.0568664995984
 20
970.2987351996335
 30
0.0
 10
119.0567934754294
 20
969.9999999996403
 30
0.0
  0
SPLINE
  5
8B
330
1F
100
AcDbEntity
  8
0
  6
Continuous
 62
     7
370
    25
100
AcDbSpline
210
0.0
220
0.0
230
1.0
 70
     8
 71
     3
 72
    22
 73
    18
 74
     0
 42
0.00000001
 43
0.00000001
 40
0.5
 40
0.5
 40
0.5
 40
0.5
 40
0.5625
 40
0.5625
 40
0.625
 40
0.625
 40
0.6875
 40
0.6875
 40
0.75
 40
0.75
 40
0.8125
 40
0.8125
 40
0.875
 40
0.875
 40
0.9375
 40
0.9375
 40
1.0
 40
1.0
 40
1.0
 40
1.0
 10
119.0567934754294
 20
969.9999999996403
 30
0.0
 10
119.0567207549046
 20
969.7025069799455
 30
0.0
 10
119.1140914500904
 20
969.4143079785068
 30
0.0
 10
119.3420376044676
 20
968.8636165751337
 30
0.0
 10
119.5051355861261
 20
968.6197803918399
 30
0.0
 10
119.9264708493933
 20
968.1982390921002
 30
0.0
 10
120.1704658038783
 20
968.0353787285537
 30
0.0
 10
120.7210457013377
 20
967.8071633744271
 30
0.0
 10
121.0087916088141
 20
967.7500728445501
 30
0.0
 10
121.6047953420447
 20
967.7499271547301
 30
0.0
 10
121.8924854965743
 20
967.8072979742504
 30
0.0
 10
122.4431768999274
 20
968.0352441287304
 30
0.0
 10
122.6870130833956
 20
968.1983421105632
 30
0.0
 10
123.1085543828027
 20
968.6196773733767
 30
0.0
 10
123.2713417223468
 20
968.8634961541468
 30
0.0
 10
123.4997031248129
 20
969.4144283994938
 30
0.0
 10
123.5567934754294
 20
969.7014409737671
 30
0.0
 10
123.5567934754294
 20
969.9999999996403
 30
0.0
  0
SPLINE
  5
8C
330
1F
100
AcDbEntity
  8
0
  6
Continuous
 62
     7
370
    25
100
AcDbSpline
210
0.0
220
0.0
230
1.0
 70
     8
 71
     3
 72
    22
 73
    18
 74
     0
 42
0.00000001
 43
0.00000001
 40
0.5
 40
0.5
 40
0.5
 40
0.5
 40
0.5625
 40
0.5625
 40
0.625
 40
0.625
 40
0.6875
 40
0.6875
 40
0.75
 40
0.75
 40
0.8125
 40
0.8125
 40
0.875
 40
0.875
 40
0.9375
 40
0.9375
 40
1.0
 40
1.0
 40
1.0
 40
1.0
 10
61.3837434216335
 20
52.12238172004025
 30
0.0
 10
61.38381614215089
 20
51.82488870015378
 30
0.0
 10
61.32644544703784
 20
51.53668969901703
 30
0.0
 10
61.09849929252997
 20
50.9859982954195
 30
0.0
 10
60.93540131101934
 20
50.742162112277
 30
0.0
 10
60.51406604758707
 20
50.32062081246336
 30
0.0
 10
60.27007109318903
 20
50.15776044895404
 30
0.0
 10
59.71949119572077
 20
49.92954509482628
 30
0.0
 10
59.4317452882349
 20
49.87245456494938
 30
0.0
 10
58.8357415550321
 20
49.87230887513094
 30
0.0
 10
58.54805140048293
 20
49.92967969465801
 30
0.0
 10
57.99735999714107
 20
50.15762584912231
 30
0.0
 10
57.75352381370394
 20
50.3207238309249
 30
0.0
 10
57.33198251422367
 20
50.74205909381546
 30
0.0
 10
57.16919517471617
 20
50.98587787449161
 30
0.0
 10
56.94083377225003
 20
51.53681011994493
 30
0.0
 10
56.8837434216335
 20
51.82382269421915
 30
0.0
 10
56.8837434216335
 20
52.12238172004025
 30
0.0
  0
SPLINE
  5
8D
330
1F
100
AcDbEntity
  8
0
  6
Continuous
 62
     7
370
    25
100
AcDbSpline
210
0.0
220
0.0
230
1.0
 70
     8
 71
     3
 72
    22
 73
    18
 74
     0
 42
0.00000001
 43
0.00000001
 40
0.5
 40
0.5
 40
0.5
 40
0.5
 40
0.5625
 40
0.5625
 40
0.625
 40
0.625
 40
0.6875
 40
0.6875
 40
0.75
 40
0.75
 40
0.8125
 40
0.8125
 40
0.875
 40
0.875
 40
0.9375
 40
0.9375
 40
1.0
 40
1.0
 40
1.0
 40
1.0
 10
61.38374342163361
 20
302.122381720035
 30
0.0
 10
61.38381614215099
 20
301.8248887000873
 30
0.0
 10
61.32644544703794
 20
301.5366896989526
 30
0.0
 10
61.09849929253007
 20
300.9859982954754
 30
0.0
 10
60.9354013108139
 20
300.7421621121257
 30
0.0
 10
60.5140660477927
 20
300.3206208126045
 30
0.0
 10
60.2700710930436
 20
300.1577604489498
 30
0.0
 10
59.7194911958664
 20
299.9295450948205
 30
0.0
 10
59.43174528816254
 20
299.8724545649444
 30
0.0
 10
58.83574155510468
 20
299.8723088751257
 30
0.0
 10
58.54805140053444
 20
299.9296796946626
 30
0.0
 10
57.99735999708977
 20
300.1576258491078
 30
0.0
 10
57.75352381376798
 20
300.3207238307958
 30
0.0
 10
57.33198251415983
 20
300.7420590939344
 30
0.0
 10
57.16919517471626
 20
300.9858778744588
 30
0.0
 10
56.94083377225014
 20
301.5368101199693
 30
0.0
 10
56.8837434216336
 20
301.8238226942427
 30
0.0
 10
56.8837434216336
 20
302.122381720035
 30
0.0
  0
SPLINE
  5
8E
330
1F
100
AcDbEntity
  8
0
  6
Continuous
 62
     7
370
    25
100
AcDbSpline
210
0.0
220
0.0
230
1.0
 70
     8
 71
     3
 72
    22
 73
    18
 74
     0
 42
0.00000001
 43
0.00000001
 40
0.5
 40
0.5
 40
0.5
 40
0.5
 40
0.5625
 40
0.5625
 40
0.625
 40
0.625
 40
0.6875
 40
0.6875
 40
0.75
 40
0.75
 40
0.8125
 40
0.8125
 40
0.875
 40
0.875
 40
0.9375
 40
0.9375
 40
1.0
 40
1.0
 40
1.0
 40
1.0
 10
59.7377475635545
 20
21.29318340747011
 30
0.0
 10
59.73782028407189
 20
20.99569038758364
 30
0.0
 10
59.68044958895884
 20
20.7074913864469
 30
0.0
 10
59.45250343445097
 20
20.15679998284936
 30
0.0
 10
59.28940545294034
 20
19.91296379970709
 30
0.0
 10
58.86807018950807
 20
19.49142249989344
 30
0.0
 10
58.62407523511003
 20
19.32856213638434
 30
0.0
 10
58.07349533764177
 20
19.10034678225614
 30
0.0
 10
57.7857494301559
 20
19.04325625237968
 30
0.0
 10
57.1897456969531
 20
19.04311056256081
 30
0.0
 10
56.90205554240394
 20
19.10048138208831
 30
0.0
 10
56.35136413906207
 20
19.32842753655217
 30
0.0
 10
56.10752795562493
 20
19.49152551835498
 30
0.0
 10
55.68598665614467
 20
19.91286078124554
 30
0.0
 10
55.52319931663716
 20
20.15667956192146
 30
0.0
 10
55.29483791417104
 20
20.70761180737479
 30
0.0
 10
55.23774756355451
 20
20.99462438164856
 30
0.0
 10
55.23774756355451
 20
21.29318340747011
 30
0.0
  0
SPLINE
  5
8F
330
1F
100
AcDbEntity
  8
0
  6
Continuous
 62
     7
370
    25
100
AcDbSpline
210
0.0
220
0.0
230
1.0
 70
     8
 71
     3
 72
    22
 73
    18
 74
     0
 42
0.00000001
 43
0.00000001
 40
0.5
 40
0.5
 40
0.5
 40
0.5
 40
0.5625
 40
0.5625
 40
0.625
 40
0.625
 40
0.6875
 40
0.6875
 40
0.75
 40
0.75
 40
0.8125
 40
0.8125
 40
0.875
 40
0.875
 40
0.9375
 40
0.9375
 40
1.0
 40
1.0
 40
1.0
 40
1.0
 10
59.73774756355471
 20
7.669761097600203
 30
0.0
 10
59.73782028407209
 20
7.372268077714184
 30
0.0
 10
59.6804495889591
 20
7.084069076576327
 30
0.0
 10
59.4525034344511
 20
6.533377672979679
 30
0.0
 10
59.28940545294054
 20
6.289541489836736
 30
0.0
 10
58.86807018950827
 20
5.868000190023537
 30
0.0
 10
58.62407523511024
 20
5.705139826513994
 30
0.0
 10
58.07349533764197
 20
5.476924472386235
 30
0.0
 10
57.7857494301561
 20
5.419833942509777
 30
0.0
 10
57.1897456969533
 20
5.419688252690902
 30
0.0
 10
56.90205554240413
 20
5.47705907221796
 30
0.0
 10
56.35136413906227
 20
5.705005226682269
 30
0.0
 10
56.10752795562513
 20
5.868103208484632
 30
0.0
 10
55.68598665614488
 20
6.289438471375641
 30
0.0
 10
55.52319931663737
 20
6.533257252051339
 30
0.0
 10
55.29483791417124
 20
7.084189497504667
 30
0.0
 10
55.23774756355471
 20
7.37120207177866
 30
0.0
 10
55.23774756355471
 20
7.669761097600203
 30
0.0
  0
SPLINE
  5
90
330
1F
100
AcDbEntity
  8
0
  6
Continuous
 62
     7
370
    25
100
AcDbSpline
210
0.0
220
0.0
230
1.0
 70
     8
 71
     3
 72
    22
 73
    18
 74
     0
 42
0.00000001
 43
0.00000001
 40
0.5
 40
0.5
 40
0.5
 40
0.5
 40
0.5625
 40
0.5625
 40
0.625
 40
0.625
 40
0.6875
 40
0.6875
 40
0.75
 40
0.75
 40
0.8125
 40
0.8125
 40
0.875
 40
0.875
 40
0.9375
 40
0.9375
 40
1.0
 40
1.0
 40
1.0
 40
1.0
 10
94.27241423445571
 20
14.56829999965037
 30
0.0
 10
94.27248695497308
 20
14.27080697977168
 30
0.0
 10
94.2151162598578
 20
13.98260797862294
 30
0.0
 10
93.98717010535442
 20
13.4319165750334
 30
0.0
 10
93.82407212383934
 20
13.18808039188402
 30
0.0
 10
93.40273686041154
 20
12.76653909207615
 30
0.0
 10
93.15874190601038
 20
12.60367872856438
 30
0.0
 10
92.60816200854393
 20
12.37546337443618
 30
0.0
 10
92.3204161010552
 20
12.31837284455972
 30
0.0
 10
91.72441236785619
 20
12.31822715474085
 30
0.0
 10
91.43672221330388
 20
12.37559797426946
 30
0.0
 10
90.88603080996461
 20
12.6035441287311
 30
0.0
 10
90.64219462652609
 20
12.76664211053458
 30
0.0
 10
90.22065332704582
 20
13.18797737342559
 30
0.0
 10
90.05786598753838
 20
13.43179615410151
 30
0.0
 10
89.82950458507223
 20
13.98272839955483
 30
0.0
 10
89.7724142344557
 20
14.26974097382883
 30
0.0
 10
89.7724142344557
 20
14.56829999965037
 30
0.0
  0
SPLINE
  5
91
330
1F
100
AcDbEntity
  8
0
  6
Continuous
 62
     7
370
    25
100
AcDbSpline
210
0.0
220
0.0
230
1.0
 70
     8
 71
     3
 72
    22
 73
    18
 74
     0
 42
0.00000001
 43
0.00000001
 40
0.5
 40
0.5
 40
0.5
 40
0.5
 40
0.5625
 40
0.5625
 40
0.625
 40
0.625
 40
0.6875
 40
0.6875
 40
0.75
 40
0.75
 40
0.8125
 40
0.8125
 40
0.875
 40
0.875
 40
0.9375
 40
0.9375
 40
1.0
 40
1.0
 40
1.0
 40
1.0
 10
59.7377475635545
 20
978.7068165918303
 30
0.0
 10
59.73782028407189
 20
978.409323571942
 30
0.0
 10
59.68044958895884
 20
978.1211245708101
 30
0.0
 10
59.45250343445097
 20
977.5704331672104
 30
0.0
 10
59.28940545294034
 20
977.3265969840668
 30
0.0
 10
58.86807018950807
 20
976.9050556842535
 30
0.0
 10
58.62407523511003
 20
976.7421953207455
 30
0.0
 10
58.07349533764177
 20
976.5139799666148
 30
0.0
 10
57.7857494301559
 20
976.4568894367407
 30
0.0
 10
57.1897456969531
 20
976.4567437469196
 30
0.0
 10
56.90205554240394
 20
976.5141145664481
 30
0.0
 10
56.35136413906207
 20
976.7420607209121
 30
0.0
 10
56.10752795562493
 20
976.9051587027149
 30
0.0
 10
55.68598665614467
 20
977.3264939656054
 30
0.0
 10
55.52319931663716
 20
977.5703127462864
 30
0.0
 10
55.29483791417104
 20
978.1212449917341
 30
0.0
 10
55.23774756355451
 20
978.4082575660075
 30
0.0
 10
55.23774756355451
 20
978.7068165918303
 30
0.0
  0
SPLINE
  5
92
330
1F
100
AcDbEntity
  8
0
  6
Continuous
 62
     7
370
    25
100
AcDbSpline
210
0.0
220
0.0
230
1.0
 70
     8
 71
     3
 72
    22
 73
    18
 74
     0
 42
0.00000001
 43
0.00000001
 40
0.5
 40
0.5
 40
0.5
 40
0.5
 40
0.5625
 40
0.5625
 40
0.625
 40
0.625
 40
0.6875
 40
0.6875
 40
0.75
 40
0.75
 40
0.8125
 40
0.8125
 40
0.875
 40
0.875
 40
0.9375
 40
0.9375
 40
1.0
 40
1.0
 40
1.0
 40
1.0
 10
59.73774756355441
 20
992.3302389026902
 30
0.0
 10
59.73782028407179
 20
992.0327458828023
 30
0.0
 10
59.68044958895881
 20
991.7445468816696
 30
0.0
 10
59.4525034344508
 20
991.1938554780704
 30
0.0
 10
59.28940545294024
 20
990.9500192949272
 30
0.0
 10
58.86807018950797
 20
990.5284779951136
 30
0.0
 10
58.62407523510994
 20
990.3656176316053
 30
0.0
 10
58.07349533764167
 20
990.137402277475
 30
0.0
 10
57.7857494301558
 20
990.0803117476007
 30
0.0
 10
57.189745696953
 20
990.0801660577796
 30
0.0
 10
56.90205554240384
 20
990.137536877308
 30
0.0
 10
56.35136413906197
 20
990.3654830317723
 30
0.0
 10
56.10752795562483
 20
990.5285810135751
 30
0.0
 10
55.68598665614458
 20
990.9499162764656
 30
0.0
 10
55.52319931663707
 20
991.193735057146
 30
0.0
 10
55.29483791417094
 20
991.744667302594
 30
0.0
 10
55.23774756355441
 20
992.0316798768674
 30
0.0
 10
55.23774756355441
 20
992.3302389026902
 30
0.0
  0
SPLINE
  5
93
330
1F
100
AcDbEntity
  8
0
  6
Continuous
 62
     7
370
    25
100
AcDbSpline
210
0.0
220
0.0
230
1.0
 70
     8
 71
     3
 72
    22
 73
    18
 74
     0
 42
0.00000001
 43
0.00000001
 40
0.5
 40
0.5
 40
0.5
 40
0.5
 40
0.5625
 40
0.5625
 40
0.625
 40
0.625
 40
0.6875
 40
0.6875
 40
0.75
 40
0.75
 40
0.8125
 40
0.8125
 40
0.875
 40
0.875
 40
0.9375
 40
0.9375
 40
1.0
 40
1.0
 40
1.0
 40
1.0
 10
94.2724142344554
 20
985.4316999996402
 30
0.0
 10
94.27248695497278
 20
985.1342069797593
 30
0.0
 10
94.2151162598575
 20
984.8460079786128
 30
0.0
 10
93.98717010535411
 20
984.2953165750237
 30
0.0
 10
93.82407212383904
 20
984.0514803918759
 30
0.0
 10
93.40273686041122
 20
983.6299390920649
 30
0.0
 10
93.15874190601009
 20
983.4670787285553
 30
0.0
 10
92.60816200854362
 20
983.2388633744249
 30
0.0
 10
92.3204161010549
 20
983.1817728445507
 30
0.0
 10
91.72441236785589
 20
983.1816271547295
 30
0.0
 10
91.4367222133036
 20
983.2389979742593
 30
0.0
 10
90.88603080996432
 20
983.4669441287209
 30
0.0
 10
90.64219462652417
 20
983.6300421105277
 30
0.0
 10
90.22065332704712
 20
984.051377373413
 30
0.0
 10
90.05786598753807
 20
984.2951961540942
 30
0.0
 10
89.82950458507194
 20
984.8461283995422
 30
0.0
 10
89.7724142344554
 20
985.1331409738162
 30
0.0
 10
89.7724142344554
 20
985.4316999996402
 30
0.0
  0
SPLINE
  5
94
330
1F
100
AcDbEntity
  8
0
  6
Continuous
 62
     7
370
    25
100
AcDbSpline
210
0.0
220
0.0
230
1.0
 70
     8
 71
     3
 72
    22
 73
    18
 74
     0
 42
0.00000001
 43
0.00000001
 40
0.5
 40
0.5
 40
0.5
 40
0.5
 40
0.5625
 40
0.5625
 40
0.625
 40
0.625
 40
0.6875
 40
0.6875
 40
0.75
 40
0.75
 40
0.8125
 40
0.8125
 40
0.875
 40
0.875
 40
0.9375
 40
0.9375
 40
1.0
 40
1.0
 40
1.0
 40
1.0
 10
61.38374342163321
 20
592.1223817200353
 30
0.0
 10
61.38381614215059
 20
591.8248887000893
 30
0.0
 10
61.3264454470376
 20
591.5366896989522
 30
0.0
 10
61.0984992925296
 20
590.9859982954763
 30
0.0
 10
60.9354013108135
 20
590.742162112126
 30
0.0
 10
60.51406604779231
 20
590.3206208126046
 30
0.0
 10
60.27007109304319
 20
590.1577604489491
 30
0.0
 10
59.71949119586601
 20
589.9295450948212
 30
0.0
 10
59.43174528816213
 20
589.8724545649446
 30
0.0
 10
58.83574155510427
 20
589.872308875126
 30
0.0
 10
58.54805140053404
 20
589.9296796946625
 30
0.0
 10
57.99735999708937
 20
590.157625849108
 30
0.0
 10
57.75352381376757
 20
590.320723830796
 30
0.0
 10
57.33198251415944
 20
590.7420590939346
 30
0.0
 10
57.16919517471587
 20
590.9858778744581
 30
0.0
 10
56.94083377224973
 20
591.5368101199703
 30
0.0
 10
56.8837434216332
 20
591.8238226942437
 30
0.0
 10
56.8837434216332
 20
592.1223817200353
 30
0.0
  0
SPLINE
  5
95
330
1F
100
AcDbEntity
  8
0
  6
Continuous
 62
     7
370
    25
100
AcDbSpline
210
0.0
220
0.0
230
1.0
 70
     8
 71
     3
 72
    22
 73
    18
 74
     0
 42
0.00000001
 43
0.00000001
 40
0.5
 40
0.5
 40
0.5
 40
0.5
 40
0.5625
 40
0.5625
 40
0.625
 40
0.625
 40
0.6875
 40
0.6875
 40
0.75
 40
0.75
 40
0.8125
 40
0.8125
 40
0.875
 40
0.875
 40
0.9375
 40
0.9375
 40
1.0
 40
1.0
 40
1.0
 40
1.0
 10
61.38374342163331
 20
842.1223817200353
 30
0.0
 10
61.38381614215069
 20
841.8248887000889
 30
0.0
 10
61.32644544703764
 20
841.5366896989522
 30
0.0
 10
61.09849929252977
 20
840.9859982954763
 30
0.0
 10
60.9354013108136
 20
840.742162112126
 30
0.0
 10
60.5140660477924
 20
840.3206208126046
 30
0.0
 10
60.27007109304331
 20
840.1577604489498
 30
0.0
 10
59.7194911958661
 20
839.9295450948206
 30
0.0
 10
59.43174528816223
 20
839.8724545649447
 30
0.0
 10
58.83574155510437
 20
839.8723088751259
 30
0.0
 10
58.54805140053414
 20
839.9296796946625
 30
0.0
 10
57.99735999708948
 20
840.157625849108
 30
0.0
 10
57.75352381376768
 20
840.3207238307962
 30
0.0
 10
57.33198251415953
 20
840.7420590939345
 30
0.0
 10
57.16919517471597
 20
840.9858778744588
 30
0.0
 10
56.94083377224983
 20
841.5368101199696
 30
0.0
 10
56.8837434216333
 20
841.8238226942434
 30
0.0
 10
56.8837434216333
 20
842.1223817200353
 30
0.0
  0
LINE
  5
96
330
1F
100
AcDbEntity
  8
0
  6
Continuous
 62
     7
370
    25
100
AcDbLine
 10
132.9384934754
 20
1000.0
 30
0.0
 11
0.0
 21
1000.0
 31
0.0
  0
LINE
  5
97
330
1F
100
AcDbEntity
  8
0
  6
Continuous
 62
     7
370
    25
100
AcDbLine
 10
132.9384934754
 20
1000.0
 30
0.0
 11
132.9384934754
 21
0.0
 31
0.0
  0
LINE
  5
98
330
1F
100
AcDbEntity
  8
0
  6
Continuous
 62
     7
370
    25
100
AcDbLine
 10
0.0
 20
0.0
 30
0.0
 11
132.9384934754
 21
0.0
 31
0.0
  0
LINE
  5
99
330
1F
100
AcDbEntity
  8
0
  6
Continuous
 62
     7
370
    25
100
AcDbLine
 10
0.0
 20
0.0
 30
0.0
 11
0.0
 21
1000.0
 31
0.0
  0
ENDSEC
  0
SECTION
  2
OBJECTS
  0
DICTIONARY
  5
C
330
0
100
AcDbDictionary
281
     1
  3
ACAD_GROUP
350
D
  3
ACAD_LAYOUT
350
1A
  3
ACAD_MLINESTYLE
350
17
  3
ACAD_PLOTSETTINGS
350
19
  3
ACAD_PLOTSTYLENAME
350
E
  3
ACAD_SCALELIST
350
47
  3
DWGPROPS
350
9A
  0
DICTIONARY
  5
D
102
{ACAD_REACTORS
330
C
102
}
330
C
100
AcDbDictionary
281
     1
  0
DICTIONARY
  5
1A
102
{ACAD_REACTORS
330
C
102
}
330
C
100
AcDbDictionary
281
     1
  3
Layout1
350
1E
  3
Layout2
350
26
  3
Model
350
22
  0
DICTIONARY
  5
17
102
{ACAD_REACTORS
330
C
102
}
330
C
100
AcDbDictionary
281
     1
  3
Standard
350
18
  0
DICTIONARY
  5
19
102
{ACAD_REACTORS
330
C
102
}
330
C
100
AcDbDictionary
281
     1
  0
ACDBDICTIONARYWDFLT
  5
E
102
{ACAD_REACTORS
330
C
102
}
330
C
100
AcDbDictionary
281
     1
  3
Normal
350
F
100
AcDbDictionaryWithDefault
340
F
  0
DICTIONARY
  5
47
102
{ACAD_REACTORS
330
C
102
}
330
C
100
AcDbDictionary
281
     1
  3
A0
350
48
  3
A1
350
49
  3
A2
350
4A
  3
A3
350
4B
  3
A4
350
4C
  3
A5
350
4D
  3
A6
350
4E
  3
A7
350
4F
  3
A8
350
50
  3
A9
350
51
  3
B0
350
52
  3
B1
350
53
  3
B2
350
54
  3
B3
350
55
  3
B4
350
56
  3
B5
350
57
  3
B6
350
58
  3
B7
350
59
  3
B8
350
5A
  3
B9
350
5B
  3
C0
350
5C
  3
C1
350
5D
  3
C2
350
5E
  3
C3
350
5F
  3
C4
350
60
  3
C5
350
61
  3
C6
350
62
  3
C7
350
63
  3
C8
350
64
  3
C9
350
65
  3
D0
350
66
  3
D1
350
67
  3
D2
350
68
  0
XRECORD
  5
9A
102
{ACAD_REACTORS
330
C
102
}
330
C
100
AcDbXrecord
280
     1
  1
DWGPROPS COOKIE
  2

  3

  4

  6

  7

  8
barre
  9

300
=
301
=
302
=
303
=
304
=
305
=
306
=
307
=
308
=
309
=
 40
0.0
 41
2460151.437436146
 42
2460151.437469572
  1

 90
        0
  0
LAYOUT
  5
1E
102
{ACAD_REACTORS
330
1A
102
}
330
1A
100
AcDbPlotSettings
  1

  2
none_device
  4

  6

 40
0.0
 41
0.0
 42
0.0
 43
0.0
 44
0.0
 45
0.0
 46
0.0
 47
0.0
 48
0.0
 49
0.0
140
0.0
141
0.0
142
1.0
143
1.0
 70
   688
 72
     1
 73
     0
 74
     5
  7

 75
    16
147
1.0
148
0.0
149
0.0
100
AcDbLayout
  1
Layout1
 70
     1
 71
     1
 10
0.0
 20
0.0
 11
420.0
 21
297.0
 12
0.0
 22
0.0
 32
0.0
 14
1.0000000000E+20
 24
1.0000000000E+20
 34
1.0000000000E+20
 15
-1.0000000000E+20
 25
-1.0000000000E+20
 35
-1.0000000000E+20
146
0.0
 13
0.0
 23
0.0
 33
0.0
 16
1.0
 26
0.0
 36
0.0
 17
0.0
 27
1.0
 37
0.0
 76
     0
330
1B
  0
LAYOUT
  5
26
102
{ACAD_REACTORS
330
1A
102
}
330
1A
100
AcDbPlotSettings
  1

  2
none_device
  4

  6

 40
0.0
 41
0.0
 42
0.0
 43
0.0
 44
0.0
 45
0.0
 46
0.0
 47
0.0
 48
0.0
 49
0.0
140
0.0
141
0.0
142
1.0
143
1.0
 70
   688
 72
     1
 73
     0
 74
     5
  7

 75
    16
147
1.0
148
0.0
149
0.0
100
AcDbLayout
  1
Layout2
 70
     1
 71
     2
 10
0.0
 20
0.0
 11
0.0
 21
0.0
 12
0.0
 22
0.0
 32
0.0
 14
0.0
 24
0.0
 34
0.0
 15
0.0
 25
0.0
 35
0.0
146
0.0
 13
0.0
 23
0.0
 33
0.0
 16
1.0
 26
0.0
 36
0.0
 17
0.0
 27
1.0
 37
0.0
 76
     0
330
23
  0
LAYOUT
  5
22
102
{ACAD_REACTORS
330
1A
102
}
330
1A
100
AcDbPlotSettings
  1

  2
none_device
  4
ANSI_A_(11.00_x_8.50_Inches)
  6

 40
6.35
 41
19.05
 42
6.35000508
 43
19.05000254
 44
279.4
 45
215.9
 46
119.142794193
 47
-17.97050127
 48
0.0
 49
0.0
140
0.0
141
0.0
142
0.008415
143
1.0
 70
  1696
 72
     0
 73
     0
 74
     0
  7

 75
     0
147
0.0179189148
148
-1300.4909072572
149
0.0
100
AcDbLayout
  1
Model
 70
     1
 71
     0
 10
0.0
 20
0.0
 11
420.0
 21
297.0
 12
0.0
 22
0.0
 32
0.0
 14
0.0
 24
-0.0000000002
 34
0.0
 15
132.9384934754
 25
1000.0
 35
0.0
146
0.0
 13
0.0
 23
0.0
 33
0.0
 16
1.0
 26
0.0
 36
0.0
 17
0.0
 27
1.0
 37
0.0
 76
     0
330
1F
331
29
  0
MLINESTYLE
  5
18
102
{ACAD_REACTORS
330
17
102
}
330
17
100
AcDbMlineStyle
  2
Standard
 70
     0
  3

 62
   256
 51
90.0
 52
90.0
 71
     2
 49
0.5
 62
   256
  6
BYLAYER
 49
-0.5
 62
   256
  6
BYLAYER
  0
ACDBPLACEHOLDER
  5
F
102
{ACAD_REACTORS
330
E
102
}
330
E
  0
SCALE
  5
48
102
{ACAD_REACTORS
330
47
102
}
330
47
100
AcDbScale
 70
     0
300
1:1
140
1.0
141
1.0
290
     1
  0
SCALE
  5
49
102
{ACAD_REACTORS
330
47
102
}
330
47
100
AcDbScale
 70
     0
300
1:2
140
1.0
141
2.0
290
     0
  0
SCALE
  5
4A
102
{ACAD_REACTORS
330
47
102
}
330
47
100
AcDbScale
 70
     0
300
1:4
140
1.0
141
4.0
290
     0
  0
SCALE
  5
4B
102
{ACAD_REACTORS
330
47
102
}
330
47
100
AcDbScale
 70
     0
300
1:5
140
1.0
141
5.0
290
     0
  0
SCALE
  5
4C
102
{ACAD_REACTORS
330
47
102
}
330
47
100
AcDbScale
 70
     0
300
1:8
140
1.0
141
8.0
290
     0
  0
SCALE
  5
4D
102
{ACAD_REACTORS
330
47
102
}
330
47
100
AcDbScale
 70
     0
300
1:10
140
1.0
141
10.0
290
     0
  0
SCALE
  5
4E
102
{ACAD_REACTORS
330
47
102
}
330
47
100
AcDbScale
 70
     0
300
1:16
140
1.0
141
16.0
290
     0
  0
SCALE
  5
4F
102
{ACAD_REACTORS
330
47
102
}
330
47
100
AcDbScale
 70
     0
300
1:20
140
1.0
141
20.0
290
     0
  0
SCALE
  5
50
102
{ACAD_REACTORS
330
47
102
}
330
47
100
AcDbScale
 70
     0
300
1:30
140
1.0
141
30.0
290
     0
  0
SCALE
  5
51
102
{ACAD_REACTORS
330
47
102
}
330
47
100
AcDbScale
 70
     0
300
1:40
140
1.0
141
40.0
290
     0
  0
SCALE
  5
52
102
{ACAD_REACTORS
330
47
102
}
330
47
100
AcDbScale
 70
     0
300
1:50
140
1.0
141
50.0
290
     0
  0
SCALE
  5
53
102
{ACAD_REACTORS
330
47
102
}
330
47
100
AcDbScale
 70
     0
300
1:100
140
1.0
141
100.0
290
     0
  0
SCALE
  5
54
102
{ACAD_REACTORS
330
47
102
}
330
47
100
AcDbScale
 70
     0
300
2:1
140
2.0
141
1.0
290
     0
  0
SCALE
  5
55
102
{ACAD_REACTORS
330
47
102
}
330
47
100
AcDbScale
 70
     0
300
4:1
140
4.0
141
1.0
290
     0
  0
SCALE
  5
56
102
{ACAD_REACTORS
330
47
102
}
330
47
100
AcDbScale
 70
     0
300
8:1
140
8.0
141
1.0
290
     0
  0
SCALE
  5
57
102
{ACAD_REACTORS
330
47
102
}
330
47
100
AcDbScale
 70
     0
300
10:1
140
10.0
141
1.0
290
     0
  0
SCALE
  5
58
102
{ACAD_REACTORS
330
47
102
}
330
47
100
AcDbScale
 70
     0
300
100:1
140
100.0
141
1.0
290
     0
  0
SCALE
  5
59
102
{ACAD_REACTORS
330
47
102
}
330
47
100
AcDbScale
 70
     0
300
1/128" = 1'-0"
140
0.0078125
141
12.0
290
     0
  0
SCALE
  5
5A
102
{ACAD_REACTORS
330
47
102
}
330
47
100
AcDbScale
 70
     0
300
1/64" = 1'-0"
140
0.015625
141
12.0
290
     0
  0
SCALE
  5
5B
102
{ACAD_REACTORS
330
47
102
}
330
47
100
AcDbScale
 70
     0
300
1/32" = 1'-0"
140
0.03125
141
12.0
290
     0
  0
SCALE
  5
5C
102
{ACAD_REACTORS
330
47
102
}
330
47
100
AcDbScale
 70
     0
300
1/16" = 1'-0"
140
0.0625
141
12.0
290
     0
  0
SCALE
  5
5D
102
{ACAD_REACTORS
330
47
102
}
330
47
100
AcDbScale
 70
     0
300
3/32" = 1'-0"
140
0.09375
141
12.0
290
     0
  0
SCALE
  5
5E
102
{ACAD_REACTORS
330
47
102
}
330
47
100
AcDbScale
 70
     0
300
1/8" = 1'-0"
140
0.125
141
12.0
290
     0
  0
SCALE
  5
5F
102
{ACAD_REACTORS
330
47
102
}
330
47
100
AcDbScale
 70
     0
300
3/16" = 1'-0"
140
0.1875
141
12.0
290
     0
  0
SCALE
  5
60
102
{ACAD_REACTORS
330
47
102
}
330
47
100
AcDbScale
 70
     0
300
1/4" = 1'-0"
140
0.25
141
12.0
290
     0
  0
SCALE
  5
61
102
{ACAD_REACTORS
330
47
102
}
330
47
100
AcDbScale
 70
     0
300
3/8" = 1'-0"
140
0.375
141
12.0
290
     0
  0
SCALE
  5
62
102
{ACAD_REACTORS
330
47
102
}
330
47
100
AcDbScale
 70
     0
300
1/2" = 1'-0"
140
0.5
141
12.0
290
     0
  0
SCALE
  5
63
102
{ACAD_REACTORS
330
47
102
}
330
47
100
AcDbScale
 70
     0
300
3/4" = 1'-0"
140
0.75
141
12.0
290
     0
  0
SCALE
  5
64
102
{ACAD_REACTORS
330
47
102
}
330
47
100
AcDbScale
 70
     0
300
1" = 1'-0"
140
1.0
141
12.0
290
     0
  0
SCALE
  5
65
102
{ACAD_REACTORS
330
47
102
}
330
47
100
AcDbScale
 70
     0
300
1-1/2" = 1'-0"
140
1.5
141
12.0
290
     0
  0
SCALE
  5
66
102
{ACAD_REACTORS
330
47
102
}
330
47
100
AcDbScale
 70
     0
300
3" = 1'-0"
140
3.0
141
12.0
290
     0
  0
SCALE
  5
67
102
{ACAD_REACTORS
330
47
102
}
330
47
100
AcDbScale
 70
     0
300
6" = 1'-0"
140
6.0
141
12.0
290
     0
  0
SCALE
  5
68
102
{ACAD_REACTORS
330
47
102
}
330
47
100
AcDbScale
 70
     0
300
1'-0" = 1'-0"
140
12.0
141
12.0
290
     0
  0
ENDSEC
  0
EOF
