  0
SECTION
  2
HEADER
  9
$ACADVER
  1
AC1015
  9
$ACADMAINTVER
 70
     6
  9
$DWGCODEPAGE
  3
ANSI_1252
  9
$INSBASE
 10
0.0
 20
0.0
 30
0.0
  9
$EXTMIN
 10
0.0
 20
0.0
 30
0.0
  9
$EXTMAX
 10
114.0327196257
 20
1000.0000000002
 30
0.0
  9
$LIMMIN
 10
0.0
 20
0.0
  9
$LIMMAX
 10
420.0
 20
297.0
  9
$ORTHOMODE
 70
     0
  9
$REGENMODE
 70
     1
  9
$FILLMODE
 70
     1
  9
$QTEXTMODE
 70
     0
  9
$MIRRTEXT
 70
     1
  9
$LTSCALE
 40
1.0
  9
$ATTMODE
 70
     1
  9
$TEXTSIZE
 40
3.5
  9
$TRACEWID
 40
1.0
  9
$TEXTSTYLE
  7
Standard
  9
$CLAYER
  8
0
  9
$CELTYPE
  6
ByLayer
  9
$CECOLOR
 62
   256
  9
$CELTSCALE
 40
1.0
  9
$DISPSILH
 70
     0
  9
$DIMSCALE
 40
1.0
  9
$DIMASZ
 40
3.302
  9
$DIMEXO
 40
0.0
  9
$DIMDLI
 40
3.75
  9
$DIMRND
 40
0.0
  9
$DIMDLE
 40
0.0
  9
$DIMEXE
 40
1.0
  9
$DIMTP
 40
0.0
  9
$DIMTM
 40
0.0
  9
$DIMTXT
 40
3.5
  9
$DIMCEN
 40
2.5
  9
$DIMTSZ
 40
0.0
  9
$DIMTOL
 70
     0
  9
$DIMLIM
 70
     0
  9
$DIMTIH
 70
     1
  9
$DIMTOH
 70
     1
  9
$DIMSE1
 70
     0
  9
$DIMSE2
 70
     0
  9
$DIMTAD
 70
     1
  9
$DIMZIN
 70
     1
  9
$DIMBLK
  1

  9
$DIMASO
 70
     1
  9
$DIMSHO
 70
     1
  9
$DIMPOST
  1

  9
$DIMAPOST
  1

  9
$DIMALT
 70
     0
  9
$DIMALTD
 70
     3
  9
$DIMALTF
 40
0.0393700787
  9
$DIMLFAC
 40
1.0
  9
$DIMTOFL
 70
     1
  9
$DIMTVP
 40
0.0
  9
$DIMTIX
 70
     0
  9
$DIMSOXD
 70
     0
  9
$DIMSAH
 70
     0
  9
$DIMBLK1
  1

  9
$DIMBLK2
  1

  9
$DIMSTYLE
  2
ISO-25
  9
$DIMCLRD
 70
     0
  9
$DIMCLRE
 70
     0
  9
$DIMCLRT
 70
     0
  9
$DIMTFAC
 40
1.0
  9
$DIMGAP
 40
1.524
  9
$DIMJUST
 70
     0
  9
$DIMSD1
 70
     0
  9
$DIMSD2
 70
     0
  9
$DIMTOLJ
 70
     0
  9
$DIMTZIN
 70
     1
  9
$DIMALTZ
 70
     0
  9
$DIMALTTZ
 70
     0
  9
$DIMUPT
 70
     0
  9
$DIMDEC
 70
     2
  9
$DIMTDEC
 70
     2
  9
$DIMALTU
 70
     2
  9
$DIMALTTD
 70
     3
  9
$DIMTXSTY
  7
Standard
  9
$DIMAUNIT
 70
     0
  9
$DIMADEC
 70
     2
  9
$DIMALTRND
 40
0.0
  9
$DIMAZIN
 70
     0
  9
$DIMDSEP
 70
    44
  9
$DIMATFIT
 70
     3
  9
$DIMFRAC
 70
     0
  9
$DIMLDRBLK
  1

  9
$DIMLUNIT
 70
     2
  9
$DIMLWD
 70
    -2
  9
$DIMLWE
 70
    -2
  9
$DIMTMOVE
 70
     0
  9
$LUNITS
 70
     2
  9
$LUPREC
 70
     2
  9
$SKETCHINC
 40
1.0
  9
$FILLETRAD
 40
10.0
  9
$AUNITS
 70
     0
  9
$AUPREC
 70
     2
  9
$MENU
  1
.
  9
$ELEVATION
 40
0.0
  9
$PELEVATION
 40
0.0
  9
$THICKNESS
 40
0.0
  9
$LIMCHECK
 70
     0
  9
$CHAMFERA
 40
0.0
  9
$CHAMFERB
 40
0.0
  9
$CHAMFERC
 40
0.0
  9
$CHAMFERD
 40
0.0
  9
$SKPOLY
 70
     0
  9
$TDCREATE
 40
2460151.556783669
  9
$TDUCREATE
 40
2460151.431783669
  9
$TDUPDATE
 40
2460151.55685147
  9
$TDUUPDATE
 40
2460151.43185147
  9
$TDINDWG
 40
0.0000000116
  9
$TDUSRTIMER
 40
0.0000000116
  9
$USRTIMER
 70
     1
  9
$ANGBASE
 50
0.0
  9
$ANGDIR
 70
     0
  9
$PDMODE
 70
     0
  9
$PDSIZE
 40
-1.0
  9
$PLINEWID
 40
0.0
  9
$SPLFRAME
 70
     0
  9
$SPLINETYPE
 70
     6
  9
$SPLINESEGS
 70
     8
  9
$HANDSEED
  5
166
  9
$SURFTAB1
 70
     6
  9
$SURFTAB2
 70
     6
  9
$SURFTYPE
 70
     6
  9
$SURFU
 70
     6
  9
$SURFV
 70
     6
  9
$UCSBASE
  2

  9
$UCSNAME
  2

  9
$UCSORG
 10
0.0
 20
0.0
 30
0.0
  9
$UCSXDIR
 10
1.0
 20
0.0
 30
0.0
  9
$UCSYDIR
 10
0.0
 20
1.0
 30
0.0
  9
$UCSORTHOREF
  2

  9
$UCSORTHOVIEW
 70
     0
  9
$UCSORGTOP
 10
0.0
 20
0.0
 30
0.0
  9
$UCSORGBOTTOM
 10
0.0
 20
0.0
 30
0.0
  9
$UCSORGLEFT
 10
0.0
 20
0.0
 30
0.0
  9
$UCSORGRIGHT
 10
0.0
 20
0.0
 30
0.0
  9
$UCSORGFRONT
 10
0.0
 20
0.0
 30
0.0
  9
$UCSORGBACK
 10
0.0
 20
0.0
 30
0.0
  9
$PUCSBASE
  2

  9
$PUCSNAME
  2

  9
$PUCSORG
 10
0.0
 20
0.0
 30
0.0
  9
$PUCSXDIR
 10
1.0
 20
0.0
 30
0.0
  9
$PUCSYDIR
 10
0.0
 20
1.0
 30
0.0
  9
$PUCSORTHOREF
  2

  9
$PUCSORTHOVIEW
 70
     0
  9
$PUCSORGTOP
 10
0.0
 20
0.0
 30
0.0
  9
$PUCSORGBOTTOM
 10
0.0
 20
0.0
 30
0.0
  9
$PUCSORGLEFT
 10
0.0
 20
0.0
 30
0.0
  9
$PUCSORGRIGHT
 10
0.0
 20
0.0
 30
0.0
  9
$PUCSORGFRONT
 10
0.0
 20
0.0
 30
0.0
  9
$PUCSORGBACK
 10
0.0
 20
0.0
 30
0.0
  9
$USERI1
 70
     0
  9
$USERI2
 70
     0
  9
$USERI3
 70
     0
  9
$USERI4
 70
     0
  9
$USERI5
 70
     0
  9
$USERR1
 40
0.0
  9
$USERR2
 40
0.0
  9
$USERR3
 40
0.0
  9
$USERR4
 40
0.0
  9
$USERR5
 40
0.0
  9
$WORLDVIEW
 70
     1
  9
$SHADEDGE
 70
     3
  9
$SHADEDIF
 70
    70
  9
$TILEMODE
 70
     1
  9
$MAXACTVP
 70
    64
  9
$PINSBASE
 10
0.0
 20
0.0
 30
0.0
  9
$PLIMCHECK
 70
     0
  9
$PEXTMIN
 10
1.0000000000E+20
 20
1.0000000000E+20
 30
1.0000000000E+20
  9
$PEXTMAX
 10
-1.0000000000E+20
 20
-1.0000000000E+20
 30
-1.0000000000E+20
  9
$PLIMMIN
 10
0.0
 20
0.0
  9
$PLIMMAX
 10
420.0
 20
297.0
  9
$UNITMODE
 70
     0
  9
$VISRETAIN
 70
     1
  9
$PLINEGEN
 70
     0
  9
$PSLTSCALE
 70
     1
  9
$TREEDEPTH
 70
  3020
  9
$CMLSTYLE
  2
Standard
  9
$CMLJUST
 70
     0
  9
$CMLSCALE
 40
20.0
  9
$PROXYGRAPHICS
 70
     1
  9
$MEASUREMENT
 70
     1
  9
$CELWEIGHT
370
    -1
  9
$ENDCAPS
280
     0
  9
$JOINSTYLE
280
     0
  9
$LWDISPLAY
290
     1
  9
$INSUNITS
 70
     4
  9
$HYPERLINKBASE
  1

  9
$STYLESHEET
  1

  9
$XEDIT
290
     1
  9
$CEPSNTYPE
380
     0
  9
$PSTYLEMODE
290
     1
  9
$FINGERPRINTGUID
  2
{62219cd7-c23b-45be-8efe-c02306431b12}
  9
$VERSIONGUID
  2
{FAEB1C32-E019-11D5-929B-00C0DF256EC4}
  9
$EXTNAMES
290
     1
  9
$PSVPSCALE
 40
0.0
  9
$OLESTARTUP
290
     0
  0
ENDSEC
  0
SECTION
  2
CLASSES
  0
CLASS
  1
ACDBDICTIONARYWDFLT
  2
AcDbDictionaryWithDefault
  3
ObjectDBX Classes
 90
        0
280
     0
281
     0
  0
CLASS
  1
VISUALSTYLE
  2
AcDbVisualStyle
  3
ObjectDBX Classes
 90
     4095
280
     0
281
     0
  0
CLASS
  1
MATERIAL
  2
AcDbMaterial
  3
ObjectDBX Classes
 90
     1153
280
     0
281
     0
  0
CLASS
  1
SCALE
  2
AcDbScale
  3
ObjectDBX Classes
 90
     1153
280
     0
281
     0
  0
CLASS
  1
TABLESTYLE
  2
AcDbTableStyle
  3
ObjectDBX Classes
 90
     4095
280
     0
281
     0
  0
CLASS
  1
MLEADERSTYLE
  2
AcDbMLeaderStyle
  3
ACDB_MLEADERSTYLE_CLASS
 90
     4095
280
     0
281
     0
  0
CLASS
  1
SUN
  2
AcDbSun
  3
SCENEOE
 90
     1153
280
     0
281
     0
  0
CLASS
  1
ACDBPLACEHOLDER
  2
AcDbPlaceHolder
  3
ObjectDBX Classes
 90
        0
280
     0
281
     0
  0
CLASS
  1
LAYOUT
  2
AcDbLayout
  3
ObjectDBX Classes
 90
        0
280
     0
281
     0
  0
ENDSEC
  0
SECTION
  2
TABLES
  0
TABLE
  2
VPORT
  5
8
330
0
100
AcDbSymbolTable
 70
     1
  0
VPORT
  5
29
330
8
100
AcDbSymbolTableRecord
100
AcDbViewportTableRecord
  2
*Active
 70
     0
 10
0.0
 20
0.0
 11
1.0
 21
1.0
 12
57.0163598129
 22
500.0000000001
 13
0.0
 23
0.0
 14
10.0
 24
10.0
 15
10.0
 25
10.0
 16
0.0
 26
0.0
 36
1.0
 17
0.0
 27
0.0
 37
0.0
 40
1020.0000000002
 41
0.1140327196
 42
50.0
 43
0.0
 44
0.0
 50
0.0
 51
0.0
 71
     0
 72
   100
 73
     1
 74
     3
 75
     0
 76
     0
 77
     0
 78
     0
281
     0
 65
     1
110
0.0
120
0.0
130
0.0
111
1.0
121
0.0
131
0.0
112
0.0
122
1.0
132
0.0
 79
     0
146
0.0
  0
ENDTAB
  0
TABLE
  2
LTYPE
  5
5
330
0
100
AcDbSymbolTable
 70
     6
  0
LTYPE
  5
14
330
5
100
AcDbSymbolTableRecord
100
AcDbLinetypeTableRecord
  2
ByBlock
 70
     0
  3

 72
    65
 73
     0
 40
0.0
  0
LTYPE
  5
15
330
5
100
AcDbSymbolTableRecord
100
AcDbLinetypeTableRecord
  2
ByLayer
 70
     0
  3

 72
    65
 73
     0
 40
0.0
  0
LTYPE
  5
16
330
5
100
AcDbSymbolTableRecord
100
AcDbLinetypeTableRecord
  2
Continuous
 70
     0
  3
Solid line
 72
    65
 73
     0
 40
0.0
  0
LTYPE
  5
6E
330
5
100
AcDbSymbolTableRecord
100
AcDbLinetypeTableRecord
  2
HIDDEN
 70
     0
  3
Hidden __ __ __ __ __ __ __ __ __ __ __ __ __ __
 72
    65
 73
     2
 40
1.905
 49
1.27
 74
     0
 49
-0.635
 74
     0
  0
LTYPE
  5
6F
330
5
100
AcDbSymbolTableRecord
100
AcDbLinetypeTableRecord
  2
PHANTOM
 70
     0
  3
Phantom ______  __  __  ______  __  __  ______
 72
    65
 73
     6
 40
12.7
 49
6.35
 74
     0
 49
-1.27
 74
     0
 49
1.27
 74
     0
 49
-1.27
 74
     0
 49
1.27
 74
     0
 49
-1.27
 74
     0
  0
LTYPE
  5
70
330
5
100
AcDbSymbolTableRecord
100
AcDbLinetypeTableRecord
  2
CENTER
 70
     0
  3
Center ____ _ ____ _ ____ _ ____ _ ____ _ ____
 72
    65
 73
     4
 40
10.16
 49
6.35
 74
     0
 49
-1.27
 74
     0
 49
1.27
 74
     0
 49
-1.27
 74
     0
  0
LTYPE
  5
71
330
5
100
AcDbSymbolTableRecord
100
AcDbLinetypeTableRecord
  2
CENTERX2
 70
     0
  3
Center (2x) ________  __  ________  __  _____
 72
    65
 73
     4
 40
20.32
 49
12.7
 74
     0
 49
-2.54
 74
     0
 49
2.54
 74
     0
 49
-2.54
 74
     0
  0
LTYPE
  5
72
330
5
100
AcDbSymbolTableRecord
100
AcDbLinetypeTableRecord
  2
DOT2
 70
     0
  3
Dot (.5x) ........................................
 72
    65
 73
     2
 40
0.635
 49
0.0
 74
     0
 49
-0.635
 74
     0
  0
ENDTAB
  0
TABLE
  2
LAYER
  5
2
330
0
100
AcDbSymbolTable
 70
     1
  0
LAYER
  5
10
330
2
100
AcDbSymbolTableRecord
100
AcDbLayerTableRecord
  2
0
 70
     0
 62
     7
  6
Continuous
370
    -3
390
F
  0
ENDTAB
  0
TABLE
  2
STYLE
  5
3
330
0
100
AcDbSymbolTable
 70
     1
  0
STYLE
  5
11
330
3
100
AcDbSymbolTableRecord
100
AcDbTextStyleTableRecord
  2
Standard
 70
     0
 40
0.0
 41
1.0
 50
0.0
 71
     0
 42
3.5
  3
txt
  4

  0
ENDTAB
  0
TABLE
  2
VIEW
  5
6
330
0
100
AcDbSymbolTable
 70
     0
  0
ENDTAB
  0
TABLE
  2
UCS
  5
7
330
0
100
AcDbSymbolTable
 70
     0
  0
ENDTAB
  0
TABLE
  2
APPID
  5
9
330
0
100
AcDbSymbolTable
 70
     1
  0
APPID
  5
12
330
9
100
AcDbSymbolTableRecord
100
AcDbRegAppTableRecord
  2
ACAD
 70
     0
  0
ENDTAB
  0
TABLE
  2
DIMSTYLE
  5
A
330
0
100
AcDbSymbolTable
 70
     1
100
AcDbDimStyleTable
  0
DIMSTYLE
105
27
330
A
100
AcDbSymbolTableRecord
100
AcDbDimStyleTableRecord
  2
ISO-25
 70
     0
 41
2.5
 42
0.625
 43
3.75
 44
1.25
 73
     0
 74
     0
 77
     1
 78
     8
140
2.5
141
2.5
143
0.0393700787
147
0.625
171
     3
172
     1
178
     0
271
     2
272
     2
274
     3
278
    44
283
     0
284
     8
340
11
  0
ENDTAB
  0
TABLE
  2
BLOCK_RECORD
  5
1
330
0
100
AcDbSymbolTable
 70
     1
  0
BLOCK_RECORD
  5
1F
330
1
100
AcDbSymbolTableRecord
100
AcDbBlockTableRecord
  2
*Model_Space
340
22
  0
BLOCK_RECORD
  5
1B
330
1
100
AcDbSymbolTableRecord
100
AcDbBlockTableRecord
  2
*Paper_Space
340
1E
  0
BLOCK_RECORD
  5
23
330
1
100
AcDbSymbolTableRecord
100
AcDbBlockTableRecord
  2
*Paper_Space0
340
26
  0
ENDTAB
  0
ENDSEC
  0
SECTION
  2
BLOCKS
  0
BLOCK
  5
20
330
1F
100
AcDbEntity
  8
0
100
AcDbBlockBegin
  2
*Model_Space
 70
     0
 10
0.0
 20
0.0
 30
0.0
  3
*Model_Space
  1

  0
ENDBLK
  5
21
330
1F
100
AcDbEntity
  8
0
100
AcDbBlockEnd
  0
BLOCK
  5
1C
330
1B
100
AcDbEntity
 67
     1
  8
0
100
AcDbBlockBegin
  2
*Paper_Space
 70
     0
 10
0.0
 20
0.0
 30
0.0
  3
*Paper_Space
  1

  0
ENDBLK
  5
1D
330
1B
100
AcDbEntity
 67
     1
  8
0
100
AcDbBlockEnd
  0
BLOCK
  5
24
330
23
100
AcDbEntity
  8
0
100
AcDbBlockBegin
  2
*Paper_Space0
 70
     0
 10
0.0
 20
0.0
 30
0.0
  3
*Paper_Space0
  1

  0
ENDBLK
  5
25
330
23
100
AcDbEntity
  8
0
100
AcDbBlockEnd
  0
ENDSEC
  0
SECTION
  2
ENTITIES
  0
LINE
  5
73
330
1F
100
AcDbEntity
  8
0
  6
CENTERX2
 62
     7
100
AcDbLine
 10
23.4802136443
 20
0.0
 30
0.0
 11
23.4802136443
 21
1000.0
 31
0.0
  0
LINE
  5
74
330
1F
100
AcDbEntity
  8
0
  6
CENTERX2
 62
     7
100
AcDbLine
 10
94.6802865324
 20
1000.0
 30
0.0
 11
94.6802865324
 21
0.0
 31
0.0
  0
LINE
  5
75
330
1F
100
AcDbEntity
  8
0
  6
CENTERX2
 62
     7
100
AcDbLine
 10
78.5329433372
 20
999.9999999998
 30
0.0
 11
78.5329433372
 21
0.0000000002
 31
0.0
  0
LINE
  5
76
330
1F
100
AcDbEntity
  8
0
  6
CENTERX2
 62
     7
100
AcDbLine
 10
51.9936181157
 20
970.7868747415
 30
0.0
 11
51.9936181157
 21
888.0962758208
 31
0.0
  0
LINE
  5
77
330
1F
100
AcDbEntity
  8
0
  6
CENTERX2
 62
     7
100
AcDbLine
 10
51.9936181157
 20
1000.0
 30
0.0
 11
51.9936181157
 21
973.0962758302
 31
0.0
  0
LINE
  5
78
330
1F
100
AcDbEntity
  8
0
  6
CENTERX2
 62
     7
100
AcDbLine
 10
51.9936181157
 20
35.7868747443
 30
0.0
 11
51.9936181157
 21
0.0
 31
0.0
  0
LINE
  5
79
330
1F
100
AcDbEntity
  8
0
  6
CENTERX2
 62
     7
100
AcDbLine
 10
51.9936181157
 20
120.7868747442
 30
0.0
 11
51.9936181157
 21
38.0962758208
 31
0.0
  0
LINE
  5
7A
330
1F
100
AcDbEntity
  8
0
  6
CENTERX2
 62
     7
100
AcDbLine
 10
51.9936181157
 20
205.7868747442
 30
0.0
 11
51.9936181157
 21
123.0962758208
 31
0.0
  0
LINE
  5
7B
330
1F
100
AcDbEntity
  8
0
  6
CENTERX2
 62
     7
100
AcDbLine
 10
51.9936181157
 20
290.7868747442
 30
0.0
 11
51.9936181157
 21
208.0962758208
 31
0.0
  0
LINE
  5
7C
330
1F
100
AcDbEntity
  8
0
  6
CENTERX2
 62
     7
100
AcDbLine
 10
51.9936181157
 20
375.7868747442
 30
0.0
 11
51.9936181157
 21
293.0962758208
 31
0.0
  0
LINE
  5
7D
330
1F
100
AcDbEntity
  8
0
  6
CENTERX2
 62
     7
100
AcDbLine
 10
51.9936181157
 20
460.7868747442
 30
0.0
 11
51.9936181157
 21
378.0962758208
 31
0.0
  0
LINE
  5
7E
330
1F
100
AcDbEntity
  8
0
  6
CENTERX2
 62
     7
100
AcDbLine
 10
51.9936181157
 20
545.7868747442
 30
0.0
 11
51.9936181157
 21
463.0962758208
 31
0.0
  0
LINE
  5
7F
330
1F
100
AcDbEntity
  8
0
  6
CENTERX2
 62
     7
100
AcDbLine
 10
51.9936181157
 20
630.7868747442
 30
0.0
 11
51.9936181157
 21
548.0962758208
 31
0.0
  0
LINE
  5
80
330
1F
100
AcDbEntity
  8
0
  6
CENTERX2
 62
     7
100
AcDbLine
 10
51.9936181157
 20
715.7868747439
 30
0.0
 11
51.9936181157
 21
633.0962758207
 31
0.0
  0
LINE
  5
81
330
1F
100
AcDbEntity
  8
0
  6
CENTERX2
 62
     7
100
AcDbLine
 10
51.9936181157
 20
800.7868747439
 30
0.0
 11
51.9936181157
 21
718.0962758207
 31
0.0
  0
LINE
  5
82
330
1F
100
AcDbEntity
  8
0
  6
CENTERX2
 62
     7
100
AcDbLine
 10
51.9936181157
 20
885.7868747439
 30
0.0
 11
51.9936181157
 21
803.0962758207
 31
0.0
  0
SPLINE
  5
83
330
1F
100
AcDbEntity
  8
0
  6
Continuous
 62
     7
370
    25
100
AcDbSpline
210
0.0
220
0.0
230
1.0
 70
     8
 71
     3
 72
    22
 73
    18
 74
     0
 42
0.00000001
 43
0.00000001
 40
0.5
 40
0.5
 40
0.5
 40
0.5
 40
0.5625
 40
0.5625
 40
0.625
 40
0.625
 40
0.6875
 40
0.6875
 40
0.75
 40
0.75
 40
0.8125
 40
0.8125
 40
0.875
 40
0.875
 40
0.9375
 40
0.9375
 40
1.0
 40
1.0
 40
1.0
 40
1.0
 10
8.881700000000063
 20
970.0000000001603
 30
0.0
 10
8.881627279475238
 20
970.2974930198544
 30
0.0
 10
8.938997974661092
 20
970.5856920212938
 30
0.0
 10
9.166944129038137
 20
971.1363834246667
 30
0.0
 10
9.330042110696727
 20
971.3802196079603
 30
0.0
 10
9.75137737396388
 20
971.8017609077
 30
0.0
 10
9.995372328448896
 20
971.9646212712469
 30
0.0
 10
10.54595222590833
 20
972.1928366253735
 30
0.0
 10
10.83369813338471
 20
972.2499271552497
 30
0.0
 10
11.42970186661536
 20
972.2500728450701
 30
0.0
 10
11.71739202114493
 20
972.19270202555
 30
0.0
 10
12.26808342449799
 20
971.9647558710702
 30
0.0
 10
12.51191960796623
 20
971.8016578892369
 30
0.0
 10
12.93346090737331
 20
971.3803226264233
 30
0.0
 10
13.09624824691742
 20
971.1365038456538
 30
0.0
 10
13.32460964938349
 20
970.5855716003068
 30
0.0
 10
13.38170000000001
 20
970.2985590260334
 30
0.0
 10
13.38170000000001
 20
970.0000000001603
 30
0.0
  0
SPLINE
  5
84
330
1F
100
AcDbEntity
  8
0
  6
Continuous
 62
     7
370
    25
100
AcDbSpline
210
0.0
220
0.0
230
1.0
 70
     8
 71
     3
 72
    22
 73
    18
 74
     0
 42
0.00000001
 43
0.00000001
 40
0.0
 40
0.0
 40
0.0
 40
0.0
 40
0.0625
 40
0.0625
 40
0.125
 40
0.125
 40
0.1875
 40
0.1875
 40
0.25
 40
0.25
 40
0.3125
 40
0.3125
 40
0.375
 40
0.375
 40
0.4375
 40
0.4375
 40
0.5
 40
0.5
 40
0.5
 40
0.5
 10
13.38170000000001
 20
970.0000000001603
 30
0.0
 10
13.38170000000001
 20
969.7021988732286
 30
0.0
 10
13.32440202540293
 20
969.4143079791797
 30
0.0
 10
13.09645587089799
 20
968.8636165755
 30
0.0
 10
12.93335788945678
 20
968.6197803924232
 30
0.0
 10
12.51202262588276
 20
968.1982390925567
 30
0.0
 10
12.26802767155262
 20
968.0353787290741
 30
0.0
 10
11.7174477740903
 20
967.8071633749468
 30
0.0
 10
11.42970186661381
 20
967.7500728450705
 30
0.0
 10
10.83369813338626
 20
967.74992715525
 30
0.0
 10
10.54600797906165
 20
967.807297974684
 30
0.0
 10
9.995316575295579
 20
968.0352441293369
 30
0.0
 10
9.751480392118998
 20
968.1983421108765
 30
0.0
 10
9.32993909254161
 20
968.6196773741035
 30
0.0
 10
9.167078728913717
 20
968.8636723287865
 30
0.0
 10
8.938863374785514
 20
969.4142522258933
 30
0.0
 10
8.881773024168996
 20
969.7012648001668
 30
0.0
 10
8.881700000000063
 20
970.0000000001603
 30
0.0
  0
SPLINE
  5
85
330
1F
100
AcDbEntity
  8
0
  6
Continuous
 62
     7
370
    25
100
AcDbSpline
210
0.0
220
0.0
230
1.0
 70
     8
 71
     3
 72
    22
 73
    18
 74
     0
 42
0.00000001
 43
0.00000001
 40
0.5
 40
0.5
 40
0.5
 40
0.5
 40
0.5625
 40
0.5625
 40
0.625
 40
0.625
 40
0.6875
 40
0.6875
 40
0.75
 40
0.75
 40
0.8125
 40
0.8125
 40
0.875
 40
0.875
 40
0.9375
 40
0.9375
 40
1.0
 40
1.0
 40
1.0
 40
1.0
 10
8.881700000000063
 20
480.0000000001598
 30
0.0
 10
8.881627279475238
 20
480.2974930199881
 30
0.0
 10
8.93899797461846
 20
480.5856920212522
 30
0.0
 10
9.16694412908077
 20
481.1363834247095
 30
0.0
 10
9.330042110799866
 20
481.3802196080625
 30
0.0
 10
9.75137737386074
 20
481.8017609075973
 30
0.0
 10
9.99537232859378
 20
481.964621271246
 30
0.0
 10
10.54595222576345
 20
482.192836625374
 30
0.0
 10
10.83369813345798
 20
482.2499271552506
 30
0.0
 10
11.42970186654209
 20
482.2500728450693
 30
0.0
 10
11.71739202109297
 20
482.1927020255407
 30
0.0
 10
12.26808342454995
 20
481.9647558710792
 30
0.0
 10
12.51191960790239
 20
481.8016578893606
 30
0.0
 10
12.93346090743715
 20
481.3803226262993
 30
0.0
 10
13.09624824691742
 20
481.1365038456868
 30
0.0
 10
13.32460964938349
 20
480.5855716002749
 30
0.0
 10
13.38170000000001
 20
480.298559026001
 30
0.0
 10
13.38170000000001
 20
480.0000000001598
 30
0.0
  0
SPLINE
  5
86
330
1F
100
AcDbEntity
  8
0
  6
Continuous
 62
     7
370
    25
100
AcDbSpline
210
0.0
220
0.0
230
1.0
 70
     8
 71
     3
 72
    22
 73
    18
 74
     0
 42
0.00000001
 43
0.00000001
 40
0.0
 40
0.0
 40
0.0
 40
0.0
 40
0.0625
 40
0.0625
 40
0.125
 40
0.125
 40
0.1875
 40
0.1875
 40
0.25
 40
0.25
 40
0.3125
 40
0.3125
 40
0.375
 40
0.375
 40
0.4375
 40
0.4375
 40
0.5
 40
0.5
 40
0.5
 40
0.5
 10
13.38170000000001
 20
480.0000000001597
 30
0.0
 10
13.38170000000001
 20
479.7021988732466
 30
0.0
 10
13.3244020253603
 20
479.4143079790145
 30
0.0
 10
13.09645587094062
 20
478.8636165756612
 30
0.0
 10
12.9333578891488
 20
478.6197803922357
 30
0.0
 10
12.51202262619074
 20
478.1982390927438
 30
0.0
 10
12.26802767140629
 20
478.0353787290745
 30
0.0
 10
11.71744777423662
 20
477.8071633749452
 30
0.0
 10
11.42970186654209
 20
477.7500728450692
 30
0.0
 10
10.83369813345798
 20
477.7499271552505
 30
0.0
 10
10.5460079789071
 20
477.8072979747791
 30
0.0
 10
9.995316575450122
 20
478.0352441292406
 30
0.0
 10
9.751480392097681
 20
478.1983421109591
 30
0.0
 10
9.329939092562926
 20
478.6196773740205
 30
0.0
 10
9.167078728913717
 20
478.8636723287524
 30
0.0
 10
8.938863374785514
 20
479.4142522259233
 30
0.0
 10
8.881773024168996
 20
479.7012648001966
 30
0.0
 10
8.881700000000063
 20
480.0000000001597
 30
0.0
  0
SPLINE
  5
87
330
1F
100
AcDbEntity
  8
0
  6
Continuous
 62
     7
370
    25
100
AcDbSpline
210
0.0
220
0.0
230
1.0
 70
     8
 71
     3
 72
    22
 73
    18
 74
     0
 42
0.00000001
 43
0.00000001
 40
0.5
 40
0.5
 40
0.5
 40
0.5
 40
0.5625
 40
0.5625
 40
0.625
 40
0.625
 40
0.6875
 40
0.6875
 40
0.75
 40
0.75
 40
0.8125
 40
0.8125
 40
0.875
 40
0.875
 40
0.9375
 40
0.9375
 40
1.0
 40
1.0
 40
1.0
 40
1.0
 10
8.881700000000063
 20
55.00000000015981
 30
0.0
 10
8.881627279475238
 20
55.29749301992859
 30
0.0
 10
8.93899797461846
 20
55.58569202119279
 30
0.0
 10
9.16694412908077
 20
56.1363834247699
 30
0.0
 10
9.330042110594365
 20
56.38021960791639
 30
0.0
 10
9.751377374066243
 20
56.80176090774225
 30
0.0
 10
9.99537232844823
 20
56.9646212712458
 30
0.0
 10
10.545952225909
 20
57.19283662537422
 30
0.0
 10
10.83369813338549
 20
57.24992715525023
 30
0.0
 10
11.42970186661459
 20
57.25007284506955
 30
0.0
 10
11.71739202114437
 20
57.19270202555005
 30
0.0
 10
12.26808342449855
 20
56.9647558710702
 30
0.0
 10
12.51191960796634
 20
56.80165788923608
 30
0.0
 10
12.9334609073732
 20
56.38032262642323
 30
0.0
 10
13.09624824691742
 20
56.13650384565716
 30
0.0
 10
13.32460964938349
 20
55.58557160030553
 30
0.0
 10
13.38170000000001
 20
55.29855902603242
 30
0.0
 10
13.38170000000001
 20
55.00000000015981
 30
0.0
  0
SPLINE
  5
88
330
1F
100
AcDbEntity
  8
0
  6
Continuous
 62
     7
370
    25
100
AcDbSpline
210
0.0
220
0.0
230
1.0
 70
     8
 71
     3
 72
    22
 73
    18
 74
     0
 42
0.00000001
 43
0.00000001
 40
0.0
 40
0.0
 40
0.0
 40
0.0
 40
0.0625
 40
0.0625
 40
0.125
 40
0.125
 40
0.1875
 40
0.1875
 40
0.25
 40
0.25
 40
0.3125
 40
0.3125
 40
0.375
 40
0.375
 40
0.4375
 40
0.4375
 40
0.5
 40
0.5
 40
0.5
 40
0.5
 10
13.38170000000001
 20
55.00000000015981
 30
0.0
 10
13.38170000000001
 20
54.70219887330674
 30
0.0
 10
13.3244020253603
 20
54.41430797907532
 30
0.0
 10
13.09645587094062
 20
53.86361657560123
 30
0.0
 10
12.93335788935442
 20
53.61978039238168
 30
0.0
 10
12.51202262598512
 20
53.19823909259868
 30
0.0
 10
12.26802767155184
 20
53.03537872907383
 30
0.0
 10
11.71744777409108
 20
52.80716337494518
 30
0.0
 10
11.42970186661459
 20
52.75007284506961
 30
0.0
 10
10.83369813338549
 20
52.74992715525029
 30
0.0
 10
10.5460079789584
 20
52.80729797472694
 30
0.0
 10
9.99531657539883
 20
53.03524412929206
 30
0.0
 10
9.751480392076475
 20
53.19834211098118
 30
0.0
 10
9.32993909258413
 20
53.61967737399964
 30
0.0
 10
9.167078728913717
 20
53.86367232878353
 30
0.0
 10
8.938863374785514
 20
54.41425222589302
 30
0.0
 10
8.881773024168996
 20
54.70126480016702
 30
0.0
 10
8.881700000000063
 20
55.00000000015981
 30
0.0
  0
SPLINE
  5
89
330
1F
100
AcDbEntity
  8
0
  6
Continuous
 62
     7
370
    25
100
AcDbSpline
210
0.0
220
0.0
230
1.0
 70
     8
 71
     3
 72
    22
 73
    18
 74
     0
 42
0.00000001
 43
0.00000001
 40
0.5
 40
0.5
 40
0.5
 40
0.5
 40
0.5625
 40
0.5625
 40
0.625
 40
0.625
 40
0.6875
 40
0.6875
 40
0.75
 40
0.75
 40
0.8125
 40
0.8125
 40
0.875
 40
0.875
 40
0.9375
 40
0.9375
 40
1.0
 40
1.0
 40
1.0
 40
1.0
 10
86.53557620387748
 20
839.8723817204254
 30
0.0
 10
86.23808318465194
 20
839.8723089999
 30
0.0
 10
85.94988418252099
 20
839.929679695248
 30
0.0
 10
85.39919277959103
 20
840.1576258493016
 30
0.0
 10
85.15535659594794
 20
840.3207238313113
 30
0.0
 10
84.73381529646758
 20
840.7420590941983
 30
0.0
 10
84.57095493279871
 20
840.9860540489768
 30
0.0
 10
84.34273957865541
 20
841.5366339462236
 30
0.0
 10
84.28564904877952
 20
841.8243798538824
 30
0.0
 10
84.28550335897529
 20
842.4203835869686
 30
0.0
 10
84.34287417851556
 20
842.7080737415484
 30
0.0
 10
84.57082033293868
 20
843.2587651449417
 30
0.0
 10
84.73391831480045
 20
843.502601328439
 30
0.0
 10
85.15525357761518
 20
843.9241426277517
 30
0.0
 10
85.39907235849127
 20
844.0869299673421
 30
0.0
 10
85.95000460362097
 20
844.3152913698086
 30
0.0
 10
86.23701717789463
 20
844.3723817204252
 30
0.0
 10
86.53557620387748
 20
844.3723817204252
 30
0.0
  0
SPLINE
  5
8A
330
1F
100
AcDbEntity
  8
0
  6
Continuous
 62
     7
370
    25
100
AcDbSpline
210
0.0
220
0.0
230
1.0
 70
     8
 71
     3
 72
    22
 73
    18
 74
     0
 42
0.00000001
 43
0.00000001
 40
0.0
 40
0.0
 40
0.0
 40
0.0
 40
0.0625
 40
0.0625
 40
0.125
 40
0.125
 40
0.1875
 40
0.1875
 40
0.25
 40
0.25
 40
0.3125
 40
0.3125
 40
0.375
 40
0.375
 40
0.4375
 40
0.4375
 40
0.5
 40
0.5
 40
0.5
 40
0.5
 10
86.5355762038775
 20
844.3723817204252
 30
0.0
 10
86.83337733089732
 20
844.3723817204252
 30
0.0
 10
87.12126822502339
 20
844.3150837458089
 30
0.0
 10
87.67195962837444
 20
844.087137591342
 30
0.0
 10
87.91579581180582
 20
843.9240396095457
 30
0.0
 10
88.33733711128862
 20
843.502704346645
 30
0.0
 10
88.50019747495615
 20
843.2587093918685
 30
0.0
 10
88.72841282909955
 20
842.7081294946217
 30
0.0
 10
88.78550335897535
 20
842.4203835869723
 30
0.0
 10
88.78564904877958
 20
841.8243798538787
 30
0.0
 10
88.72827822923931
 20
841.5366896992936
 30
0.0
 10
88.50033207481651
 20
840.9859982959069
 30
0.0
 10
88.3372340929552
 20
840.7421621124145
 30
0.0
 10
87.91589883013935
 20
840.3206208130952
 30
0.0
 10
87.67190387514196
 20
840.1577604493377
 30
0.0
 10
87.12132397825586
 20
839.9295450952118
 30
0.0
 10
86.8343114039821
 20
839.8724547445951
 30
0.0
 10
86.5355762038775
 20
839.8723817204254
 30
0.0
  0
SPLINE
  5
8B
330
1F
100
AcDbEntity
  8
0
  6
Continuous
 62
     7
370
    25
100
AcDbSpline
210
0.0
220
0.0
230
1.0
 70
     8
 71
     3
 72
    22
 73
    18
 74
     0
 42
0.00000001
 43
0.00000001
 40
0.5
 40
0.5
 40
0.5
 40
0.5
 40
0.5625
 40
0.5625
 40
0.625
 40
0.625
 40
0.6875
 40
0.6875
 40
0.75
 40
0.75
 40
0.8125
 40
0.8125
 40
0.875
 40
0.875
 40
0.9375
 40
0.9375
 40
1.0
 40
1.0
 40
1.0
 40
1.0
 10
88.18157206184425
 20
976.4568165923204
 30
0.0
 10
87.88407904195546
 20
976.456743871795
 30
0.0
 10
87.59588004069381
 20
976.514114566937
 30
0.0
 10
87.04518863735184
 20
976.7420607214034
 30
0.0
 10
86.80135245382944
 20
976.9051587032894
 30
0.0
 10
86.37981115451971
 20
977.3264939660102
 30
0.0
 10
86.21695079076548
 20
977.570488921
 30
0.0
 10
85.98873543662229
 20
978.1210688180003
 30
0.0
 10
85.9316449067465
 20
978.4088147258934
 30
0.0
 10
85.93149921694217
 20
979.0048184587466
 30
0.0
 10
85.98887003656748
 20
979.2925086135299
 30
0.0
 10
86.2168161908203
 20
979.8432000167502
 30
0.0
 10
86.37991417256137
 20
980.0870362001273
 30
0.0
 10
86.80124943578778
 20
980.5085774998535
 30
0.0
 10
87.0450682161676
 20
980.6713648392365
 30
0.0
 10
87.59600046187816
 20
980.8997262417034
 30
0.0
 10
87.88301303615194
 20
980.9568165923201
 30
0.0
 10
88.18157206184425
 20
980.9568165923201
 30
0.0
  0
SPLINE
  5
8C
330
1F
100
AcDbEntity
  8
0
  6
Continuous
 62
     7
370
    25
100
AcDbSpline
210
0.0
220
0.0
230
1.0
 70
     8
 71
     3
 72
    22
 73
    18
 74
     0
 42
0.00000001
 43
0.00000001
 40
0.0
 40
0.0
 40
0.0
 40
0.0
 40
0.0625
 40
0.0625
 40
0.125
 40
0.125
 40
0.1875
 40
0.1875
 40
0.25
 40
0.25
 40
0.3125
 40
0.3125
 40
0.375
 40
0.375
 40
0.4375
 40
0.4375
 40
0.5
 40
0.5
 40
0.5
 40
0.5
 10
88.18157206184425
 20
980.9568165923201
 30
0.0
 10
88.47937318886419
 20
980.9568165923201
 30
0.0
 10
88.76726408299014
 20
980.899518617703
 30
0.0
 10
89.31795548634132
 20
980.6715724632368
 30
0.0
 10
89.56179166985785
 20
980.5084744813539
 30
0.0
 10
89.98333296917033
 20
980.0871392186268
 30
0.0
 10
90.14619333292313
 20
979.8431442636398
 30
0.0
 10
90.37440868706643
 20
979.2925643666402
 30
0.0
 10
90.43149921694224
 20
979.0048184587466
 30
0.0
 10
90.43164490674646
 20
978.4088147258934
 30
0.0
 10
90.37427408712102
 20
978.1211245711099
 30
0.0
 10
90.14632793286832
 20
977.5704331678903
 30
0.0
 10
89.98322995112724
 20
977.3265969845129
 30
0.0
 10
89.56189468790073
 20
976.9050556847867
 30
0.0
 10
89.31789973339994
 20
976.7421953212336
 30
0.0
 10
88.76731983593163
 20
976.5139799671068
 30
0.0
 10
88.48030726165786
 20
976.4568896164899
 30
0.0
 10
88.18157206184425
 20
976.4568165923204
 30
0.0
  0
SPLINE
  5
8D
330
1F
100
AcDbEntity
  8
0
  6
Continuous
 62
     7
370
    25
100
AcDbSpline
210
0.0
220
0.0
230
1.0
 70
     8
 71
     3
 72
    22
 73
    18
 74
     0
 42
0.00000001
 43
0.00000001
 40
0.5
 40
0.5
 40
0.5
 40
0.5
 40
0.5625
 40
0.5625
 40
0.625
 40
0.625
 40
0.6875
 40
0.6875
 40
0.75
 40
0.75
 40
0.8125
 40
0.8125
 40
0.875
 40
0.875
 40
0.9375
 40
0.9375
 40
1.0
 40
1.0
 40
1.0
 40
1.0
 10
88.18157206227436
 20
990.0802389027604
 30
0.0
 10
87.88407904238555
 20
990.0801661822348
 30
0.0
 10
87.5958800411238
 20
990.1375368773768
 30
0.0
 10
87.04518863778195
 20
990.3654830318435
 30
0.0
 10
86.80135245425942
 20
990.5285810137301
 30
0.0
 10
86.37981115494982
 20
990.9499162764502
 30
0.0
 10
86.21695079119559
 20
991.1939112314399
 30
0.0
 10
85.9887354370524
 20
991.7444911284401
 30
0.0
 10
85.93164490717638
 20
992.0322370363331
 30
0.0
 10
85.93149921737226
 20
992.6282407691868
 30
0.0
 10
85.98887003699758
 20
992.9159309239706
 30
0.0
 10
86.21681619125029
 20
993.4666223271902
 30
0.0
 10
86.37991417299125
 20
993.7104585105664
 30
0.0
 10
86.80124943621787
 20
994.1319998102932
 30
0.0
 10
87.04506821659758
 20
994.2947871496764
 30
0.0
 10
87.59600046230804
 20
994.5231485521433
 30
0.0
 10
87.88301303658204
 20
994.58023890276
 30
0.0
 10
88.18157206227436
 20
994.58023890276
 30
0.0
  0
SPLINE
  5
8E
330
1F
100
AcDbEntity
  8
0
  6
Continuous
 62
     7
370
    25
100
AcDbSpline
210
0.0
220
0.0
230
1.0
 70
     8
 71
     3
 72
    22
 73
    18
 74
     0
 42
0.00000001
 43
0.00000001
 40
0.0
 40
0.0
 40
0.0
 40
0.0
 40
0.0625
 40
0.0625
 40
0.125
 40
0.125
 40
0.1875
 40
0.1875
 40
0.25
 40
0.25
 40
0.3125
 40
0.3125
 40
0.375
 40
0.375
 40
0.4375
 40
0.4375
 40
0.5
 40
0.5
 40
0.5
 40
0.5
 10
88.18157206227434
 20
994.58023890276
 30
0.0
 10
88.47937318929407
 20
994.58023890276
 30
0.0
 10
88.76726408342024
 20
994.5229409281429
 30
0.0
 10
89.31795548677131
 20
994.2949947736766
 30
0.0
 10
89.56179167028772
 20
994.1318967917928
 30
0.0
 10
89.98333296960021
 20
993.7105615290668
 30
0.0
 10
90.14619333335301
 20
993.4665665740805
 30
0.0
 10
90.3744086874963
 20
992.9159866770802
 30
0.0
 10
90.43149921737222
 20
992.6282407691865
 30
0.0
 10
90.43164490717643
 20
992.0322370363334
 30
0.0
 10
90.374274087551
 20
991.7445468815498
 30
0.0
 10
90.14632793329831
 20
991.1938554783302
 30
0.0
 10
89.98322995155735
 20
990.9500192949536
 30
0.0
 10
89.5618946883307
 20
990.5284779952267
 30
0.0
 10
89.31789973382982
 20
990.3656176316734
 30
0.0
 10
88.76731983636162
 20
990.1374022775468
 30
0.0
 10
88.48030726208773
 20
990.0803119269298
 30
0.0
 10
88.18157206227434
 20
990.0802389027604
 30
0.0
  0
SPLINE
  5
8F
330
1F
100
AcDbEntity
  8
0
  6
Continuous
 62
     7
370
    25
100
AcDbSpline
210
0.0
220
0.0
230
1.0
 70
     8
 71
     3
 72
    22
 73
    18
 74
     0
 42
0.00000001
 43
0.00000001
 40
0.0
 40
0.0
 40
0.0
 40
0.0
 40
0.0625
 40
0.0625
 40
0.125
 40
0.125
 40
0.1875
 40
0.1875
 40
0.25
 40
0.25
 40
0.3125
 40
0.3125
 40
0.375
 40
0.375
 40
0.4375
 40
0.4375
 40
0.5
 40
0.5
 40
0.5
 40
0.5
 10
88.18157206222439
 20
9.919761097699986
 30
0.0
 10
88.47937318932149
 20
9.919761097699986
 30
0.0
 10
88.76726408326759
 20
9.86246312312744
 30
0.0
 10
89.31795548682416
 20
9.634516968572981
 30
0.0
 10
89.56179167010998
 20
9.471418986920499
 30
0.0
 10
89.98333296967816
 20
9.050083723818547
 30
0.0
 10
90.14619333330305
 20
8.806088769144349
 30
0.0
 10
90.37440868744635
 20
8.25550887189852
 30
0.0
 10
90.43149921732237
 20
7.967762964245395
 30
0.0
 10
90.43164490712648
 20
7.371759231154407
 30
0.0
 10
90.37427408762873
 20
7.084069076676691
 30
0.0
 10
90.14632793312079
 20
6.533377673080043
 30
0.0
 10
89.9832299516102
 20
6.289541489936434
 30
0.0
 10
89.56189468817794
 20
5.868000190124123
 30
0.0
 10
89.31789973377997
 20
5.705139826613914
 30
0.0
 10
88.76731983631166
 20
5.476924472485267
 30
0.0
 10
88.48030726203788
 20
5.41983412186875
 30
0.0
 10
88.18157206222439
 20
5.419761097699816
 30
0.0
  0
SPLINE
  5
90
330
1F
100
AcDbEntity
  8
0
  6
Continuous
 62
     7
370
    25
100
AcDbSpline
210
0.0
220
0.0
230
1.0
 70
     8
 71
     3
 72
    22
 73
    18
 74
     0
 42
0.00000001
 43
0.00000001
 40
0.5
 40
0.5
 40
0.5
 40
0.5
 40
0.5625
 40
0.5625
 40
0.625
 40
0.625
 40
0.6875
 40
0.6875
 40
0.75
 40
0.75
 40
0.8125
 40
0.8125
 40
0.875
 40
0.875
 40
0.9375
 40
0.9375
 40
1.0
 40
1.0
 40
1.0
 40
1.0
 10
88.18157206222439
 20
5.419761097699816
 30
0.0
 10
87.88407904225843
 20
5.419688377174881
 30
0.0
 10
87.59588004117664
 20
5.477059072275026
 30
0.0
 10
87.04518863762918
 20
5.705005226824156
 30
0.0
 10
86.80135245433748
 20
5.868103208482633
 30
0.0
 10
86.37981115477174
 20
6.289438471577924
 30
0.0
 10
86.21695079114573
 20
6.533433426255453
 30
0.0
 10
85.98873543700243
 20
7.084013323501281
 30
0.0
 10
85.93164490712653
 20
7.371759231154407
 30
0.0
 10
85.93149921732231
 20
7.967762964245395
 30
0.0
 10
85.98887003681995
 20
8.25545311872311
 30
0.0
 10
86.216816191328
 20
8.806144522319759
 30
0.0
 10
86.3799141728386
 20
9.049980705463367
 30
0.0
 10
86.80124943627084
 20
9.471522005275679
 30
0.0
 10
87.04506821654763
 20
9.634309344616954
 30
0.0
 10
87.5960004622582
 20
9.862670747083468
 30
0.0
 10
87.88301303653208
 20
9.919761097699986
 30
0.0
 10
88.18157206222439
 20
9.919761097699986
 30
0.0
  0
SPLINE
  5
91
330
1F
100
AcDbEntity
  8
0
  6
Continuous
 62
     7
370
    25
100
AcDbSpline
210
0.0
220
0.0
230
1.0
 70
     8
 71
     3
 72
    22
 73
    18
 74
     0
 42
0.00000001
 43
0.00000001
 40
0.5
 40
0.5
 40
0.5
 40
0.5
 40
0.5625
 40
0.5625
 40
0.625
 40
0.625
 40
0.6875
 40
0.6875
 40
0.75
 40
0.75
 40
0.8125
 40
0.8125
 40
0.875
 40
0.875
 40
0.9375
 40
0.9375
 40
1.0
 40
1.0
 40
1.0
 40
1.0
 10
88.18157206166451
 20
19.04318340812971
 30
0.0
 10
87.88407904169856
 20
19.04311068760478
 30
0.0
 10
87.59588004061665
 20
19.10048138270493
 30
0.0
 10
87.04518863706919
 20
19.32842753725406
 30
0.0
 10
86.80135245377747
 20
19.49152551891253
 30
0.0
 10
86.37981115421185
 20
19.91286078200783
 30
0.0
 10
86.21695079058574
 20
20.15685573668535
 30
0.0
 10
85.98873543644233
 20
20.70743563393118
 30
0.0
 10
85.93164490656655
 20
20.99518154158431
 30
0.0
 10
85.93149921676222
 20
21.5911852746753
 30
0.0
 10
85.98887003626005
 20
21.87887542915301
 30
0.0
 10
86.216816190768
 20
22.42956683274966
 30
0.0
 10
86.37991417227849
 20
22.67340301589327
 30
0.0
 10
86.80124943571084
 20
23.09494431570536
 30
0.0
 10
87.04506821598774
 20
23.25773165504685
 30
0.0
 10
87.5960004616981
 20
23.48609305751337
 30
0.0
 10
87.88301303597208
 20
23.54318340812988
 30
0.0
 10
88.18157206166451
 20
23.54318340812988
 30
0.0
  0
SPLINE
  5
92
330
1F
100
AcDbEntity
  8
0
  6
Continuous
 62
     7
370
    25
100
AcDbSpline
210
0.0
220
0.0
230
1.0
 70
     8
 71
     3
 72
    22
 73
    18
 74
     0
 42
0.00000001
 43
0.00000001
 40
0.0
 40
0.0
 40
0.0
 40
0.0
 40
0.0625
 40
0.0625
 40
0.125
 40
0.125
 40
0.1875
 40
0.1875
 40
0.25
 40
0.25
 40
0.3125
 40
0.3125
 40
0.375
 40
0.375
 40
0.4375
 40
0.4375
 40
0.5
 40
0.5
 40
0.5
 40
0.5
 10
88.18157206166451
 20
23.54318340812988
 30
0.0
 10
88.47937318876139
 20
23.54318340812988
 30
0.0
 10
88.76726408270758
 20
23.48588543355734
 30
0.0
 10
89.31795548626415
 20
23.25793927900288
 30
0.0
 10
89.5617916695501
 20
23.0948412973504
 30
0.0
 10
89.98333296911827
 20
22.67350603424845
 30
0.0
 10
90.14619333274317
 20
22.42951107957425
 30
0.0
 10
90.37440868688658
 20
21.87893118232842
 30
0.0
 10
90.43149921676238
 20
21.5911852746753
 30
0.0
 10
90.43164490656659
 20
20.99518154158431
 30
0.0
 10
90.37427408706873
 20
20.70749138710659
 30
0.0
 10
90.14632793256091
 20
20.15679998350994
 30
0.0
 10
89.9832299510503
 20
19.91296380036633
 30
0.0
 10
89.56189468761795
 20
19.49142250055402
 30
0.0
 10
89.3178997332202
 20
19.32856213704381
 30
0.0
 10
88.76731983575178
 20
19.10034678291517
 30
0.0
 10
88.48030726147789
 20
19.04325643229865
 30
0.0
 10
88.18157206166451
 20
19.04318340812971
 30
0.0
  0
SPLINE
  5
93
330
1F
100
AcDbEntity
  8
0
  6
Continuous
 62
     7
370
    25
100
AcDbSpline
210
0.0
220
0.0
230
1.0
 70
     8
 71
     3
 72
    22
 73
    18
 74
     0
 42
0.00000001
 43
0.00000001
 40
0.5
 40
0.5
 40
0.5
 40
0.5
 40
0.5625
 40
0.5625
 40
0.625
 40
0.625
 40
0.6875
 40
0.6875
 40
0.75
 40
0.75
 40
0.8125
 40
0.8125
 40
0.875
 40
0.875
 40
0.9375
 40
0.9375
 40
1.0
 40
1.0
 40
1.0
 40
1.0
 10
86.53557620387427
 20
49.87238172041963
 30
0.0
 10
86.23808318390832
 20
49.8723089998947
 30
0.0
 10
85.94988418282641
 20
49.92967969499485
 30
0.0
 10
85.39919277927906
 20
50.15762584954398
 30
0.0
 10
85.15535659598723
 20
50.32072383120245
 30
0.0
 10
84.73381529642161
 20
50.74205909429774
 30
0.0
 10
84.57095493279562
 20
50.98605404897527
 30
0.0
 10
84.3427395786522
 20
51.5366339462211
 30
0.0
 10
84.2856490487764
 20
51.82437985387423
 30
0.0
 10
84.28550335897208
 20
52.42038358696522
 30
0.0
 10
84.34287417846983
 20
52.70807374144315
 30
0.0
 10
84.57082033297776
 20
53.25876514503936
 30
0.0
 10
84.73391831448846
 20
53.50260132818319
 30
0.0
 10
85.1552535779206
 20
53.92414262799549
 30
0.0
 10
85.3990723581974
 20
54.08692996733699
 30
0.0
 10
85.95000460390796
 20
54.31529136980306
 30
0.0
 10
86.23701717818184
 20
54.3723817204198
 30
0.0
 10
86.53557620387427
 20
54.3723817204198
 30
0.0
  0
SPLINE
  5
94
330
1F
100
AcDbEntity
  8
0
  6
Continuous
 62
     7
370
    25
100
AcDbSpline
210
0.0
220
0.0
230
1.0
 70
     8
 71
     3
 72
    22
 73
    18
 74
     0
 42
0.00000001
 43
0.00000001
 40
0.0
 40
0.0
 40
0.0
 40
0.0
 40
0.0625
 40
0.0625
 40
0.125
 40
0.125
 40
0.1875
 40
0.1875
 40
0.25
 40
0.25
 40
0.3125
 40
0.3125
 40
0.375
 40
0.375
 40
0.4375
 40
0.4375
 40
0.5
 40
0.5
 40
0.5
 40
0.5
 10
86.53557620387427
 20
54.3723817204198
 30
0.0
 10
86.83337733097115
 20
54.3723817204198
 30
0.0
 10
87.12126822491734
 20
54.31508374584726
 30
0.0
 10
87.67195962847391
 20
54.0871375912928
 30
0.0
 10
87.91579581175986
 20
53.92403960964032
 30
0.0
 10
88.33733711132793
 20
53.50270434653837
 30
0.0
 10
88.50019747495293
 20
53.25870939186417
 30
0.0
 10
88.72841282909623
 20
52.70812949461834
 30
0.0
 10
88.78550335897214
 20
52.42038358696522
 30
0.0
 10
88.78564904877635
 20
51.82437985387423
 30
0.0
 10
88.7282782292786
 20
51.53668969939629
 30
0.0
 10
88.50033207477067
 20
50.98599829580009
 30
0.0
 10
88.33723409326007
 20
50.74216211265625
 30
0.0
 10
87.91589882982771
 20
50.32062081284394
 30
0.0
 10
87.67190387542985
 20
50.15776044933374
 30
0.0
 10
87.12132397796142
 20
49.92954509520509
 30
0.0
 10
86.83431140368765
 20
49.87245474458857
 30
0.0
 10
86.53557620387427
 20
49.87238172041963
 30
0.0
  0
SPLINE
  5
95
330
1F
100
AcDbEntity
  8
0
  6
Continuous
 62
     7
370
    25
100
AcDbSpline
210
0.0
220
0.0
230
1.0
 70
     8
 71
     3
 72
    22
 73
    18
 74
     0
 42
0.00000001
 43
0.00000001
 40
0.5
 40
0.5
 40
0.5
 40
0.5
 40
0.5625
 40
0.5625
 40
0.625
 40
0.625
 40
0.6875
 40
0.6875
 40
0.75
 40
0.75
 40
0.8125
 40
0.8125
 40
0.875
 40
0.875
 40
0.9375
 40
0.9375
 40
1.0
 40
1.0
 40
1.0
 40
1.0
 10
86.53557620387149
 20
299.8723817204199
 30
0.0
 10
86.23808318407096
 20
299.8723089998949
 30
0.0
 10
85.94988418277245
 20
299.9296796950463
 30
0.0
 10
85.39919277932769
 20
300.1576258494924
 30
0.0
 10
85.15535659600577
 20
300.3207238311809
 30
0.0
 10
84.73381529639775
 20
300.7420590943188
 30
0.0
 10
84.57095493279283
 20
300.9860540489454
 30
0.0
 10
84.34273957864953
 20
301.5366339462514
 30
0.0
 10
84.28564904877364
 20
301.8243798538143
 30
0.0
 10
84.28550335896941
 20
302.4203835870256
 30
0.0
 10
84.34287417846716
 20
302.7080737415033
 30
0.0
 10
84.5708203329751
 20
303.2587651449794
 30
0.0
 10
84.7339183146912
 20
303.5026013283286
 30
0.0
 10
85.15525357771233
 20
303.9241426278501
 30
0.0
 10
85.39907235834039
 20
304.0869299673373
 30
0.0
 10
85.95000460375975
 20
304.3152913698034
 30
0.0
 10
86.23701717803351
 20
304.3723817204199
 30
0.0
 10
86.53557620387149
 20
304.3723817204199
 30
0.0
  0
SPLINE
  5
96
330
1F
100
AcDbEntity
  8
0
  6
Continuous
 62
     7
370
    25
100
AcDbSpline
210
0.0
220
0.0
230
1.0
 70
     8
 71
     3
 72
    22
 73
    18
 74
     0
 42
0.00000001
 43
0.00000001
 40
0.0
 40
0.0
 40
0.0
 40
0.0
 40
0.0625
 40
0.0625
 40
0.125
 40
0.125
 40
0.1875
 40
0.1875
 40
0.25
 40
0.25
 40
0.3125
 40
0.3125
 40
0.375
 40
0.375
 40
0.4375
 40
0.4375
 40
0.5
 40
0.5
 40
0.5
 40
0.5
 10
86.53557620387149
 20
304.3723817204199
 30
0.0
 10
86.83337733076442
 20
304.3723817204199
 30
0.0
 10
87.1212682250176
 20
304.315083745775
 30
0.0
 10
87.67195962836834
 20
304.0871375913658
 30
0.0
 10
87.91579581175718
 20
303.9240396096101
 30
0.0
 10
88.33733711132537
 20
303.5027043465688
 30
0.0
 10
88.50019747495016
 20
303.2587093918948
 30
0.0
 10
88.72841282909357
 20
302.708129494588
 30
0.0
 10
88.78550335896935
 20
302.4203835870256
 30
0.0
 10
88.78564904877358
 20
301.8243798538143
 30
0.0
 10
88.72827822927583
 20
301.5366896993365
 30
0.0
 10
88.50033207476788
 20
300.9859982958605
 30
0.0
 10
88.33723409305179
 20
300.7421621125106
 30
0.0
 10
87.91589883003064
 20
300.3206208129894
 30
0.0
 10
87.67190387528153
 20
300.1577604493334
 30
0.0
 10
87.12132397810441
 20
299.9295450952054
 30
0.0
 10
86.83431140383054
 20
299.8724547445889
 30
0.0
 10
86.53557620387149
 20
299.8723817204199
 30
0.0
  0
SPLINE
  5
97
330
1F
100
AcDbEntity
  8
0
  6
Continuous
 62
     7
370
    25
100
AcDbSpline
210
0.0
220
0.0
230
1.0
 70
     8
 71
     3
 72
    22
 73
    18
 74
     0
 42
0.00000001
 43
0.00000001
 40
0.5
 40
0.5
 40
0.5
 40
0.5
 40
0.5625
 40
0.5625
 40
0.625
 40
0.625
 40
0.6875
 40
0.6875
 40
0.75
 40
0.75
 40
0.8125
 40
0.8125
 40
0.875
 40
0.875
 40
0.9375
 40
0.9375
 40
1.0
 40
1.0
 40
1.0
 40
1.0
 10
86.5355762038725
 20
549.8723817204199
 30
0.0
 10
86.23808318407195
 20
549.8723089998954
 30
0.0
 10
85.94988418277346
 20
549.9296796950474
 30
0.0
 10
85.39919277932869
 20
550.1576258494925
 30
0.0
 10
85.15535659600677
 20
550.3207238311805
 30
0.0
 10
84.73381529639863
 20
550.7420590943192
 30
0.0
 10
84.57095493279384
 20
550.9860540489461
 30
0.0
 10
84.34273957865054
 20
551.5366339462515
 30
0.0
 10
84.28564904877452
 20
551.8243798538139
 30
0.0
 10
84.28550335897052
 20
552.4203835870259
 30
0.0
 10
84.34287417846805
 20
552.7080737415023
 30
0.0
 10
84.5708203329761
 20
553.2587651449795
 30
0.0
 10
84.73391831469219
 20
553.5026013283291
 30
0.0
 10
85.15525357771332
 20
553.9241426278505
 30
0.0
 10
85.39907235834139
 20
554.0869299673367
 30
0.0
 10
85.95000460376075
 20
554.3152913698032
 30
0.0
 10
86.23701717803452
 20
554.3723817204198
 30
0.0
 10
86.5355762038725
 20
554.3723817204198
 30
0.0
  0
SPLINE
  5
98
330
1F
100
AcDbEntity
  8
0
  6
Continuous
 62
     7
370
    25
100
AcDbSpline
210
0.0
220
0.0
230
1.0
 70
     8
 71
     3
 72
    22
 73
    18
 74
     0
 42
0.00000001
 43
0.00000001
 40
0.0
 40
0.0
 40
0.0
 40
0.0
 40
0.0625
 40
0.0625
 40
0.125
 40
0.125
 40
0.1875
 40
0.1875
 40
0.25
 40
0.25
 40
0.3125
 40
0.3125
 40
0.375
 40
0.375
 40
0.4375
 40
0.4375
 40
0.5
 40
0.5
 40
0.5
 40
0.5
 10
86.5355762038725
 20
554.3723817204198
 30
0.0
 10
86.83337733076542
 20
554.3723817204198
 30
0.0
 10
87.1212682250185
 20
554.315083745774
 30
0.0
 10
87.67195962836934
 20
554.0871375913658
 30
0.0
 10
87.91579581175819
 20
553.9240396096104
 30
0.0
 10
88.33733711132636
 20
553.5027043465691
 30
0.0
 10
88.50019747495126
 20
553.2587093918937
 30
0.0
 10
88.72841282909457
 20
552.7081294945881
 30
0.0
 10
88.78550335897036
 20
552.4203835870252
 30
0.0
 10
88.78564904877469
 20
551.8243798538145
 30
0.0
 10
88.72827822927694
 20
551.5366896993376
 30
0.0
 10
88.50033207476899
 20
550.9859982958601
 30
0.0
 10
88.33723409305279
 20
550.7421621125105
 30
0.0
 10
87.91589883003167
 20
550.3206208129893
 30
0.0
 10
87.67190387528252
 20
550.1577604493347
 30
0.0
 10
87.12132397810542
 20
549.9295450952053
 30
0.0
 10
86.83431140383153
 20
549.8724547445885
 30
0.0
 10
86.5355762038725
 20
549.8723817204199
 30
0.0
  0
LINE
  5
101
330
1F
100
AcDbEntity
  8
0
  6
Continuous
 62
     7
370
    25
100
AcDbLine
 10
52.6004494112
 20
885.3363138247
 30
0.0
 11
77.3992396366
 21
879.0589340149
 31
0.0
  0
LINE
  5
102
330
1F
100
AcDbEntity
  8
0
  6
Continuous
 62
     7
370
    25
100
AcDbLine
 10
77.3992396366
 20
879.0589340149
 30
0.0
 11
77.3992396366
 21
881.3683350912
 31
0.0
  0
LINE
  5
103
330
1F
100
AcDbEntity
  8
0
  6
Continuous
 62
     7
370
    25
100
AcDbLine
 10
77.3992396366
 20
881.3683350912
 30
0.0
 11
52.6004494149
 21
887.6457149004
 31
0.0
  0
LINE
  5
104
330
1F
100
AcDbEntity
  8
0
  6
Continuous
 62
     7
370
    25
100
AcDbLine
 10
51.3867868171
 20
888.5468367407
 30
0.0
 11
52.6004494149
 21
887.6457149004
 31
0.0
  0
LINE
  5
105
330
1F
100
AcDbEntity
  8
0
  6
Continuous
 62
     7
370
    25
100
AcDbLine
 10
51.3867868171
 20
888.5468367407
 30
0.0
 11
27.2336272891
 21
902.4916698962
 31
0.0
  0
LINE
  5
106
330
1F
100
AcDbEntity
  8
0
  6
Continuous
 62
     7
370
    25
100
AcDbLine
 10
27.2336272891
 20
902.4916698962
 30
0.0
 11
27.2336272891
 21
900.1822688192
 31
0.0
  0
LINE
  5
107
330
1F
100
AcDbEntity
  8
0
  6
Continuous
 62
     7
370
    25
100
AcDbLine
 10
27.2336272891
 20
900.1822688192
 30
0.0
 11
51.3867868171
 21
886.2374356641
 31
0.0
  0
LINE
  5
108
330
1F
100
AcDbEntity
  8
0
  6
Continuous
 62
     7
370
    25
100
AcDbLine
 10
52.6004494112
 20
885.3363138247
 30
0.0
 11
51.3867868171
 21
886.2374356641
 31
0.0
  0
LINE
  5
109
330
1F
100
AcDbEntity
  8
0
  6
Continuous
 62
     7
370
    25
100
AcDbLine
 10
27.2336272891
 20
985.1822688192
 30
0.0
 11
27.2336272891
 21
987.4916698962
 31
0.0
  0
LINE
  5
10A
330
1F
100
AcDbEntity
  8
0
  6
Continuous
 62
     7
370
    25
100
AcDbLine
 10
51.3867868171
 20
971.2374356425
 30
0.0
 11
27.2336272891
 21
985.1822688192
 31
0.0
  0
LINE
  5
10B
330
1F
100
AcDbEntity
  8
0
  6
Continuous
 62
     7
370
    25
100
AcDbLine
 10
52.6004494149
 20
970.336313828
 30
0.0
 11
51.3867868171
 21
971.2374356425
 31
0.0
  0
LINE
  5
10C
330
1F
100
AcDbEntity
  8
0
  6
Continuous
 62
     7
370
    25
100
AcDbLine
 10
77.3992396363
 20
964.0589340149
 30
0.0
 11
52.6004494149
 21
970.336313828
 31
0.0
  0
LINE
  5
10D
330
1F
100
AcDbEntity
  8
0
  6
Continuous
 62
     7
370
    25
100
AcDbLine
 10
77.3992396363
 20
966.3683350912
 30
0.0
 11
77.3992396363
 21
964.0589340149
 31
0.0
  0
LINE
  5
10E
330
1F
100
AcDbEntity
  8
0
  6
Continuous
 62
     7
370
    25
100
AcDbLine
 10
52.6004494152
 20
972.6457149084
 30
0.0
 11
77.3992396363
 21
966.3683350912
 31
0.0
  0
LINE
  5
10F
330
1F
100
AcDbEntity
  8
0
  6
Continuous
 62
     7
370
    25
100
AcDbLine
 10
51.3867868171
 20
973.5468367407
 30
0.0
 11
52.6004494152
 21
972.6457149084
 31
0.0
  0
LINE
  5
110
330
1F
100
AcDbEntity
  8
0
  6
Continuous
 62
     7
370
    25
100
AcDbLine
 10
27.2336272891
 20
987.4916698962
 30
0.0
 11
51.3867868171
 21
973.5468367407
 31
0.0
  0
LINE
  5
111
330
1F
100
AcDbEntity
  8
0
  6
Continuous
 62
     7
370
    25
100
AcDbLine
 10
0.0
 20
1000.0000000002
 30
0.0
 11
0.0
 21
0.0000000002
 31
0.0
  0
LINE
  5
112
330
1F
100
AcDbEntity
  8
0
  6
Continuous
 62
     7
370
    25
100
AcDbLine
 10
114.0327196257
 20
1000.0000000002
 30
0.0
 11
0.0
 21
1000.0000000002
 31
0.0
  0
LINE
  5
113
330
1F
100
AcDbEntity
  8
0
  6
Continuous
 62
     7
370
    25
100
AcDbLine
 10
114.0327196257
 20
0.0000000002
 30
0.0
 11
114.0327196257
 21
1000.0000000002
 31
0.0
  0
LINE
  5
114
330
1F
100
AcDbEntity
  8
0
  6
Continuous
 62
     7
370
    25
100
AcDbLine
 10
0.0
 20
0.0000000002
 30
0.0
 11
114.0327196257
 21
0.0000000002
 31
0.0
  0
LINE
  5
115
330
1F
100
AcDbEntity
  8
0
  6
Continuous
 62
     7
370
    25
100
AcDbLine
 10
27.2336272892
 20
52.4916698962
 30
0.0
 11
27.2336272892
 21
50.1822688192
 31
0.0
  0
LINE
  5
116
330
1F
100
AcDbEntity
  8
0
  6
Continuous
 62
     7
370
    25
100
AcDbLine
 10
27.2336272892
 20
50.1822688192
 30
0.0
 11
51.3867868171
 21
36.2374356641
 31
0.0
  0
LINE
  5
117
330
1F
100
AcDbEntity
  8
0
  6
Continuous
 62
     7
370
    25
100
AcDbLine
 10
52.6004494149
 20
35.3363138237
 30
0.0
 11
51.3867868171
 21
36.2374356641
 31
0.0
  0
LINE
  5
118
330
1F
100
AcDbEntity
  8
0
  6
Continuous
 62
     7
370
    25
100
AcDbLine
 10
52.6004494149
 20
35.3363138237
 30
0.0
 11
77.3992396366
 21
29.0589340149
 31
0.0
  0
LINE
  5
119
330
1F
100
AcDbEntity
  8
0
  6
Continuous
 62
     7
370
    25
100
AcDbLine
 10
77.3992396366
 20
29.0589340149
 30
0.0
 11
77.3992396366
 21
31.3683350912
 31
0.0
  0
LINE
  5
11A
330
1F
100
AcDbEntity
  8
0
  6
Continuous
 62
     7
370
    25
100
AcDbLine
 10
77.3992396366
 20
31.3683350912
 30
0.0
 11
52.6004494149
 21
37.6457149004
 31
0.0
  0
LINE
  5
11B
330
1F
100
AcDbEntity
  8
0
  6
Continuous
 62
     7
370
    25
100
AcDbLine
 10
51.3867868171
 20
38.5468367407
 30
0.0
 11
52.6004494149
 21
37.6457149004
 31
0.0
  0
LINE
  5
11C
330
1F
100
AcDbEntity
  8
0
  6
Continuous
 62
     7
370
    25
100
AcDbLine
 10
51.3867868171
 20
38.5468367407
 30
0.0
 11
27.2336272892
 21
52.4916698962
 31
0.0
  0
LINE
  5
11D
330
1F
100
AcDbEntity
  8
0
  6
Continuous
 62
     7
370
    25
100
AcDbLine
 10
27.2336272892
 20
137.4916698962
 30
0.0
 11
27.2336272892
 21
135.1822688192
 31
0.0
  0
LINE
  5
11E
330
1F
100
AcDbEntity
  8
0
  6
Continuous
 62
     7
370
    25
100
AcDbLine
 10
27.2336272892
 20
135.1822688192
 30
0.0
 11
51.3867868171
 21
121.2374356641
 31
0.0
  0
LINE
  5
11F
330
1F
100
AcDbEntity
  8
0
  6
Continuous
 62
     7
370
    25
100
AcDbLine
 10
52.6004494149
 20
120.3363138238
 30
0.0
 11
51.3867868171
 21
121.2374356641
 31
0.0
  0
LINE
  5
120
330
1F
100
AcDbEntity
  8
0
  6
Continuous
 62
     7
370
    25
100
AcDbLine
 10
52.6004494149
 20
120.3363138238
 30
0.0
 11
77.3992396366
 21
114.0589340149
 31
0.0
  0
LINE
  5
121
330
1F
100
AcDbEntity
  8
0
  6
Continuous
 62
     7
370
    25
100
AcDbLine
 10
77.3992396366
 20
114.0589340149
 30
0.0
 11
77.3992396366
 21
116.3683350912
 31
0.0
  0
LINE
  5
122
330
1F
100
AcDbEntity
  8
0
  6
Continuous
 62
     7
370
    25
100
AcDbLine
 10
77.3992396366
 20
116.3683350912
 30
0.0
 11
52.6004494149
 21
122.6457149004
 31
0.0
  0
LINE
  5
123
330
1F
100
AcDbEntity
  8
0
  6
Continuous
 62
     7
370
    25
100
AcDbLine
 10
51.3867868171
 20
123.5468367407
 30
0.0
 11
52.6004494149
 21
122.6457149004
 31
0.0
  0
LINE
  5
124
330
1F
100
AcDbEntity
  8
0
  6
Continuous
 62
     7
370
    25
100
AcDbLine
 10
51.3867868171
 20
123.5468367407
 30
0.0
 11
27.2336272892
 21
137.4916698962
 31
0.0
  0
LINE
  5
125
330
1F
100
AcDbEntity
  8
0
  6
Continuous
 62
     7
370
    25
100
AcDbLine
 10
27.2336272892
 20
222.4916698962
 30
0.0
 11
27.2336272892
 21
220.1822688192
 31
0.0
  0
LINE
  5
126
330
1F
100
AcDbEntity
  8
0
  6
Continuous
 62
     7
370
    25
100
AcDbLine
 10
27.2336272892
 20
220.1822688192
 30
0.0
 11
51.3867868171
 21
206.2374356641
 31
0.0
  0
LINE
  5
127
330
1F
100
AcDbEntity
  8
0
  6
Continuous
 62
     7
370
    25
100
AcDbLine
 10
52.6004494149
 20
205.3363138238
 30
0.0
 11
51.3867868171
 21
206.2374356641
 31
0.0
  0
LINE
  5
128
330
1F
100
AcDbEntity
  8
0
  6
Continuous
 62
     7
370
    25
100
AcDbLine
 10
52.6004494149
 20
205.3363138238
 30
0.0
 11
77.3992396366
 21
199.0589340149
 31
0.0
  0
LINE
  5
129
330
1F
100
AcDbEntity
  8
0
  6
Continuous
 62
     7
370
    25
100
AcDbLine
 10
77.3992396366
 20
199.0589340149
 30
0.0
 11
77.3992396366
 21
201.3683350912
 31
0.0
  0
LINE
  5
12A
330
1F
100
AcDbEntity
  8
0
  6
Continuous
 62
     7
370
    25
100
AcDbLine
 10
77.3992396366
 20
201.3683350912
 30
0.0
 11
52.6004494149
 21
207.6457149004
 31
0.0
  0
LINE
  5
12B
330
1F
100
AcDbEntity
  8
0
  6
Continuous
 62
     7
370
    25
100
AcDbLine
 10
51.3867868171
 20
208.5468367407
 30
0.0
 11
52.6004494149
 21
207.6457149004
 31
0.0
  0
LINE
  5
12C
330
1F
100
AcDbEntity
  8
0
  6
Continuous
 62
     7
370
    25
100
AcDbLine
 10
51.3867868171
 20
208.5468367407
 30
0.0
 11
27.2336272892
 21
222.4916698962
 31
0.0
  0
LINE
  5
12D
330
1F
100
AcDbEntity
  8
0
  6
Continuous
 62
     7
370
    25
100
AcDbLine
 10
27.2336272892
 20
307.4916698962
 30
0.0
 11
27.2336272892
 21
305.1822688192
 31
0.0
  0
LINE
  5
12E
330
1F
100
AcDbEntity
  8
0
  6
Continuous
 62
     7
370
    25
100
AcDbLine
 10
27.2336272892
 20
305.1822688192
 30
0.0
 11
51.3867868171
 21
291.2374356641
 31
0.0
  0
LINE
  5
12F
330
1F
100
AcDbEntity
  8
0
  6
Continuous
 62
     7
370
    25
100
AcDbLine
 10
52.6004494149
 20
290.3363138238
 30
0.0
 11
51.3867868171
 21
291.2374356641
 31
0.0
  0
LINE
  5
130
330
1F
100
AcDbEntity
  8
0
  6
Continuous
 62
     7
370
    25
100
AcDbLine
 10
52.6004494149
 20
290.3363138238
 30
0.0
 11
77.3992396366
 21
284.0589340149
 31
0.0
  0
LINE
  5
131
330
1F
100
AcDbEntity
  8
0
  6
Continuous
 62
     7
370
    25
100
AcDbLine
 10
77.3992396366
 20
284.0589340149
 30
0.0
 11
77.3992396366
 21
286.3683350912
 31
0.0
  0
LINE
  5
132
330
1F
100
AcDbEntity
  8
0
  6
Continuous
 62
     7
370
    25
100
AcDbLine
 10
77.3992396366
 20
286.3683350912
 30
0.0
 11
52.6004494149
 21
292.6457149004
 31
0.0
  0
LINE
  5
133
330
1F
100
AcDbEntity
  8
0
  6
Continuous
 62
     7
370
    25
100
AcDbLine
 10
51.3867868171
 20
293.5468367407
 30
0.0
 11
52.6004494149
 21
292.6457149004
 31
0.0
  0
LINE
  5
134
330
1F
100
AcDbEntity
  8
0
  6
Continuous
 62
     7
370
    25
100
AcDbLine
 10
51.3867868171
 20
293.5468367407
 30
0.0
 11
27.2336272892
 21
307.4916698962
 31
0.0
  0
LINE
  5
135
330
1F
100
AcDbEntity
  8
0
  6
Continuous
 62
     7
370
    25
100
AcDbLine
 10
27.2336272892
 20
392.4916698962
 30
0.0
 11
27.2336272892
 21
390.1822688192
 31
0.0
  0
LINE
  5
136
330
1F
100
AcDbEntity
  8
0
  6
Continuous
 62
     7
370
    25
100
AcDbLine
 10
27.2336272892
 20
390.1822688192
 30
0.0
 11
51.3867868171
 21
376.2374356641
 31
0.0
  0
LINE
  5
137
330
1F
100
AcDbEntity
  8
0
  6
Continuous
 62
     7
370
    25
100
AcDbLine
 10
52.6004494149
 20
375.3363138238
 30
0.0
 11
51.3867868171
 21
376.2374356641
 31
0.0
  0
LINE
  5
138
330
1F
100
AcDbEntity
  8
0
  6
Continuous
 62
     7
370
    25
100
AcDbLine
 10
52.6004494149
 20
375.3363138238
 30
0.0
 11
77.3992396366
 21
369.0589340149
 31
0.0
  0
LINE
  5
139
330
1F
100
AcDbEntity
  8
0
  6
Continuous
 62
     7
370
    25
100
AcDbLine
 10
77.3992396366
 20
369.0589340149
 30
0.0
 11
77.3992396366
 21
371.3683350912
 31
0.0
  0
LINE
  5
13A
330
1F
100
AcDbEntity
  8
0
  6
Continuous
 62
     7
370
    25
100
AcDbLine
 10
77.3992396366
 20
371.3683350912
 30
0.0
 11
52.6004494149
 21
377.6457149004
 31
0.0
  0
LINE
  5
13B
330
1F
100
AcDbEntity
  8
0
  6
Continuous
 62
     7
370
    25
100
AcDbLine
 10
51.3867868171
 20
378.5468367407
 30
0.0
 11
52.6004494149
 21
377.6457149004
 31
0.0
  0
LINE
  5
13C
330
1F
100
AcDbEntity
  8
0
  6
Continuous
 62
     7
370
    25
100
AcDbLine
 10
51.3867868171
 20
378.5468367407
 30
0.0
 11
27.2336272892
 21
392.4916698962
 31
0.0
  0
LINE
  5
13D
330
1F
100
AcDbEntity
  8
0
  6
Continuous
 62
     7
370
    25
100
AcDbLine
 10
27.2336272892
 20
477.4916698962
 30
0.0
 11
27.2336272892
 21
475.1822688192
 31
0.0
  0
LINE
  5
13E
330
1F
100
AcDbEntity
  8
0
  6
Continuous
 62
     7
370
    25
100
AcDbLine
 10
27.2336272892
 20
475.1822688192
 30
0.0
 11
51.3867868171
 21
461.2374356641
 31
0.0
  0
LINE
  5
13F
330
1F
100
AcDbEntity
  8
0
  6
Continuous
 62
     7
370
    25
100
AcDbLine
 10
52.6004494149
 20
460.3363138238
 30
0.0
 11
51.3867868171
 21
461.2374356641
 31
0.0
  0
LINE
  5
140
330
1F
100
AcDbEntity
  8
0
  6
Continuous
 62
     7
370
    25
100
AcDbLine
 10
52.6004494149
 20
460.3363138238
 30
0.0
 11
77.3992396366
 21
454.0589340149
 31
0.0
  0
LINE
  5
141
330
1F
100
AcDbEntity
  8
0
  6
Continuous
 62
     7
370
    25
100
AcDbLine
 10
77.3992396366
 20
454.0589340149
 30
0.0
 11
77.3992396366
 21
456.3683350912
 31
0.0
  0
LINE
  5
142
330
1F
100
AcDbEntity
  8
0
  6
Continuous
 62
     7
370
    25
100
AcDbLine
 10
77.3992396366
 20
456.3683350912
 30
0.0
 11
52.6004494149
 21
462.6457149004
 31
0.0
  0
LINE
  5
143
330
1F
100
AcDbEntity
  8
0
  6
Continuous
 62
     7
370
    25
100
AcDbLine
 10
51.3867868171
 20
463.5468367407
 30
0.0
 11
52.6004494149
 21
462.6457149004
 31
0.0
  0
LINE
  5
144
330
1F
100
AcDbEntity
  8
0
  6
Continuous
 62
     7
370
    25
100
AcDbLine
 10
51.3867868171
 20
463.5468367407
 30
0.0
 11
27.2336272892
 21
477.4916698962
 31
0.0
  0
LINE
  5
145
330
1F
100
AcDbEntity
  8
0
  6
Continuous
 62
     7
370
    25
100
AcDbLine
 10
27.2336272892
 20
562.4916698962
 30
0.0
 11
27.2336272892
 21
560.1822688192
 31
0.0
  0
LINE
  5
146
330
1F
100
AcDbEntity
  8
0
  6
Continuous
 62
     7
370
    25
100
AcDbLine
 10
27.2336272892
 20
560.1822688192
 30
0.0
 11
51.3867868171
 21
546.2374356641
 31
0.0
  0
LINE
  5
147
330
1F
100
AcDbEntity
  8
0
  6
Continuous
 62
     7
370
    25
100
AcDbLine
 10
52.6004494149
 20
545.3363138238
 30
0.0
 11
51.3867868171
 21
546.2374356641
 31
0.0
  0
LINE
  5
148
330
1F
100
AcDbEntity
  8
0
  6
Continuous
 62
     7
370
    25
100
AcDbLine
 10
52.6004494149
 20
545.3363138238
 30
0.0
 11
77.3992396366
 21
539.0589340149
 31
0.0
  0
LINE
  5
149
330
1F
100
AcDbEntity
  8
0
  6
Continuous
 62
     7
370
    25
100
AcDbLine
 10
77.3992396366
 20
539.0589340149
 30
0.0
 11
77.3992396366
 21
541.3683350912
 31
0.0
  0
LINE
  5
14A
330
1F
100
AcDbEntity
  8
0
  6
Continuous
 62
     7
370
    25
100
AcDbLine
 10
77.3992396366
 20
541.3683350912
 30
0.0
 11
52.6004494149
 21
547.6457149004
 31
0.0
  0
LINE
  5
14B
330
1F
100
AcDbEntity
  8
0
  6
Continuous
 62
     7
370
    25
100
AcDbLine
 10
51.3867868171
 20
548.5468367407
 30
0.0
 11
52.6004494149
 21
547.6457149004
 31
0.0
  0
LINE
  5
14C
330
1F
100
AcDbEntity
  8
0
  6
Continuous
 62
     7
370
    25
100
AcDbLine
 10
51.3867868171
 20
548.5468367407
 30
0.0
 11
27.2336272892
 21
562.4916698962
 31
0.0
  0
LINE
  5
14D
330
1F
100
AcDbEntity
  8
0
  6
Continuous
 62
     7
370
    25
100
AcDbLine
 10
27.2336272892
 20
647.4916698962
 30
0.0
 11
27.2336272892
 21
645.1822688192
 31
0.0
  0
LINE
  5
14E
330
1F
100
AcDbEntity
  8
0
  6
Continuous
 62
     7
370
    25
100
AcDbLine
 10
27.2336272892
 20
645.1822688192
 30
0.0
 11
51.3867868171
 21
631.2374356641
 31
0.0
  0
LINE
  5
14F
330
1F
100
AcDbEntity
  8
0
  6
Continuous
 62
     7
370
    25
100
AcDbLine
 10
52.6004494149
 20
630.3363138238
 30
0.0
 11
51.3867868171
 21
631.2374356641
 31
0.0
  0
LINE
  5
150
330
1F
100
AcDbEntity
  8
0
  6
Continuous
 62
     7
370
    25
100
AcDbLine
 10
52.6004494149
 20
630.3363138238
 30
0.0
 11
77.3992396366
 21
624.0589340149
 31
0.0
  0
LINE
  5
151
330
1F
100
AcDbEntity
  8
0
  6
Continuous
 62
     7
370
    25
100
AcDbLine
 10
77.3992396366
 20
624.0589340149
 30
0.0
 11
77.3992396366
 21
626.3683350912
 31
0.0
  0
LINE
  5
152
330
1F
100
AcDbEntity
  8
0
  6
Continuous
 62
     7
370
    25
100
AcDbLine
 10
77.3992396366
 20
626.3683350912
 30
0.0
 11
52.6004494147
 21
632.6457149005
 31
0.0
  0
LINE
  5
153
330
1F
100
AcDbEntity
  8
0
  6
Continuous
 62
     7
370
    25
100
AcDbLine
 10
51.3867868171
 20
633.5468367407
 30
0.0
 11
52.6004494147
 21
632.6457149005
 31
0.0
  0
LINE
  5
154
330
1F
100
AcDbEntity
  8
0
  6
Continuous
 62
     7
370
    25
100
AcDbLine
 10
51.3867868171
 20
633.5468367407
 30
0.0
 11
27.2336272892
 21
647.4916698962
 31
0.0
  0
LINE
  5
155
330
1F
100
AcDbEntity
  8
0
  6
Continuous
 62
     7
370
    25
100
AcDbLine
 10
27.2336272892
 20
732.4916698962
 30
0.0
 11
27.2336272892
 21
730.1822688192
 31
0.0
  0
LINE
  5
156
330
1F
100
AcDbEntity
  8
0
  6
Continuous
 62
     7
370
    25
100
AcDbLine
 10
27.2336272892
 20
730.1822688192
 30
0.0
 11
51.3867868171
 21
716.2374356641
 31
0.0
  0
LINE
  5
157
330
1F
100
AcDbEntity
  8
0
  6
Continuous
 62
     7
370
    25
100
AcDbLine
 10
52.6004494131
 20
715.3363138243
 30
0.0
 11
51.3867868171
 21
716.2374356641
 31
0.0
  0
LINE
  5
158
330
1F
100
AcDbEntity
  8
0
  6
Continuous
 62
     7
370
    25
100
AcDbLine
 10
52.6004494131
 20
715.3363138243
 30
0.0
 11
77.3992396366
 21
709.0589340149
 31
0.0
  0
LINE
  5
159
330
1F
100
AcDbEntity
  8
0
  6
Continuous
 62
     7
370
    25
100
AcDbLine
 10
77.3992396366
 20
709.0589340149
 30
0.0
 11
77.3992396366
 21
711.3683350912
 31
0.0
  0
LINE
  5
15A
330
1F
100
AcDbEntity
  8
0
  6
Continuous
 62
     7
370
    25
100
AcDbLine
 10
77.3992396366
 20
711.3683350912
 30
0.0
 11
52.6004494145
 21
717.6457149006
 31
0.0
  0
LINE
  5
15B
330
1F
100
AcDbEntity
  8
0
  6
Continuous
 62
     7
370
    25
100
AcDbLine
 10
51.3867868171
 20
718.5468367407
 30
0.0
 11
52.6004494145
 21
717.6457149006
 31
0.0
  0
LINE
  5
15C
330
1F
100
AcDbEntity
  8
0
  6
Continuous
 62
     7
370
    25
100
AcDbLine
 10
51.3867868171
 20
718.5468367407
 30
0.0
 11
27.2336272892
 21
732.4916698962
 31
0.0
  0
LINE
  5
15D
330
1F
100
AcDbEntity
  8
0
  6
Continuous
 62
     7
370
    25
100
AcDbLine
 10
27.2336272891
 20
817.4916698962
 30
0.0
 11
27.2336272891
 21
815.1822688192
 31
0.0
  0
LINE
  5
15E
330
1F
100
AcDbEntity
  8
0
  6
Continuous
 62
     7
370
    25
100
AcDbLine
 10
27.2336272891
 20
815.1822688192
 30
0.0
 11
51.3867868171
 21
801.2374356641
 31
0.0
  0
LINE
  5
15F
330
1F
100
AcDbEntity
  8
0
  6
Continuous
 62
     7
370
    25
100
AcDbLine
 10
52.6004494112
 20
800.3363138247
 30
0.0
 11
51.3867868171
 21
801.2374356641
 31
0.0
  0
LINE
  5
160
330
1F
100
AcDbEntity
  8
0
  6
Continuous
 62
     7
370
    25
100
AcDbLine
 10
52.6004494112
 20
800.3363138247
 30
0.0
 11
77.3992396366
 21
794.0589340149
 31
0.0
  0
LINE
  5
161
330
1F
100
AcDbEntity
  8
0
  6
Continuous
 62
     7
370
    25
100
AcDbLine
 10
77.3992396366
 20
794.0589340149
 30
0.0
 11
77.3992396366
 21
796.3683350912
 31
0.0
  0
LINE
  5
162
330
1F
100
AcDbEntity
  8
0
  6
Continuous
 62
     7
370
    25
100
AcDbLine
 10
77.3992396366
 20
796.3683350912
 30
0.0
 11
52.6004494145
 21
802.6457149006
 31
0.0
  0
LINE
  5
163
330
1F
100
AcDbEntity
  8
0
  6
Continuous
 62
     7
370
    25
100
AcDbLine
 10
51.3867868171
 20
803.5468367407
 30
0.0
 11
52.6004494145
 21
802.6457149006
 31
0.0
  0
LINE
  5
164
330
1F
100
AcDbEntity
  8
0
  6
Continuous
 62
     7
370
    25
100
AcDbLine
 10
51.3867868171
 20
803.5468367407
 30
0.0
 11
27.2336272891
 21
817.4916698962
 31
0.0
  0
ENDSEC
  0
SECTION
  2
OBJECTS
  0
DICTIONARY
  5
C
330
0
100
AcDbDictionary
281
     1
  3
ACAD_GROUP
350
D
  3
ACAD_LAYOUT
350
1A
  3
ACAD_MLINESTYLE
350
17
  3
ACAD_PLOTSETTINGS
350
19
  3
ACAD_PLOTSTYLENAME
350
E
  3
ACAD_SCALELIST
350
47
  3
DWGPROPS
350
165
  0
DICTIONARY
  5
D
102
{ACAD_REACTORS
330
C
102
}
330
C
100
AcDbDictionary
281
     1
  0
DICTIONARY
  5
1A
102
{ACAD_REACTORS
330
C
102
}
330
C
100
AcDbDictionary
281
     1
  3
Layout1
350
1E
  3
Layout2
350
26
  3
Model
350
22
  0
DICTIONARY
  5
17
102
{ACAD_REACTORS
330
C
102
}
330
C
100
AcDbDictionary
281
     1
  3
Standard
350
18
  0
DICTIONARY
  5
19
102
{ACAD_REACTORS
330
C
102
}
330
C
100
AcDbDictionary
281
     1
  0
ACDBDICTIONARYWDFLT
  5
E
102
{ACAD_REACTORS
330
C
102
}
330
C
100
AcDbDictionary
281
     1
  3
Normal
350
F
100
AcDbDictionaryWithDefault
340
F
  0
DICTIONARY
  5
47
102
{ACAD_REACTORS
330
C
102
}
330
C
100
AcDbDictionary
281
     1
  3
A0
350
48
  3
A1
350
49
  3
A2
350
4A
  3
A3
350
4B
  3
A4
350
4C
  3
A5
350
4D
  3
A6
350
4E
  3
A7
350
4F
  3
A8
350
50
  3
A9
350
51
  3
B0
350
52
  3
B1
350
53
  3
B2
350
54
  3
B3
350
55
  3
B4
350
56
  3
B5
350
57
  3
B6
350
58
  3
B7
350
59
  3
B8
350
5A
  3
B9
350
5B
  3
C0
350
5C
  3
C1
350
5D
  3
C2
350
5E
  3
C3
350
5F
  3
C4
350
60
  3
C5
350
61
  3
C6
350
62
  3
C7
350
63
  3
C8
350
64
  3
C9
350
65
  3
D0
350
66
  3
D1
350
67
  3
D2
350
68
  0
XRECORD
  5
165
102
{ACAD_REACTORS
330
C
102
}
330
C
100
AcDbXrecord
280
     1
  1
DWGPROPS COOKIE
  2

  3

  4

  6

  7

  8
barre
  9

300
=
301
=
302
=
303
=
304
=
305
=
306
=
307
=
308
=
309
=
 40
0.0
 41
2460151.431783669
 42
2460151.43185147
  1

 90
        0
  0
LAYOUT
  5
1E
102
{ACAD_REACTORS
330
1A
102
}
330
1A
100
AcDbPlotSettings
  1

  2
none_device
  4

  6

 40
0.0
 41
0.0
 42
0.0
 43
0.0
 44
0.0
 45
0.0
 46
0.0
 47
0.0
 48
0.0
 49
0.0
140
0.0
141
0.0
142
1.0
143
1.0
 70
   688
 72
     1
 73
     0
 74
     5
  7

 75
    16
147
1.0
148
0.0
149
0.0
100
AcDbLayout
  1
Layout1
 70
     1
 71
     1
 10
0.0
 20
0.0
 11
420.0
 21
297.0
 12
0.0
 22
0.0
 32
0.0
 14
1.0000000000E+20
 24
1.0000000000E+20
 34
1.0000000000E+20
 15
-1.0000000000E+20
 25
-1.0000000000E+20
 35
-1.0000000000E+20
146
0.0
 13
0.0
 23
0.0
 33
0.0
 16
1.0
 26
0.0
 36
0.0
 17
0.0
 27
1.0
 37
0.0
 76
     0
330
1B
  0
LAYOUT
  5
26
102
{ACAD_REACTORS
330
1A
102
}
330
1A
100
AcDbPlotSettings
  1

  2
none_device
  4

  6

 40
0.0
 41
0.0
 42
0.0
 43
0.0
 44
0.0
 45
0.0
 46
0.0
 47
0.0
 48
0.0
 49
0.0
140
0.0
141
0.0
142
1.0
143
1.0
 70
   688
 72
     1
 73
     0
 74
     5
  7

 75
    16
147
1.0
148
0.0
149
0.0
100
AcDbLayout
  1
Layout2
 70
     1
 71
     2
 10
0.0
 20
0.0
 11
0.0
 21
0.0
 12
0.0
 22
0.0
 32
0.0
 14
0.0
 24
0.0
 34
0.0
 15
0.0
 25
0.0
 35
0.0
146
0.0
 13
0.0
 23
0.0
 33
0.0
 16
1.0
 26
0.0
 36
0.0
 17
0.0
 27
1.0
 37
0.0
 76
     0
330
23
  0
LAYOUT
  5
22
102
{ACAD_REACTORS
330
1A
102
}
330
1A
100
AcDbPlotSettings
  1

  2
none_device
  4
ANSI_A_(11.00_x_8.50_Inches)
  6

 40
6.35
 41
19.05
 42
6.35000508
 43
19.05000254
 44
279.4
 45
215.9
 46
121.1632636972
 47
-17.97050127
 48
0.0
 49
0.0
140
0.0
141
0.0
142
0.008415
143
1.0
 70
  1696
 72
     0
 73
     0
 74
     0
  7

 75
     0
147
0.0179189148
148
-1300.4909072572
149
0.0
100
AcDbLayout
  1
Model
 70
     1
 71
     0
 10
0.0
 20
0.0
 11
420.0
 21
297.0
 12
0.0
 22
0.0
 32
0.0
 14
0.0
 24
0.0
 34
0.0
 15
114.0327196257
 25
1000.0000000002
 35
0.0
146
0.0
 13
0.0
 23
0.0
 33
0.0
 16
1.0
 26
0.0
 36
0.0
 17
0.0
 27
1.0
 37
0.0
 76
     0
330
1F
331
29
  0
MLINESTYLE
  5
18
102
{ACAD_REACTORS
330
17
102
}
330
17
100
AcDbMlineStyle
  2
Standard
 70
     0
  3

 62
   256
 51
90.0
 52
90.0
 71
     2
 49
0.5
 62
   256
  6
BYLAYER
 49
-0.5
 62
   256
  6
BYLAYER
  0
ACDBPLACEHOLDER
  5
F
102
{ACAD_REACTORS
330
E
102
}
330
E
  0
SCALE
  5
48
102
{ACAD_REACTORS
330
47
102
}
330
47
100
AcDbScale
 70
     0
300
1:1
140
1.0
141
1.0
290
     1
  0
SCALE
  5
49
102
{ACAD_REACTORS
330
47
102
}
330
47
100
AcDbScale
 70
     0
300
1:2
140
1.0
141
2.0
290
     0
  0
SCALE
  5
4A
102
{ACAD_REACTORS
330
47
102
}
330
47
100
AcDbScale
 70
     0
300
1:4
140
1.0
141
4.0
290
     0
  0
SCALE
  5
4B
102
{ACAD_REACTORS
330
47
102
}
330
47
100
AcDbScale
 70
     0
300
1:5
140
1.0
141
5.0
290
     0
  0
SCALE
  5
4C
102
{ACAD_REACTORS
330
47
102
}
330
47
100
AcDbScale
 70
     0
300
1:8
140
1.0
141
8.0
290
     0
  0
SCALE
  5
4D
102
{ACAD_REACTORS
330
47
102
}
330
47
100
AcDbScale
 70
     0
300
1:10
140
1.0
141
10.0
290
     0
  0
SCALE
  5
4E
102
{ACAD_REACTORS
330
47
102
}
330
47
100
AcDbScale
 70
     0
300
1:16
140
1.0
141
16.0
290
     0
  0
SCALE
  5
4F
102
{ACAD_REACTORS
330
47
102
}
330
47
100
AcDbScale
 70
     0
300
1:20
140
1.0
141
20.0
290
     0
  0
SCALE
  5
50
102
{ACAD_REACTORS
330
47
102
}
330
47
100
AcDbScale
 70
     0
300
1:30
140
1.0
141
30.0
290
     0
  0
SCALE
  5
51
102
{ACAD_REACTORS
330
47
102
}
330
47
100
AcDbScale
 70
     0
300
1:40
140
1.0
141
40.0
290
     0
  0
SCALE
  5
52
102
{ACAD_REACTORS
330
47
102
}
330
47
100
AcDbScale
 70
     0
300
1:50
140
1.0
141
50.0
290
     0
  0
SCALE
  5
53
102
{ACAD_REACTORS
330
47
102
}
330
47
100
AcDbScale
 70
     0
300
1:100
140
1.0
141
100.0
290
     0
  0
SCALE
  5
54
102
{ACAD_REACTORS
330
47
102
}
330
47
100
AcDbScale
 70
     0
300
2:1
140
2.0
141
1.0
290
     0
  0
SCALE
  5
55
102
{ACAD_REACTORS
330
47
102
}
330
47
100
AcDbScale
 70
     0
300
4:1
140
4.0
141
1.0
290
     0
  0
SCALE
  5
56
102
{ACAD_REACTORS
330
47
102
}
330
47
100
AcDbScale
 70
     0
300
8:1
140
8.0
141
1.0
290
     0
  0
SCALE
  5
57
102
{ACAD_REACTORS
330
47
102
}
330
47
100
AcDbScale
 70
     0
300
10:1
140
10.0
141
1.0
290
     0
  0
SCALE
  5
58
102
{ACAD_REACTORS
330
47
102
}
330
47
100
AcDbScale
 70
     0
300
100:1
140
100.0
141
1.0
290
     0
  0
SCALE
  5
59
102
{ACAD_REACTORS
330
47
102
}
330
47
100
AcDbScale
 70
     0
300
1/128" = 1'-0"
140
0.0078125
141
12.0
290
     0
  0
SCALE
  5
5A
102
{ACAD_REACTORS
330
47
102
}
330
47
100
AcDbScale
 70
     0
300
1/64" = 1'-0"
140
0.015625
141
12.0
290
     0
  0
SCALE
  5
5B
102
{ACAD_REACTORS
330
47
102
}
330
47
100
AcDbScale
 70
     0
300
1/32" = 1'-0"
140
0.03125
141
12.0
290
     0
  0
SCALE
  5
5C
102
{ACAD_REACTORS
330
47
102
}
330
47
100
AcDbScale
 70
     0
300
1/16" = 1'-0"
140
0.0625
141
12.0
290
     0
  0
SCALE
  5
5D
102
{ACAD_REACTORS
330
47
102
}
330
47
100
AcDbScale
 70
     0
300
3/32" = 1'-0"
140
0.09375
141
12.0
290
     0
  0
SCALE
  5
5E
102
{ACAD_REACTORS
330
47
102
}
330
47
100
AcDbScale
 70
     0
300
1/8" = 1'-0"
140
0.125
141
12.0
290
     0
  0
SCALE
  5
5F
102
{ACAD_REACTORS
330
47
102
}
330
47
100
AcDbScale
 70
     0
300
3/16" = 1'-0"
140
0.1875
141
12.0
290
     0
  0
SCALE
  5
60
102
{ACAD_REACTORS
330
47
102
}
330
47
100
AcDbScale
 70
     0
300
1/4" = 1'-0"
140
0.25
141
12.0
290
     0
  0
SCALE
  5
61
102
{ACAD_REACTORS
330
47
102
}
330
47
100
AcDbScale
 70
     0
300
3/8" = 1'-0"
140
0.375
141
12.0
290
     0
  0
SCALE
  5
62
102
{ACAD_REACTORS
330
47
102
}
330
47
100
AcDbScale
 70
     0
300
1/2" = 1'-0"
140
0.5
141
12.0
290
     0
  0
SCALE
  5
63
102
{ACAD_REACTORS
330
47
102
}
330
47
100
AcDbScale
 70
     0
300
3/4" = 1'-0"
140
0.75
141
12.0
290
     0
  0
SCALE
  5
64
102
{ACAD_REACTORS
330
47
102
}
330
47
100
AcDbScale
 70
     0
300
1" = 1'-0"
140
1.0
141
12.0
290
     0
  0
SCALE
  5
65
102
{ACAD_REACTORS
330
47
102
}
330
47
100
AcDbScale
 70
     0
300
1-1/2" = 1'-0"
140
1.5
141
12.0
290
     0
  0
SCALE
  5
66
102
{ACAD_REACTORS
330
47
102
}
330
47
100
AcDbScale
 70
     0
300
3" = 1'-0"
140
3.0
141
12.0
290
     0
  0
SCALE
  5
67
102
{ACAD_REACTORS
330
47
102
}
330
47
100
AcDbScale
 70
     0
300
6" = 1'-0"
140
6.0
141
12.0
290
     0
  0
SCALE
  5
68
102
{ACAD_REACTORS
330
47
102
}
330
47
100
AcDbScale
 70
     0
300
1'-0" = 1'-0"
140
12.0
141
12.0
290
     0
  0
ENDSEC
  0
EOF
