  0
SECTION
  2
HEADER
  9
$ACADVER
  1
AC1015
  9
$ACADMAINTVER
 70
     6
  9
$DWGCODEPAGE
  3
ANSI_1252
  9
$INSBASE
 10
0.0
 20
0.0
 30
0.0
  9
$EXTMIN
 10
0.0
 20
0.0
 30
0.0
  9
$EXTMAX
 10
114.0327196254
 20
1000.0000000002
 30
0.0
  9
$LIMMIN
 10
0.0
 20
0.0
  9
$LIMMAX
 10
420.0
 20
297.0
  9
$ORTHOMODE
 70
     0
  9
$REGENMODE
 70
     1
  9
$FILLMODE
 70
     1
  9
$QTEXTMODE
 70
     0
  9
$MIRRTEXT
 70
     1
  9
$LTSCALE
 40
1.0
  9
$ATTMODE
 70
     1
  9
$TEXTSIZE
 40
3.5
  9
$TRACEWID
 40
1.0
  9
$TEXTSTYLE
  7
Standard
  9
$CLAYER
  8
0
  9
$CELTYPE
  6
ByLayer
  9
$CECOLOR
 62
   256
  9
$CELTSCALE
 40
1.0
  9
$DISPSILH
 70
     0
  9
$DIMSCALE
 40
1.0
  9
$DIMASZ
 40
3.302
  9
$DIMEXO
 40
0.0
  9
$DIMDLI
 40
3.75
  9
$DIMRND
 40
0.0
  9
$DIMDLE
 40
0.0
  9
$DIMEXE
 40
1.0
  9
$DIMTP
 40
0.0
  9
$DIMTM
 40
0.0
  9
$DIMTXT
 40
3.5
  9
$DIMCEN
 40
2.5
  9
$DIMTSZ
 40
0.0
  9
$DIMTOL
 70
     0
  9
$DIMLIM
 70
     0
  9
$DIMTIH
 70
     1
  9
$DIMTOH
 70
     1
  9
$DIMSE1
 70
     0
  9
$DIMSE2
 70
     0
  9
$DIMTAD
 70
     1
  9
$DIMZIN
 70
     1
  9
$DIMBLK
  1

  9
$DIMASO
 70
     1
  9
$DIMSHO
 70
     1
  9
$DIMPOST
  1

  9
$DIMAPOST
  1

  9
$DIMALT
 70
     0
  9
$DIMALTD
 70
     3
  9
$DIMALTF
 40
0.0393700787
  9
$DIMLFAC
 40
1.0
  9
$DIMTOFL
 70
     1
  9
$DIMTVP
 40
0.0
  9
$DIMTIX
 70
     0
  9
$DIMSOXD
 70
     0
  9
$DIMSAH
 70
     0
  9
$DIMBLK1
  1

  9
$DIMBLK2
  1

  9
$DIMSTYLE
  2
ISO-25
  9
$DIMCLRD
 70
     0
  9
$DIMCLRE
 70
     0
  9
$DIMCLRT
 70
     0
  9
$DIMTFAC
 40
1.0
  9
$DIMGAP
 40
1.524
  9
$DIMJUST
 70
     0
  9
$DIMSD1
 70
     0
  9
$DIMSD2
 70
     0
  9
$DIMTOLJ
 70
     0
  9
$DIMTZIN
 70
     1
  9
$DIMALTZ
 70
     0
  9
$DIMALTTZ
 70
     0
  9
$DIMUPT
 70
     0
  9
$DIMDEC
 70
     2
  9
$DIMTDEC
 70
     2
  9
$DIMALTU
 70
     2
  9
$DIMALTTD
 70
     3
  9
$DIMTXSTY
  7
Standard
  9
$DIMAUNIT
 70
     0
  9
$DIMADEC
 70
     2
  9
$DIMALTRND
 40
0.0
  9
$DIMAZIN
 70
     0
  9
$DIMDSEP
 70
    44
  9
$DIMATFIT
 70
     3
  9
$DIMFRAC
 70
     0
  9
$DIMLDRBLK
  1

  9
$DIMLUNIT
 70
     2
  9
$DIMLWD
 70
    -2
  9
$DIMLWE
 70
    -2
  9
$DIMTMOVE
 70
     0
  9
$LUNITS
 70
     2
  9
$LUPREC
 70
     2
  9
$SKETCHINC
 40
1.0
  9
$FILLETRAD
 40
10.0
  9
$AUNITS
 70
     0
  9
$AUPREC
 70
     2
  9
$MENU
  1
.
  9
$ELEVATION
 40
0.0
  9
$PELEVATION
 40
0.0
  9
$THICKNESS
 40
0.0
  9
$LIMCHECK
 70
     0
  9
$CHAMFERA
 40
0.0
  9
$CHAMFERB
 40
0.0
  9
$CHAMFERC
 40
0.0
  9
$CHAMFERD
 40
0.0
  9
$SKPOLY
 70
     0
  9
$TDCREATE
 40
2460151.55781647
  9
$TDUCREATE
 40
2460151.43281647
  9
$TDUPDATE
 40
2460151.557852477
  9
$TDUUPDATE
 40
2460151.432852477
  9
$TDINDWG
 40
0.0000000116
  9
$TDUSRTIMER
 40
0.0000000116
  9
$USRTIMER
 70
     1
  9
$ANGBASE
 50
0.0
  9
$ANGDIR
 70
     0
  9
$PDMODE
 70
     0
  9
$PDSIZE
 40
-1.0
  9
$PLINEWID
 40
0.0
  9
$SPLFRAME
 70
     0
  9
$SPLINETYPE
 70
     6
  9
$SPLINESEGS
 70
     8
  9
$HANDSEED
  5
168
  9
$SURFTAB1
 70
     6
  9
$SURFTAB2
 70
     6
  9
$SURFTYPE
 70
     6
  9
$SURFU
 70
     6
  9
$SURFV
 70
     6
  9
$UCSBASE
  2

  9
$UCSNAME
  2

  9
$UCSORG
 10
0.0
 20
0.0
 30
0.0
  9
$UCSXDIR
 10
1.0
 20
0.0
 30
0.0
  9
$UCSYDIR
 10
0.0
 20
1.0
 30
0.0
  9
$UCSORTHOREF
  2

  9
$UCSORTHOVIEW
 70
     0
  9
$UCSORGTOP
 10
0.0
 20
0.0
 30
0.0
  9
$UCSORGBOTTOM
 10
0.0
 20
0.0
 30
0.0
  9
$UCSORGLEFT
 10
0.0
 20
0.0
 30
0.0
  9
$UCSORGRIGHT
 10
0.0
 20
0.0
 30
0.0
  9
$UCSORGFRONT
 10
0.0
 20
0.0
 30
0.0
  9
$UCSORGBACK
 10
0.0
 20
0.0
 30
0.0
  9
$PUCSBASE
  2

  9
$PUCSNAME
  2

  9
$PUCSORG
 10
0.0
 20
0.0
 30
0.0
  9
$PUCSXDIR
 10
1.0
 20
0.0
 30
0.0
  9
$PUCSYDIR
 10
0.0
 20
1.0
 30
0.0
  9
$PUCSORTHOREF
  2

  9
$PUCSORTHOVIEW
 70
     0
  9
$PUCSORGTOP
 10
0.0
 20
0.0
 30
0.0
  9
$PUCSORGBOTTOM
 10
0.0
 20
0.0
 30
0.0
  9
$PUCSORGLEFT
 10
0.0
 20
0.0
 30
0.0
  9
$PUCSORGRIGHT
 10
0.0
 20
0.0
 30
0.0
  9
$PUCSORGFRONT
 10
0.0
 20
0.0
 30
0.0
  9
$PUCSORGBACK
 10
0.0
 20
0.0
 30
0.0
  9
$USERI1
 70
     0
  9
$USERI2
 70
     0
  9
$USERI3
 70
     0
  9
$USERI4
 70
     0
  9
$USERI5
 70
     0
  9
$USERR1
 40
0.0
  9
$USERR2
 40
0.0
  9
$USERR3
 40
0.0
  9
$USERR4
 40
0.0
  9
$USERR5
 40
0.0
  9
$WORLDVIEW
 70
     1
  9
$SHADEDGE
 70
     3
  9
$SHADEDIF
 70
    70
  9
$TILEMODE
 70
     1
  9
$MAXACTVP
 70
    64
  9
$PINSBASE
 10
0.0
 20
0.0
 30
0.0
  9
$PLIMCHECK
 70
     0
  9
$PEXTMIN
 10
1.0000000000E+20
 20
1.0000000000E+20
 30
1.0000000000E+20
  9
$PEXTMAX
 10
-1.0000000000E+20
 20
-1.0000000000E+20
 30
-1.0000000000E+20
  9
$PLIMMIN
 10
0.0
 20
0.0
  9
$PLIMMAX
 10
420.0
 20
297.0
  9
$UNITMODE
 70
     0
  9
$VISRETAIN
 70
     1
  9
$PLINEGEN
 70
     0
  9
$PSLTSCALE
 70
     1
  9
$TREEDEPTH
 70
  3020
  9
$CMLSTYLE
  2
Standard
  9
$CMLJUST
 70
     0
  9
$CMLSCALE
 40
20.0
  9
$PROXYGRAPHICS
 70
     1
  9
$MEASUREMENT
 70
     1
  9
$CELWEIGHT
370
    -1
  9
$ENDCAPS
280
     0
  9
$JOINSTYLE
280
     0
  9
$LWDISPLAY
290
     1
  9
$INSUNITS
 70
     4
  9
$HYPERLINKBASE
  1

  9
$STYLESHEET
  1

  9
$XEDIT
290
     1
  9
$CEPSNTYPE
380
     0
  9
$PSTYLEMODE
290
     1
  9
$FINGERPRINTGUID
  2
{a9549609-35e7-4326-b856-aaeac50030db}
  9
$VERSIONGUID
  2
{FAEB1C32-E019-11D5-929B-00C0DF256EC4}
  9
$EXTNAMES
290
     1
  9
$PSVPSCALE
 40
0.0
  9
$OLESTARTUP
290
     0
  0
ENDSEC
  0
SECTION
  2
CLASSES
  0
CLASS
  1
ACDBDICTIONARYWDFLT
  2
AcDbDictionaryWithDefault
  3
ObjectDBX Classes
 90
        0
280
     0
281
     0
  0
CLASS
  1
VISUALSTYLE
  2
AcDbVisualStyle
  3
ObjectDBX Classes
 90
     4095
280
     0
281
     0
  0
CLASS
  1
MATERIAL
  2
AcDbMaterial
  3
ObjectDBX Classes
 90
     1153
280
     0
281
     0
  0
CLASS
  1
SCALE
  2
AcDbScale
  3
ObjectDBX Classes
 90
     1153
280
     0
281
     0
  0
CLASS
  1
TABLESTYLE
  2
AcDbTableStyle
  3
ObjectDBX Classes
 90
     4095
280
     0
281
     0
  0
CLASS
  1
MLEADERSTYLE
  2
AcDbMLeaderStyle
  3
ACDB_MLEADERSTYLE_CLASS
 90
     4095
280
     0
281
     0
  0
CLASS
  1
SUN
  2
AcDbSun
  3
SCENEOE
 90
     1153
280
     0
281
     0
  0
CLASS
  1
ACDBPLACEHOLDER
  2
AcDbPlaceHolder
  3
ObjectDBX Classes
 90
        0
280
     0
281
     0
  0
CLASS
  1
LAYOUT
  2
AcDbLayout
  3
ObjectDBX Classes
 90
        0
280
     0
281
     0
  0
ENDSEC
  0
SECTION
  2
TABLES
  0
TABLE
  2
VPORT
  5
8
330
0
100
AcDbSymbolTable
 70
     1
  0
VPORT
  5
29
330
8
100
AcDbSymbolTableRecord
100
AcDbViewportTableRecord
  2
*Active
 70
     0
 10
0.0
 20
0.0
 11
1.0
 21
1.0
 12
57.0163598127
 22
500.0000000001
 13
0.0
 23
0.0
 14
10.0
 24
10.0
 15
10.0
 25
10.0
 16
0.0
 26
0.0
 36
1.0
 17
0.0
 27
0.0
 37
0.0
 40
1020.0000000002
 41
0.1140327196
 42
50.0
 43
0.0
 44
0.0
 50
0.0
 51
0.0
 71
     0
 72
   100
 73
     1
 74
     3
 75
     0
 76
     0
 77
     0
 78
     0
281
     0
 65
     1
110
0.0
120
0.0
130
0.0
111
1.0
121
0.0
131
0.0
112
0.0
122
1.0
132
0.0
 79
     0
146
0.0
  0
ENDTAB
  0
TABLE
  2
LTYPE
  5
5
330
0
100
AcDbSymbolTable
 70
     6
  0
LTYPE
  5
14
330
5
100
AcDbSymbolTableRecord
100
AcDbLinetypeTableRecord
  2
ByBlock
 70
     0
  3

 72
    65
 73
     0
 40
0.0
  0
LTYPE
  5
15
330
5
100
AcDbSymbolTableRecord
100
AcDbLinetypeTableRecord
  2
ByLayer
 70
     0
  3

 72
    65
 73
     0
 40
0.0
  0
LTYPE
  5
16
330
5
100
AcDbSymbolTableRecord
100
AcDbLinetypeTableRecord
  2
Continuous
 70
     0
  3
Solid line
 72
    65
 73
     0
 40
0.0
  0
LTYPE
  5
6E
330
5
100
AcDbSymbolTableRecord
100
AcDbLinetypeTableRecord
  2
HIDDEN
 70
     0
  3
Hidden __ __ __ __ __ __ __ __ __ __ __ __ __ __
 72
    65
 73
     2
 40
1.905
 49
1.27
 74
     0
 49
-0.635
 74
     0
  0
LTYPE
  5
6F
330
5
100
AcDbSymbolTableRecord
100
AcDbLinetypeTableRecord
  2
PHANTOM
 70
     0
  3
Phantom ______  __  __  ______  __  __  ______
 72
    65
 73
     6
 40
12.7
 49
6.35
 74
     0
 49
-1.27
 74
     0
 49
1.27
 74
     0
 49
-1.27
 74
     0
 49
1.27
 74
     0
 49
-1.27
 74
     0
  0
LTYPE
  5
70
330
5
100
AcDbSymbolTableRecord
100
AcDbLinetypeTableRecord
  2
CENTER
 70
     0
  3
Center ____ _ ____ _ ____ _ ____ _ ____ _ ____
 72
    65
 73
     4
 40
10.16
 49
6.35
 74
     0
 49
-1.27
 74
     0
 49
1.27
 74
     0
 49
-1.27
 74
     0
  0
LTYPE
  5
71
330
5
100
AcDbSymbolTableRecord
100
AcDbLinetypeTableRecord
  2
CENTERX2
 70
     0
  3
Center (2x) ________  __  ________  __  _____
 72
    65
 73
     4
 40
20.32
 49
12.7
 74
     0
 49
-2.54
 74
     0
 49
2.54
 74
     0
 49
-2.54
 74
     0
  0
LTYPE
  5
72
330
5
100
AcDbSymbolTableRecord
100
AcDbLinetypeTableRecord
  2
DOT2
 70
     0
  3
Dot (.5x) ........................................
 72
    65
 73
     2
 40
0.635
 49
0.0
 74
     0
 49
-0.635
 74
     0
  0
ENDTAB
  0
TABLE
  2
LAYER
  5
2
330
0
100
AcDbSymbolTable
 70
     1
  0
LAYER
  5
10
330
2
100
AcDbSymbolTableRecord
100
AcDbLayerTableRecord
  2
0
 70
     0
 62
     7
  6
Continuous
370
    -3
390
F
  0
ENDTAB
  0
TABLE
  2
STYLE
  5
3
330
0
100
AcDbSymbolTable
 70
     1
  0
STYLE
  5
11
330
3
100
AcDbSymbolTableRecord
100
AcDbTextStyleTableRecord
  2
Standard
 70
     0
 40
0.0
 41
1.0
 50
0.0
 71
     0
 42
3.5
  3
txt
  4

  0
ENDTAB
  0
TABLE
  2
VIEW
  5
6
330
0
100
AcDbSymbolTable
 70
     0
  0
ENDTAB
  0
TABLE
  2
UCS
  5
7
330
0
100
AcDbSymbolTable
 70
     0
  0
ENDTAB
  0
TABLE
  2
APPID
  5
9
330
0
100
AcDbSymbolTable
 70
     1
  0
APPID
  5
12
330
9
100
AcDbSymbolTableRecord
100
AcDbRegAppTableRecord
  2
ACAD
 70
     0
  0
ENDTAB
  0
TABLE
  2
DIMSTYLE
  5
A
330
0
100
AcDbSymbolTable
 70
     1
100
AcDbDimStyleTable
  0
DIMSTYLE
105
27
330
A
100
AcDbSymbolTableRecord
100
AcDbDimStyleTableRecord
  2
ISO-25
 70
     0
 41
2.5
 42
0.625
 43
3.75
 44
1.25
 73
     0
 74
     0
 77
     1
 78
     8
140
2.5
141
2.5
143
0.0393700787
147
0.625
171
     3
172
     1
178
     0
271
     2
272
     2
274
     3
278
    44
283
     0
284
     8
340
11
  0
ENDTAB
  0
TABLE
  2
BLOCK_RECORD
  5
1
330
0
100
AcDbSymbolTable
 70
     1
  0
BLOCK_RECORD
  5
1F
330
1
100
AcDbSymbolTableRecord
100
AcDbBlockTableRecord
  2
*Model_Space
340
22
  0
BLOCK_RECORD
  5
1B
330
1
100
AcDbSymbolTableRecord
100
AcDbBlockTableRecord
  2
*Paper_Space
340
1E
  0
BLOCK_RECORD
  5
23
330
1
100
AcDbSymbolTableRecord
100
AcDbBlockTableRecord
  2
*Paper_Space0
340
26
  0
ENDTAB
  0
ENDSEC
  0
SECTION
  2
BLOCKS
  0
BLOCK
  5
20
330
1F
100
AcDbEntity
  8
0
100
AcDbBlockBegin
  2
*Model_Space
 70
     0
 10
0.0
 20
0.0
 30
0.0
  3
*Model_Space
  1

  0
ENDBLK
  5
21
330
1F
100
AcDbEntity
  8
0
100
AcDbBlockEnd
  0
BLOCK
  5
1C
330
1B
100
AcDbEntity
 67
     1
  8
0
100
AcDbBlockBegin
  2
*Paper_Space
 70
     0
 10
0.0
 20
0.0
 30
0.0
  3
*Paper_Space
  1

  0
ENDBLK
  5
1D
330
1B
100
AcDbEntity
 67
     1
  8
0
100
AcDbBlockEnd
  0
BLOCK
  5
24
330
23
100
AcDbEntity
  8
0
100
AcDbBlockBegin
  2
*Paper_Space0
 70
     0
 10
0.0
 20
0.0
 30
0.0
  3
*Paper_Space0
  1

  0
ENDBLK
  5
25
330
23
100
AcDbEntity
  8
0
100
AcDbBlockEnd
  0
ENDSEC
  0
SECTION
  2
ENTITIES
  0
LINE
  5
73
330
1F
100
AcDbEntity
  8
0
  6
CENTERX2
 62
     7
100
AcDbLine
 10
90.552505981
 20
1000.0
 30
0.0
 11
90.552505981
 21
0.0
 31
0.0
  0
LINE
  5
74
330
1F
100
AcDbEntity
  8
0
  6
CENTERX2
 62
     7
100
AcDbLine
 10
19.3524330935
 20
0.0
 30
0.0
 11
19.3524330935
 21
1000.0
 31
0.0
  0
LINE
  5
75
330
1F
100
AcDbEntity
  8
0
  6
CENTERX2
 62
     7
100
AcDbLine
 10
35.4997762886
 20
0.0000000002
 30
0.0
 11
35.4997762886
 21
999.9999999998
 31
0.0
  0
LINE
  5
76
330
1F
100
AcDbEntity
  8
0
  6
CENTERX2
 62
     7
100
AcDbLine
 10
62.0391015093
 20
803.0962758202
 30
0.0
 11
62.0391015124
 21
885.786874746
 31
0.0
  0
LINE
  5
77
330
1F
100
AcDbEntity
  8
0
  6
CENTERX2
 62
     7
100
AcDbLine
 10
62.0391015061
 20
718.0962758178
 30
0.0
 11
62.0391015092
 21
800.7868747436
 31
0.0
  0
LINE
  5
78
330
1F
100
AcDbEntity
  8
0
  6
CENTERX2
 62
     7
100
AcDbLine
 10
62.0391015029
 20
633.0962758156
 30
0.0
 11
62.039101506
 21
715.786874741
 31
0.0
  0
LINE
  5
79
330
1F
100
AcDbEntity
  8
0
  6
CENTERX2
 62
     7
100
AcDbLine
 10
62.0391014997
 20
548.0962758131
 30
0.0
 11
62.0391015028
 21
630.7868747389
 31
0.0
  0
LINE
  5
7A
330
1F
100
AcDbEntity
  8
0
  6
CENTERX2
 62
     7
100
AcDbLine
 10
62.0391014965
 20
463.0962758107
 30
0.0
 11
62.0391014996
 21
545.7868747365
 31
0.0
  0
LINE
  5
7B
330
1F
100
AcDbEntity
  8
0
  6
CENTERX2
 62
     7
100
AcDbLine
 10
62.0391014934
 20
378.0962758084
 30
0.0
 11
62.0391014965
 21
460.7868747341
 31
0.0
  0
LINE
  5
7C
330
1F
100
AcDbEntity
  8
0
  6
CENTERX2
 62
     7
100
AcDbLine
 10
62.0391014902
 20
293.096275806
 30
0.0
 11
62.0391014933
 21
375.7868747318
 31
0.0
  0
LINE
  5
7D
330
1F
100
AcDbEntity
  8
0
  6
CENTERX2
 62
     7
100
AcDbLine
 10
62.039101487
 20
208.0962758036
 30
0.0
 11
62.0391014901
 21
290.7868747294
 31
0.0
  0
LINE
  5
7E
330
1F
100
AcDbEntity
  8
0
  6
CENTERX2
 62
     7
100
AcDbLine
 10
62.0391014838
 20
123.0962758013
 30
0.0
 11
62.0391014869
 21
205.786874727
 31
0.0
  0
LINE
  5
7F
330
1F
100
AcDbEntity
  8
0
  6
CENTERX2
 62
     7
100
AcDbLine
 10
62.0391014806
 20
38.0962757989
 30
0.0
 11
62.0391014837
 21
120.7868747247
 31
0.0
  0
LINE
  5
80
330
1F
100
AcDbEntity
  8
0
  6
CENTERX2
 62
     7
100
AcDbLine
 10
62.0391014792
 20
0.0
 30
0.0
 11
62.0391014805
 21
35.7868747223
 31
0.0
  0
LINE
  5
81
330
1F
100
AcDbEntity
  8
0
  6
CENTERX2
 62
     7
100
AcDbLine
 10
62.0391015157
 20
973.0962758344
 30
0.0
 11
62.0391015167
 21
1000.0
 31
0.0
  0
LINE
  5
82
330
1F
100
AcDbEntity
  8
0
  6
CENTERX2
 62
     7
100
AcDbLine
 10
62.0391015125
 20
888.0962758226
 30
0.0
 11
62.0391015156
 21
970.7868747456
 31
0.0
  0
SPLINE
  5
83
330
1F
100
AcDbEntity
  8
0
  6
Continuous
 62
     7
370
    25
100
AcDbSpline
210
0.0
220
0.0
230
1.0
 70
     8
 71
     3
 72
    22
 73
    18
 74
     0
 42
0.00000001
 43
0.00000001
 40
0.5
 40
0.5
 40
0.5
 40
0.5
 40
0.5625
 40
0.5625
 40
0.625
 40
0.625
 40
0.6875
 40
0.6875
 40
0.75
 40
0.75
 40
0.8125
 40
0.8125
 40
0.875
 40
0.875
 40
0.9375
 40
0.9375
 40
1.0
 40
1.0
 40
1.0
 40
1.0
 10
105.1510196253547
 20
970.0000000001703
 30
0.0
 10
105.1510923458796
 20
970.2974930198644
 30
0.0
 10
105.0937216506938
 20
970.5856920213038
 30
0.0
 10
104.8657754963166
 20
971.1363834246768
 30
0.0
 10
104.7026775146581
 20
971.3802196079703
 30
0.0
 10
104.2813422513909
 20
971.80176090771
 30
0.0
 10
104.0373472969059
 20
971.9646212712569
 30
0.0
 10
103.4867673994465
 20
972.1928366253835
 30
0.0
 10
103.19902149197
 20
972.2499271552597
 30
0.0
 10
102.6030177587395
 20
972.2500728450801
 30
0.0
 10
102.3153276042099
 20
972.19270202556
 30
0.0
 10
101.7646362008568
 20
971.9647558710802
 30
0.0
 10
101.5208000173886
 20
971.8016578892469
 30
0.0
 10
101.0992587179815
 20
971.3803226264333
 30
0.0
 10
100.9364713784374
 20
971.1365038456637
 30
0.0
 10
100.7081099759713
 20
970.5855716003168
 30
0.0
 10
100.6510196253548
 20
970.2985590260434
 30
0.0
 10
100.6510196253548
 20
970.0000000001703
 30
0.0
  0
SPLINE
  5
84
330
1F
100
AcDbEntity
  8
0
  6
Continuous
 62
     7
370
    25
100
AcDbSpline
210
0.0
220
0.0
230
1.0
 70
     8
 71
     3
 72
    22
 73
    18
 74
     0
 42
0.00000001
 43
0.00000001
 40
0.0
 40
0.0
 40
0.0
 40
0.0
 40
0.0625
 40
0.0625
 40
0.125
 40
0.125
 40
0.1875
 40
0.1875
 40
0.25
 40
0.25
 40
0.3125
 40
0.3125
 40
0.375
 40
0.375
 40
0.4375
 40
0.4375
 40
0.5
 40
0.5
 40
0.5
 40
0.5
 10
100.6510196253548
 20
970.0000000001703
 30
0.0
 10
100.6510196253548
 20
969.7021988732384
 30
0.0
 10
100.7083175999518
 20
969.4143079791897
 30
0.0
 10
100.9362637544569
 20
968.86361657551
 30
0.0
 10
101.099361735898
 20
968.6197803924332
 30
0.0
 10
101.5206969994721
 20
968.1982390925667
 30
0.0
 10
101.7646919538023
 20
968.0353787290841
 30
0.0
 10
102.3152718512645
 20
967.8071633749568
 30
0.0
 10
102.6030177587409
 20
967.7500728450805
 30
0.0
 10
103.1990214919686
 20
967.74992715526
 30
0.0
 10
103.4867116462931
 20
967.807297974694
 30
0.0
 10
104.0374030500593
 20
968.0352441293468
 30
0.0
 10
104.2812392332358
 20
968.1983421108865
 30
0.0
 10
104.7027805328132
 20
968.6196773741135
 30
0.0
 10
104.8656408964411
 20
968.8636723287965
 30
0.0
 10
105.0938562505693
 20
969.4142522259033
 30
0.0
 10
105.1509466011858
 20
969.7012648001765
 30
0.0
 10
105.1510196253547
 20
970.0000000001703
 30
0.0
  0
SPLINE
  5
85
330
1F
100
AcDbEntity
  8
0
  6
Continuous
 62
     7
370
    25
100
AcDbSpline
210
0.0
220
0.0
230
1.0
 70
     8
 71
     3
 72
    22
 73
    18
 74
     0
 42
0.00000001
 43
0.00000001
 40
0.5
 40
0.5
 40
0.5
 40
0.5
 40
0.5625
 40
0.5625
 40
0.625
 40
0.625
 40
0.6875
 40
0.6875
 40
0.75
 40
0.75
 40
0.8125
 40
0.8125
 40
0.875
 40
0.875
 40
0.9375
 40
0.9375
 40
1.0
 40
1.0
 40
1.0
 40
1.0
 10
105.1510196253547
 20
480.0000000001698
 30
0.0
 10
105.1510923458796
 20
480.2974930199985
 30
0.0
 10
105.0937216507364
 20
480.5856920212622
 30
0.0
 10
104.865775496274
 20
481.1363834247197
 30
0.0
 10
104.7026775145549
 20
481.3802196080725
 30
0.0
 10
104.2813422514941
 20
481.8017609076073
 30
0.0
 10
104.037347296761
 20
481.964621271256
 30
0.0
 10
103.4867673995914
 20
482.1928366253839
 30
0.0
 10
103.1990214918969
 20
482.2499271552606
 30
0.0
 10
102.6030177588127
 20
482.2500728450793
 30
0.0
 10
102.3153276042618
 20
482.1927020255507
 30
0.0
 10
101.7646362008049
 20
481.9647558710892
 30
0.0
 10
101.5208000174524
 20
481.8016578893706
 30
0.0
 10
101.0992587179177
 20
481.3803226263092
 30
0.0
 10
100.9364713784374
 20
481.136503845697
 30
0.0
 10
100.7081099759713
 20
480.5855716002849
 30
0.0
 10
100.6510196253548
 20
480.298559026011
 30
0.0
 10
100.6510196253548
 20
480.0000000001698
 30
0.0
  0
SPLINE
  5
86
330
1F
100
AcDbEntity
  8
0
  6
Continuous
 62
     7
370
    25
100
AcDbSpline
210
0.0
220
0.0
230
1.0
 70
     8
 71
     3
 72
    22
 73
    18
 74
     0
 42
0.00000001
 43
0.00000001
 40
0.0
 40
0.0
 40
0.0
 40
0.0
 40
0.0625
 40
0.0625
 40
0.125
 40
0.125
 40
0.1875
 40
0.1875
 40
0.25
 40
0.25
 40
0.3125
 40
0.3125
 40
0.375
 40
0.375
 40
0.4375
 40
0.4375
 40
0.5
 40
0.5
 40
0.5
 40
0.5
 10
100.6510196253548
 20
480.0000000001698
 30
0.0
 10
100.6510196253548
 20
479.7021988732567
 30
0.0
 10
100.7083175999945
 20
479.4143079790245
 30
0.0
 10
100.9362637544143
 20
478.8636165756712
 30
0.0
 10
101.099361736206
 20
478.6197803922457
 30
0.0
 10
101.5206969991641
 20
478.1982390927539
 30
0.0
 10
101.7646919539485
 20
478.0353787290845
 30
0.0
 10
102.3152718511182
 20
477.8071633749552
 30
0.0
 10
102.6030177588127
 20
477.7500728450792
 30
0.0
 10
103.1990214918969
 20
477.7499271552605
 30
0.0
 10
103.4867116464478
 20
477.8072979747892
 30
0.0
 10
104.0374030499046
 20
478.0352441292506
 30
0.0
 10
104.2812392332571
 20
478.1983421109691
 30
0.0
 10
104.7027805327919
 20
478.6196773740305
 30
0.0
 10
104.8656408964411
 20
478.8636723287625
 30
0.0
 10
105.0938562505693
 20
479.4142522259332
 30
0.0
 10
105.1509466011858
 20
479.7012648002072
 30
0.0
 10
105.1510196253547
 20
480.0000000001698
 30
0.0
  0
SPLINE
  5
87
330
1F
100
AcDbEntity
  8
0
  6
Continuous
 62
     7
370
    25
100
AcDbSpline
210
0.0
220
0.0
230
1.0
 70
     8
 71
     3
 72
    22
 73
    18
 74
     0
 42
0.00000001
 43
0.00000001
 40
0.5
 40
0.5
 40
0.5
 40
0.5
 40
0.5625
 40
0.5625
 40
0.625
 40
0.625
 40
0.6875
 40
0.6875
 40
0.75
 40
0.75
 40
0.8125
 40
0.8125
 40
0.875
 40
0.875
 40
0.9375
 40
0.9375
 40
1.0
 40
1.0
 40
1.0
 40
1.0
 10
105.1510196253547
 20
55.00000000016981
 30
0.0
 10
105.1510923458796
 20
55.29749301993814
 30
0.0
 10
105.0937216507364
 20
55.58569202120278
 30
0.0
 10
104.865775496274
 20
56.13638342477989
 30
0.0
 10
104.7026775147605
 20
56.38021960792661
 30
0.0
 10
104.2813422512886
 20
56.80176090775224
 30
0.0
 10
104.0373472969066
 20
56.96462127125579
 30
0.0
 10
103.4867673994458
 20
57.19283662538444
 30
0.0
 10
103.1990214919693
 20
57.24992715526022
 30
0.0
 10
102.6030177587402
 20
57.25007284507954
 30
0.0
 10
102.3153276042104
 20
57.19270202556004
 30
0.0
 10
101.7646362008563
 20
56.96475587108019
 30
0.0
 10
101.5208000173885
 20
56.80165788924607
 30
0.0
 10
101.0992587179816
 20
56.38032262643322
 30
0.0
 10
100.9364713784374
 20
56.13650384566715
 30
0.0
 10
100.7081099759713
 20
55.58557160031552
 30
0.0
 10
100.6510196253548
 20
55.29855902604241
 30
0.0
 10
100.6510196253548
 20
55.00000000016981
 30
0.0
  0
SPLINE
  5
88
330
1F
100
AcDbEntity
  8
0
  6
Continuous
 62
     7
370
    25
100
AcDbSpline
210
0.0
220
0.0
230
1.0
 70
     8
 71
     3
 72
    22
 73
    18
 74
     0
 42
0.00000001
 43
0.00000001
 40
0.0
 40
0.0
 40
0.0
 40
0.0
 40
0.0625
 40
0.0625
 40
0.125
 40
0.125
 40
0.1875
 40
0.1875
 40
0.25
 40
0.25
 40
0.3125
 40
0.3125
 40
0.375
 40
0.375
 40
0.4375
 40
0.4375
 40
0.5
 40
0.5
 40
0.5
 40
0.5
 10
100.6510196253548
 20
55.00000000016981
 30
0.0
 10
100.6510196253548
 20
54.70219887331673
 30
0.0
 10
100.7083175999945
 20
54.41430797908531
 30
0.0
 10
100.9362637544143
 20
53.86361657561123
 30
0.0
 10
101.0993617360005
 20
53.61978039239168
 30
0.0
 10
101.5206969993696
 20
53.19823909260868
 30
0.0
 10
101.7646919538029
 20
53.03537872908382
 30
0.0
 10
102.3152718512638
 20
52.80716337495517
 30
0.0
 10
102.6030177587402
 20
52.7500728450796
 30
0.0
 10
103.1990214919693
 20
52.74992715526028
 30
0.0
 10
103.4867116463964
 20
52.80729797473693
 30
0.0
 10
104.037403049956
 20
53.03524412930205
 30
0.0
 10
104.2812392332784
 20
53.19834211099095
 30
0.0
 10
104.7027805327706
 20
53.61967737400941
 30
0.0
 10
104.8656408964411
 20
53.86367232879352
 30
0.0
 10
105.0938562505693
 20
54.41425222590301
 30
0.0
 10
105.1509466011858
 20
54.70126480017701
 30
0.0
 10
105.1510196253547
 20
55.00000000016981
 30
0.0
  0
SPLINE
  5
89
330
1F
100
AcDbEntity
  8
0
  6
Continuous
 62
     7
370
    25
100
AcDbSpline
210
0.0
220
0.0
230
1.0
 70
     8
 71
     3
 72
    22
 73
    18
 74
     0
 42
0.00000001
 43
0.00000001
 40
0.5
 40
0.5
 40
0.5
 40
0.5
 40
0.5625
 40
0.5625
 40
0.625
 40
0.625
 40
0.6875
 40
0.6875
 40
0.75
 40
0.75
 40
0.8125
 40
0.8125
 40
0.875
 40
0.875
 40
0.9375
 40
0.9375
 40
1.0
 40
1.0
 40
1.0
 40
1.0
 10
27.49714342233003
 20
839.8723817204354
 30
0.0
 10
27.79463644155558
 20
839.87230899991
 30
0.0
 10
28.08283544368642
 20
839.929679695258
 30
0.0
 10
28.6335268466165
 20
840.1576258493116
 30
0.0
 10
28.87736303025948
 20
840.3207238313213
 30
0.0
 10
29.29890432973994
 20
840.7420590942083
 30
0.0
 10
29.46176469340875
 20
840.9860540489868
 30
0.0
 10
29.6899800475521
 20
841.5366339462336
 30
0.0
 10
29.74707057742797
 20
841.8243798538924
 30
0.0
 10
29.74721626723212
 20
842.4203835869786
 30
0.0
 10
29.68984544769196
 20
842.7080737415585
 30
0.0
 10
29.46189929326891
 20
843.2587651449517
 30
0.0
 10
29.2988013114072
 20
843.502601328449
 30
0.0
 10
28.87746604859229
 20
843.9241426277617
 30
0.0
 10
28.63364726771632
 20
844.0869299673521
 30
0.0
 10
28.08271502258666
 20
844.3152913698186
 30
0.0
 10
27.79570244831289
 20
844.3723817204352
 30
0.0
 10
27.49714342233003
 20
844.3723817204352
 30
0.0
  0
SPLINE
  5
8A
330
1F
100
AcDbEntity
  8
0
  6
Continuous
 62
     7
370
    25
100
AcDbSpline
210
0.0
220
0.0
230
1.0
 70
     8
 71
     3
 72
    22
 73
    18
 74
     0
 42
0.00000001
 43
0.00000001
 40
0.0
 40
0.0
 40
0.0
 40
0.0
 40
0.0625
 40
0.0625
 40
0.125
 40
0.125
 40
0.1875
 40
0.1875
 40
0.25
 40
0.25
 40
0.3125
 40
0.3125
 40
0.375
 40
0.375
 40
0.4375
 40
0.4375
 40
0.5
 40
0.5
 40
0.5
 40
0.5
 10
27.49714342233003
 20
844.3723817204352
 30
0.0
 10
27.19934229531026
 20
844.3723817204352
 30
0.0
 10
26.91145140118409
 20
844.3150837458189
 30
0.0
 10
26.36075999783302
 20
844.0871375913518
 30
0.0
 10
26.11692381440163
 20
843.9240396095557
 30
0.0
 10
25.69538251491896
 20
843.5027043466549
 30
0.0
 10
25.53252215125126
 20
843.2587093918784
 30
0.0
 10
25.30430679710796
 20
842.7081294946317
 30
0.0
 10
25.24721626723212
 20
842.4203835869823
 30
0.0
 10
25.24707057742789
 20
841.8243798538887
 30
0.0
 10
25.30444139696822
 20
841.5366896993035
 30
0.0
 10
25.53238755139101
 20
840.9859982959169
 30
0.0
 10
25.69548553325232
 20
840.7421621124245
 30
0.0
 10
26.11682079606823
 20
840.320620813105
 30
0.0
 10
26.3608157510655
 20
840.1577604493477
 30
0.0
 10
26.91139564795156
 20
839.9295450952218
 30
0.0
 10
27.19840822222544
 20
839.8724547446051
 30
0.0
 10
27.49714342233003
 20
839.8723817204354
 30
0.0
  0
SPLINE
  5
8B
330
1F
100
AcDbEntity
  8
0
  6
Continuous
 62
     7
370
    25
100
AcDbSpline
210
0.0
220
0.0
230
1.0
 70
     8
 71
     3
 72
    22
 73
    18
 74
     0
 42
0.00000001
 43
0.00000001
 40
0.5
 40
0.5
 40
0.5
 40
0.5
 40
0.5625
 40
0.5625
 40
0.625
 40
0.625
 40
0.6875
 40
0.6875
 40
0.75
 40
0.75
 40
0.8125
 40
0.8125
 40
0.875
 40
0.875
 40
0.9375
 40
0.9375
 40
1.0
 40
1.0
 40
1.0
 40
1.0
 10
27.49714342233331
 20
49.87238172042963
 30
0.0
 10
27.79463644229926
 20
49.87230899990469
 30
0.0
 10
28.08283544338111
 20
49.92967969500484
 30
0.0
 10
28.63352684692841
 20
50.15762584955397
 30
0.0
 10
28.87736303022022
 20
50.32072383121245
 30
0.0
 10
29.29890432978585
 20
50.74205909430773
 30
0.0
 10
29.46176469341203
 20
50.98605404898527
 30
0.0
 10
29.68998004755538
 20
51.53663394623109
 30
0.0
 10
29.74707057743123
 20
51.82437985388422
 30
0.0
 10
29.74721626723545
 20
52.42038358697521
 30
0.0
 10
29.68984544773765
 20
52.70807374145314
 30
0.0
 10
29.46189929322976
 20
53.25876514504935
 30
0.0
 10
29.29880131171927
 20
53.50260132819318
 30
0.0
 10
28.87746604828687
 20
53.92414262800549
 30
0.0
 10
28.63364726800996
 20
54.08692996734699
 30
0.0
 10
28.08271502229956
 20
54.31529136981305
 30
0.0
 10
27.79570244802568
 20
54.3723817204298
 30
0.0
 10
27.49714342233331
 20
54.3723817204298
 30
0.0
  0
SPLINE
  5
8C
330
1F
100
AcDbEntity
  8
0
  6
Continuous
 62
     7
370
    25
100
AcDbSpline
210
0.0
220
0.0
230
1.0
 70
     8
 71
     3
 72
    22
 73
    18
 74
     0
 42
0.00000001
 43
0.00000001
 40
0.0
 40
0.0
 40
0.0
 40
0.0
 40
0.0625
 40
0.0625
 40
0.125
 40
0.125
 40
0.1875
 40
0.1875
 40
0.25
 40
0.25
 40
0.3125
 40
0.3125
 40
0.375
 40
0.375
 40
0.4375
 40
0.4375
 40
0.5
 40
0.5
 40
0.5
 40
0.5
 10
27.49714342233331
 20
54.3723817204298
 30
0.0
 10
27.19934229523643
 20
54.3723817204298
 30
0.0
 10
26.91145140129012
 20
54.31508374585725
 30
0.0
 10
26.3607599977336
 20
54.08713759130279
 30
0.0
 10
26.11692381444772
 20
53.92403960965031
 30
0.0
 10
25.69538251487943
 20
53.50270434654836
 30
0.0
 10
25.53252215125459
 20
53.25870939187416
 30
0.0
 10
25.30430679711124
 20
52.70812949462833
 30
0.0
 10
25.24721626723544
 20
52.42038358697521
 30
0.0
 10
25.24707057743122
 20
51.82437985388422
 30
0.0
 10
25.30444139692897
 20
51.53668969940628
 30
0.0
 10
25.53238755143691
 20
50.98599829581008
 30
0.0
 10
25.69548553294745
 20
50.74216211266624
 30
0.0
 10
26.11682079637975
 20
50.32062081285393
 30
0.0
 10
26.36081575077767
 20
50.15776044934373
 30
0.0
 10
26.91139564824605
 20
49.92954509521508
 30
0.0
 10
27.19840822251991
 20
49.87245474459856
 30
0.0
 10
27.49714342233331
 20
49.87238172042963
 30
0.0
  0
SPLINE
  5
8D
330
1F
100
AcDbEntity
  8
0
  6
Continuous
 62
     7
370
    25
100
AcDbSpline
210
0.0
220
0.0
230
1.0
 70
     8
 71
     3
 72
    22
 73
    18
 74
     0
 42
0.00000001
 43
0.00000001
 40
0.5
 40
0.5
 40
0.5
 40
0.5
 40
0.5625
 40
0.5625
 40
0.625
 40
0.625
 40
0.6875
 40
0.6875
 40
0.75
 40
0.75
 40
0.8125
 40
0.8125
 40
0.875
 40
0.875
 40
0.9375
 40
0.9375
 40
1.0
 40
1.0
 40
1.0
 40
1.0
 10
27.49714342233602
 20
299.8723817204299
 30
0.0
 10
27.79463644213662
 20
299.8723089999049
 30
0.0
 10
28.08283544343512
 20
299.9296796950562
 30
0.0
 10
28.63352684687978
 20
300.1576258495024
 30
0.0
 10
28.87736303020169
 20
300.3207238311909
 30
0.0
 10
29.29890432980978
 20
300.7420590943289
 30
0.0
 10
29.46176469341474
 20
300.9860540489554
 30
0.0
 10
29.6899800475581
 20
301.5366339462613
 30
0.0
 10
29.74707057743389
 20
301.8243798538243
 30
0.0
 10
29.74721626723817
 20
302.4203835870356
 30
0.0
 10
29.68984544774036
 20
302.7080737415133
 30
0.0
 10
29.46189929323247
 20
303.2587651449894
 30
0.0
 10
29.29880131151631
 20
303.5026013283386
 30
0.0
 10
28.87746604849513
 20
303.92414262786
 30
0.0
 10
28.63364726786713
 20
304.0869299673473
 30
0.0
 10
28.08271502244778
 20
304.3152913698134
 30
0.0
 10
27.795702448174
 20
304.3723817204299
 30
0.0
 10
27.49714342233602
 20
304.3723817204299
 30
0.0
  0
SPLINE
  5
8E
330
1F
100
AcDbEntity
  8
0
  6
Continuous
 62
     7
370
    25
100
AcDbSpline
210
0.0
220
0.0
230
1.0
 70
     8
 71
     3
 72
    22
 73
    18
 74
     0
 42
0.00000001
 43
0.00000001
 40
0.0
 40
0.0
 40
0.0
 40
0.0
 40
0.0625
 40
0.0625
 40
0.125
 40
0.125
 40
0.1875
 40
0.1875
 40
0.25
 40
0.25
 40
0.3125
 40
0.3125
 40
0.375
 40
0.375
 40
0.4375
 40
0.4375
 40
0.5
 40
0.5
 40
0.5
 40
0.5
 10
27.49714342233603
 20
304.37238172043
 30
0.0
 10
27.19934229544316
 20
304.37238172043
 30
0.0
 10
26.91145140118997
 20
304.3150837457851
 30
0.0
 10
26.36075999783919
 20
304.0871375913757
 30
0.0
 10
26.11692381445038
 20
303.9240396096201
 30
0.0
 10
25.69538251488221
 20
303.5027043465786
 30
0.0
 10
25.53252215125726
 20
303.2587093919048
 30
0.0
 10
25.30430679711396
 20
302.708129494598
 30
0.0
 10
25.24721626723817
 20
302.4203835870357
 30
0.0
 10
25.24707057743389
 20
301.8243798538244
 30
0.0
 10
25.30444139693164
 20
301.5366896993464
 30
0.0
 10
25.53238755143959
 20
300.9859982958704
 30
0.0
 10
25.69548553315568
 20
300.7421621125206
 30
0.0
 10
26.11682079617686
 20
300.3206208129993
 30
0.0
 10
26.36081575092601
 20
300.1577604493434
 30
0.0
 10
26.91139564810316
 20
299.9295450952155
 30
0.0
 10
27.19840822237694
 20
299.872454744599
 30
0.0
 10
27.49714342233603
 20
299.87238172043
 30
0.0
  0
SPLINE
  5
8F
330
1F
100
AcDbEntity
  8
0
  6
Continuous
 62
     7
370
    25
100
AcDbSpline
210
0.0
220
0.0
230
1.0
 70
     8
 71
     3
 72
    22
 73
    18
 74
     0
 42
0.00000001
 43
0.00000001
 40
0.5
 40
0.5
 40
0.5
 40
0.5
 40
0.5625
 40
0.5625
 40
0.625
 40
0.625
 40
0.6875
 40
0.6875
 40
0.75
 40
0.75
 40
0.8125
 40
0.8125
 40
0.875
 40
0.875
 40
0.9375
 40
0.9375
 40
1.0
 40
1.0
 40
1.0
 40
1.0
 10
27.49714342233503
 20
549.8723817204299
 30
0.0
 10
27.79463644213551
 20
549.8723089999054
 30
0.0
 10
28.08283544343418
 20
549.9296796950574
 30
0.0
 10
28.63352684687878
 20
550.1576258495026
 30
0.0
 10
28.87736303020069
 20
550.3207238311905
 30
0.0
 10
29.29890432980878
 20
550.7420590943293
 30
0.0
 10
29.46176469341374
 20
550.9860540489561
 30
0.0
 10
29.68998004755717
 20
551.5366339462616
 30
0.0
 10
29.74707057743291
 20
551.8243798538239
 30
0.0
 10
29.74721626723717
 20
552.4203835870359
 30
0.0
 10
29.68984544773937
 20
552.7080737415123
 30
0.0
 10
29.46189929323148
 20
553.2587651449895
 30
0.0
 10
29.29880131151533
 20
553.5026013283392
 30
0.0
 10
28.87746604849414
 20
553.9241426278605
 30
0.0
 10
28.63364726786613
 20
554.0869299673467
 30
0.0
 10
28.08271502244677
 20
554.3152913698132
 30
0.0
 10
27.79570244817306
 20
554.3723817204298
 30
0.0
 10
27.49714342233503
 20
554.3723817204298
 30
0.0
  0
SPLINE
  5
90
330
1F
100
AcDbEntity
  8
0
  6
Continuous
 62
     7
370
    25
100
AcDbSpline
210
0.0
220
0.0
230
1.0
 70
     8
 71
     3
 72
    22
 73
    18
 74
     0
 42
0.00000001
 43
0.00000001
 40
0.0
 40
0.0
 40
0.0
 40
0.0
 40
0.0625
 40
0.0625
 40
0.125
 40
0.125
 40
0.1875
 40
0.1875
 40
0.25
 40
0.25
 40
0.3125
 40
0.3125
 40
0.375
 40
0.375
 40
0.4375
 40
0.4375
 40
0.5
 40
0.5
 40
0.5
 40
0.5
 10
27.49714342233504
 20
554.3723817204298
 30
0.0
 10
27.19934229544216
 20
554.3723817204298
 30
0.0
 10
26.91145140118897
 20
554.3150837457841
 30
0.0
 10
26.36075999783813
 20
554.0871375913758
 30
0.0
 10
26.11692381444938
 20
553.9240396096205
 30
0.0
 10
25.69538251488115
 20
553.5027043465791
 30
0.0
 10
25.53252215125632
 20
553.2587093919037
 30
0.0
 10
25.3043067971129
 20
552.7081294945982
 30
0.0
 10
25.24721626723717
 20
552.4203835870352
 30
0.0
 10
25.24707057743283
 20
551.8243798538244
 30
0.0
 10
25.3044413969307
 20
551.5366896993476
 30
0.0
 10
25.53238755143853
 20
550.9859982958701
 30
0.0
 10
25.69548553315468
 20
550.7421621125204
 30
0.0
 10
26.11682079617592
 20
550.3206208129992
 30
0.0
 10
26.360815750925
 20
550.1577604493447
 30
0.0
 10
26.91139564810216
 20
549.9295450952153
 30
0.0
 10
27.19840822237604
 20
549.8724547445985
 30
0.0
 10
27.49714342233504
 20
549.8723817204299
 30
0.0
  0
SPLINE
  5
FB
330
1F
100
AcDbEntity
  8
0
  6
Continuous
 62
     7
370
    25
100
AcDbSpline
210
0.0
220
0.0
230
1.0
 70
     8
 71
     3
 72
    22
 73
    18
 74
     0
 42
0.00000001
 43
0.00000001
 40
0.5
 40
0.5
 40
0.5
 40
0.5
 40
0.5625
 40
0.5625
 40
0.625
 40
0.625
 40
0.6875
 40
0.6875
 40
0.75
 40
0.75
 40
0.8125
 40
0.8125
 40
0.875
 40
0.875
 40
0.9375
 40
0.9375
 40
1.0
 40
1.0
 40
1.0
 40
1.0
 10
25.85114756393322
 20
990.0802389027704
 30
0.0
 10
26.14864058382202
 20
990.0801661822449
 30
0.0
 10
26.43683958508372
 20
990.1375368773867
 30
0.0
 10
26.98753098842563
 20
990.3654830318535
 30
0.0
 10
27.2313671719481
 20
990.5285810137401
 30
0.0
 10
27.65290847125787
 20
990.9499162764602
 30
0.0
 10
27.81576883501194
 20
991.1939112314499
 30
0.0
 10
28.04398418915524
 20
991.7444911284501
 30
0.0
 10
28.10107471903109
 20
992.0322370363431
 30
0.0
 10
28.10122040883531
 20
992.6282407691969
 30
0.0
 10
28.04384958920999
 20
992.9159309239806
 30
0.0
 10
27.8159034349573
 20
993.4666223272002
 30
0.0
 10
27.65280545321622
 20
993.7104585105764
 30
0.0
 10
27.2314701899897
 20
994.1319998103032
 30
0.0
 10
26.98765140960998
 20
994.2947871496864
 30
0.0
 10
26.43671916389942
 20
994.5231485521533
 30
0.0
 10
26.14970658962554
 20
994.58023890277
 30
0.0
 10
25.85114756393322
 20
994.58023890277
 30
0.0
  0
SPLINE
  5
FC
330
1F
100
AcDbEntity
  8
0
  6
Continuous
 62
     7
370
    25
100
AcDbSpline
210
0.0
220
0.0
230
1.0
 70
     8
 71
     3
 72
    22
 73
    18
 74
     0
 42
0.00000001
 43
0.00000001
 40
0.0
 40
0.0
 40
0.0
 40
0.0
 40
0.0625
 40
0.0625
 40
0.125
 40
0.125
 40
0.1875
 40
0.1875
 40
0.25
 40
0.25
 40
0.3125
 40
0.3125
 40
0.375
 40
0.375
 40
0.4375
 40
0.4375
 40
0.5
 40
0.5
 40
0.5
 40
0.5
 10
25.85114756393322
 20
994.58023890277
 30
0.0
 10
25.55334643691341
 20
994.58023890277
 30
0.0
 10
25.26545554278734
 20
994.5229409281529
 30
0.0
 10
24.71476413943621
 20
994.2949947736867
 30
0.0
 10
24.47092795591964
 20
994.1318967918028
 30
0.0
 10
24.04938665660726
 20
993.7105615290768
 30
0.0
 10
23.8865262928544
 20
993.4665665740905
 30
0.0
 10
23.65831093871121
 20
992.9159866770902
 30
0.0
 10
23.60122040883525
 20
992.6282407691965
 30
0.0
 10
23.60107471903114
 20
992.0322370363433
 30
0.0
 10
23.65844553865645
 20
991.7445468815598
 30
0.0
 10
23.88639169290921
 20
991.1938554783402
 30
0.0
 10
24.04948967465025
 20
990.9500192949636
 30
0.0
 10
24.47082493787682
 20
990.5284779952367
 30
0.0
 10
24.71481989237759
 20
990.3656176316834
 30
0.0
 10
25.26539978984592
 20
990.1374022775567
 30
0.0
 10
25.55241236411973
 20
990.0803119269398
 30
0.0
 10
25.85114756393322
 20
990.0802389027704
 30
0.0
  0
SPLINE
  5
FD
330
1F
100
AcDbEntity
  8
0
  6
Continuous
 62
     7
370
    25
100
AcDbSpline
210
0.0
220
0.0
230
1.0
 70
     8
 71
     3
 72
    22
 73
    18
 74
     0
 42
0.00000001
 43
0.00000001
 40
0.5
 40
0.5
 40
0.5
 40
0.5
 40
0.5625
 40
0.5625
 40
0.625
 40
0.625
 40
0.6875
 40
0.6875
 40
0.75
 40
0.75
 40
0.8125
 40
0.8125
 40
0.875
 40
0.875
 40
0.9375
 40
0.9375
 40
1.0
 40
1.0
 40
1.0
 40
1.0
 10
25.8511475643632
 20
976.4568165923304
 30
0.0
 10
26.14864058425206
 20
976.456743871805
 30
0.0
 10
26.43683958551371
 20
976.514114566947
 30
0.0
 10
26.98753098885562
 20
976.7420607214134
 30
0.0
 10
27.23136717237804
 20
976.9051587032994
 30
0.0
 10
27.65290847168786
 20
977.3264939660202
 30
0.0
 10
27.81576883544204
 20
977.57048892101
 30
0.0
 10
28.04398418958522
 20
978.1210688180101
 30
0.0
 10
28.10107471946113
 20
978.4088147259034
 30
0.0
 10
28.1012204092653
 20
979.0048184587566
 30
0.0
 10
28.04384958963999
 20
979.2925086135399
 30
0.0
 10
27.81590343538723
 20
979.8432000167602
 30
0.0
 10
27.65280545364621
 20
980.0870362001373
 30
0.0
 10
27.23147019041963
 20
980.5085774998635
 30
0.0
 10
26.98765141003998
 20
980.6713648392464
 30
0.0
 10
26.43671916432941
 20
980.8997262417134
 30
0.0
 10
26.14970659005558
 20
980.9568165923301
 30
0.0
 10
25.8511475643632
 20
980.9568165923301
 30
0.0
  0
SPLINE
  5
FE
330
1F
100
AcDbEntity
  8
0
  6
Continuous
 62
     7
370
    25
100
AcDbSpline
210
0.0
220
0.0
230
1.0
 70
     8
 71
     3
 72
    22
 73
    18
 74
     0
 42
0.00000001
 43
0.00000001
 40
0.0
 40
0.0
 40
0.0
 40
0.0
 40
0.0625
 40
0.0625
 40
0.125
 40
0.125
 40
0.1875
 40
0.1875
 40
0.25
 40
0.25
 40
0.3125
 40
0.3125
 40
0.375
 40
0.375
 40
0.4375
 40
0.4375
 40
0.5
 40
0.5
 40
0.5
 40
0.5
 10
25.85114756454313
 20
23.54318340813988
 30
0.0
 10
25.55334643744614
 20
23.54318340813988
 30
0.0
 10
25.26545554349993
 20
23.48588543356733
 30
0.0
 10
24.71476413994342
 20
23.25793927901287
 30
0.0
 10
24.47092795665753
 20
23.09484129736039
 30
0.0
 10
24.0493866570893
 20
22.67350603425844
 30
0.0
 10
23.88652629346441
 20
22.42951107958424
 30
0.0
 10
23.65831093932105
 20
21.87893118233841
 30
0.0
 10
23.60122040944532
 20
21.59118527468529
 30
0.0
 10
23.60107471964098
 20
20.9951815415943
 30
0.0
 10
23.65844553913879
 20
20.70749138711658
 30
0.0
 10
23.88639169364668
 20
20.15679998351994
 30
0.0
 10
24.04948967515721
 20
19.91296380037632
 30
0.0
 10
24.47082493858951
 20
19.49142250056401
 30
0.0
 10
24.71481989298749
 20
19.32856213705381
 30
0.0
 10
25.26539979045581
 20
19.10034678292516
 30
0.0
 10
25.55241236472969
 20
19.04325643230864
 30
0.0
 10
25.85114756454313
 20
19.04318340813971
 30
0.0
  0
SPLINE
  5
FF
330
1F
100
AcDbEntity
  8
0
  6
Continuous
 62
     7
370
    25
100
AcDbSpline
210
0.0
220
0.0
230
1.0
 70
     8
 71
     3
 72
    22
 73
    18
 74
     0
 42
0.00000001
 43
0.00000001
 40
0.0
 40
0.0
 40
0.0
 40
0.0
 40
0.0625
 40
0.0625
 40
0.125
 40
0.125
 40
0.1875
 40
0.1875
 40
0.25
 40
0.25
 40
0.3125
 40
0.3125
 40
0.375
 40
0.375
 40
0.4375
 40
0.4375
 40
0.5
 40
0.5
 40
0.5
 40
0.5
 10
25.85114756436321
 20
980.9568165923301
 30
0.0
 10
25.55334643734339
 20
980.9568165923301
 30
0.0
 10
25.26545554321727
 20
980.899518617713
 30
0.0
 10
24.7147641398662
 20
980.6715724632468
 30
0.0
 10
24.47092795634973
 20
980.5084744813639
 30
0.0
 10
24.04938665703724
 20
980.0871392186368
 30
0.0
 10
23.88652629328444
 20
979.8431442636498
 30
0.0
 10
23.6583109391412
 20
979.2925643666503
 30
0.0
 10
23.60122040926534
 20
979.0048184587566
 30
0.0
 10
23.60107471946107
 20
978.4088147259034
 30
0.0
 10
23.65844553908644
 20
978.1211245711199
 30
0.0
 10
23.8863916933392
 20
977.5704331679003
 30
0.0
 10
24.04948967508022
 20
977.3265969845229
 30
0.0
 10
24.47082493830679
 20
976.9050556847967
 30
0.0
 10
24.71481989280763
 20
976.7421953212435
 30
0.0
 10
25.26539979027589
 20
976.5139799671168
 30
0.0
 10
25.55241236454978
 20
976.4568896164999
 30
0.0
 10
25.85114756436321
 20
976.4568165923304
 30
0.0
  0
SPLINE
  5
100
330
1F
100
AcDbEntity
  8
0
  6
Continuous
 62
     7
370
    25
100
AcDbSpline
210
0.0
220
0.0
230
1.0
 70
     8
 71
     3
 72
    22
 73
    18
 74
     0
 42
0.00000001
 43
0.00000001
 40
0.5
 40
0.5
 40
0.5
 40
0.5
 40
0.5625
 40
0.5625
 40
0.625
 40
0.625
 40
0.6875
 40
0.6875
 40
0.75
 40
0.75
 40
0.8125
 40
0.8125
 40
0.875
 40
0.875
 40
0.9375
 40
0.9375
 40
1.0
 40
1.0
 40
1.0
 40
1.0
 10
25.85114756398313
 20
5.419761097709808
 30
0.0
 10
26.14864058394908
 20
5.419688377184873
 30
0.0
 10
26.43683958503083
 20
5.477059072285018
 30
0.0
 10
26.9875309885783
 20
5.705005226834148
 30
0.0
 10
27.23136717187
 20
5.868103208492625
 30
0.0
 10
27.65290847143562
 20
6.289438471587916
 30
0.0
 10
27.81576883506184
 20
6.533433426265445
 30
0.0
 10
28.04398418920522
 20
7.084013323511273
 30
0.0
 10
28.10107471908105
 20
7.371759231164399
 30
0.0
 10
28.10122040888522
 20
7.967762964255387
 30
0.0
 10
28.04384958938747
 20
8.255453118733103
 30
0.0
 10
27.81590343487952
 20
8.80614452232975
 30
0.0
 10
27.65280545336909
 20
9.04998070547336
 30
0.0
 10
27.23147018993669
 20
9.47152200528567
 30
0.0
 10
26.98765140965978
 20
9.634309344626946
 30
0.0
 10
26.43671916394927
 20
9.86267074709346
 30
0.0
 10
26.14970658967544
 20
9.919761097709978
 30
0.0
 10
25.85114756398313
 20
9.919761097709978
 30
0.0
  0
SPLINE
  5
101
330
1F
100
AcDbEntity
  8
0
  6
Continuous
 62
     7
370
    25
100
AcDbSpline
210
0.0
220
0.0
230
1.0
 70
     8
 71
     3
 72
    22
 73
    18
 74
     0
 42
0.00000001
 43
0.00000001
 40
0.0
 40
0.0
 40
0.0
 40
0.0
 40
0.0625
 40
0.0625
 40
0.125
 40
0.125
 40
0.1875
 40
0.1875
 40
0.25
 40
0.25
 40
0.3125
 40
0.3125
 40
0.375
 40
0.375
 40
0.4375
 40
0.4375
 40
0.5
 40
0.5
 40
0.5
 40
0.5
 10
25.85114756398313
 20
9.919761097709978
 30
0.0
 10
25.55334643688614
 20
9.919761097709978
 30
0.0
 10
25.26545554293988
 20
9.862463123137433
 30
0.0
 10
24.71476413938342
 20
9.634516968583196
 30
0.0
 10
24.47092795609754
 20
9.471418986930491
 30
0.0
 10
24.0493866565292
 20
9.05008372382854
 30
0.0
 10
23.88652629290436
 20
8.806088769154341
 30
0.0
 10
23.65831093876106
 20
8.255508871908512
 30
0.0
 10
23.60122040888521
 20
7.967762964255387
 30
0.0
 10
23.60107471908099
 20
7.371759231164399
 30
0.0
 10
23.65844553857879
 20
7.084069076686905
 30
0.0
 10
23.88639169308673
 20
6.533377673090035
 30
0.0
 10
24.04948967459722
 20
6.289541489946426
 30
0.0
 10
24.47082493802957
 20
5.868000190134337
 30
0.0
 10
24.71481989242755
 20
5.705139826624128
 30
0.0
 10
25.26539978989581
 20
5.476924472495259
 30
0.0
 10
25.55241236416964
 20
5.419834121878742
 30
0.0
 10
25.85114756398313
 20
5.419761097709808
 30
0.0
  0
SPLINE
  5
102
330
1F
100
AcDbEntity
  8
0
  6
Continuous
 62
     7
370
    25
100
AcDbSpline
210
0.0
220
0.0
230
1.0
 70
     8
 71
     3
 72
    22
 73
    18
 74
     0
 42
0.00000001
 43
0.00000001
 40
0.5
 40
0.5
 40
0.5
 40
0.5
 40
0.5625
 40
0.5625
 40
0.625
 40
0.625
 40
0.6875
 40
0.6875
 40
0.75
 40
0.75
 40
0.8125
 40
0.8125
 40
0.875
 40
0.875
 40
0.9375
 40
0.9375
 40
1.0
 40
1.0
 40
1.0
 40
1.0
 10
25.85114756454313
 20
19.04318340813971
 30
0.0
 10
26.14864058450902
 20
19.04311068761477
 30
0.0
 10
26.43683958559089
 20
19.10048138271514
 30
0.0
 10
26.98753098913823
 20
19.32842753726405
 30
0.0
 10
27.23136717243005
 20
19.49152551892253
 30
0.0
 10
27.65290847199567
 20
19.91286078201782
 30
0.0
 10
27.81576883562184
 20
20.15685573669534
 30
0.0
 10
28.04398418976521
 20
20.70743563394139
 30
0.0
 10
28.10107471964099
 20
20.9951815415943
 30
0.0
 10
28.10122040944521
 20
21.59118527468551
 30
0.0
 10
28.04384958994752
 20
21.87887542916322
 30
0.0
 10
27.81590343543958
 20
22.42956683275965
 30
0.0
 10
27.65280545392904
 20
22.67340301590348
 30
0.0
 10
27.23147019049669
 20
23.09494431571557
 30
0.0
 10
26.98765141021983
 20
23.25773165505684
 30
0.0
 10
26.43671916450932
 20
23.48609305752336
 30
0.0
 10
26.14970659023549
 20
23.5431834081401
 30
0.0
 10
25.85114756454313
 20
23.5431834081401
 30
0.0
  0
LINE
  5
103
330
1F
100
AcDbEntity
  8
0
  6
Continuous
 62
     7
370
    25
100
AcDbLine
 10
61.432270211
 20
972.6457149023
 30
0.0
 11
36.6334799895
 21
966.3683350912
 31
0.0
  0
LINE
  5
104
330
1F
100
AcDbEntity
  8
0
  6
Continuous
 62
     7
370
    25
100
AcDbLine
 10
36.6334799895
 20
966.3683350912
 30
0.0
 11
36.6334799895
 21
964.0589340149
 31
0.0
  0
LINE
  5
105
330
1F
100
AcDbEntity
  8
0
  6
Continuous
 62
     7
370
    25
100
AcDbLine
 10
36.6334799895
 20
964.0589340149
 30
0.0
 11
61.4322702109
 21
970.3363138401
 31
0.0
  0
LINE
  5
106
330
1F
100
AcDbEntity
  8
0
  6
Continuous
 62
     7
370
    25
100
AcDbLine
 10
62.6459328087
 20
971.2374356588
 30
0.0
 11
61.4322702109
 21
970.3363138401
 31
0.0
  0
LINE
  5
107
330
1F
100
AcDbEntity
  8
0
  6
Continuous
 62
     7
370
    25
100
AcDbLine
 10
62.6459328087
 20
971.2374356588
 30
0.0
 11
86.7990923367
 21
985.1822688192
 31
0.0
  0
LINE
  5
108
330
1F
100
AcDbEntity
  8
0
  6
Continuous
 62
     7
370
    25
100
AcDbLine
 10
86.7990923367
 20
985.1822688192
 30
0.0
 11
86.7990923367
 21
987.4916698962
 31
0.0
  0
LINE
  5
109
330
1F
100
AcDbEntity
  8
0
  6
Continuous
 62
     7
370
    25
100
AcDbLine
 10
86.7990923367
 20
987.4916698962
 30
0.0
 11
62.6459328087
 21
973.5468367514
 31
0.0
  0
LINE
  5
10A
330
1F
100
AcDbEntity
  8
0
  6
Continuous
 62
     7
370
    25
100
AcDbLine
 10
61.432270211
 20
972.6457149023
 30
0.0
 11
62.6459328087
 21
973.5468367514
 31
0.0
  0
LINE
  5
10B
330
1F
100
AcDbEntity
  8
0
  6
Continuous
 62
     7
370
    25
100
AcDbLine
 10
86.7990923367
 20
732.4916698962
 30
0.0
 11
86.7990923367
 21
730.1822688192
 31
0.0
  0
LINE
  5
10C
330
1F
100
AcDbEntity
  8
0
  6
Continuous
 62
     7
370
    25
100
AcDbLine
 10
62.6459328087
 20
718.5468367407
 30
0.0
 11
86.7990923367
 21
732.4916698962
 31
0.0
  0
LINE
  5
10D
330
1F
100
AcDbEntity
  8
0
  6
Continuous
 62
     7
370
    25
100
AcDbLine
 10
61.4322702115
 20
717.6457149005
 30
0.0
 11
62.6459328087
 21
718.5468367407
 31
0.0
  0
LINE
  5
10E
330
1F
100
AcDbEntity
  8
0
  6
Continuous
 62
     7
370
    25
100
AcDbLine
 10
36.6334799892
 20
711.3683350912
 30
0.0
 11
61.4322702115
 21
717.6457149005
 31
0.0
  0
LINE
  5
10F
330
1F
100
AcDbEntity
  8
0
  6
Continuous
 62
     7
370
    25
100
AcDbLine
 10
36.6334799893
 20
709.0589340149
 30
0.0
 11
36.6334799892
 21
711.3683350912
 31
0.0
  0
LINE
  5
110
330
1F
100
AcDbEntity
  8
0
  6
Continuous
 62
     7
370
    25
100
AcDbLine
 10
61.4322702121
 20
715.3363138244
 30
0.0
 11
36.6334799893
 21
709.0589340149
 31
0.0
  0
LINE
  5
111
330
1F
100
AcDbEntity
  8
0
  6
Continuous
 62
     7
370
    25
100
AcDbLine
 10
62.6459328087
 20
716.2374356615
 30
0.0
 11
61.4322702121
 21
715.3363138244
 31
0.0
  0
LINE
  5
112
330
1F
100
AcDbEntity
  8
0
  6
Continuous
 62
     7
370
    25
100
AcDbLine
 10
86.7990923367
 20
730.1822688192
 30
0.0
 11
62.6459328087
 21
716.2374356615
 31
0.0
  0
LINE
  5
113
330
1F
100
AcDbEntity
  8
0
  6
Continuous
 62
     7
370
    25
100
AcDbLine
 10
36.6334799892
 20
31.3683350912
 30
0.0
 11
61.432270211
 21
37.6457149005
 31
0.0
  0
LINE
  5
114
330
1F
100
AcDbEntity
  8
0
  6
Continuous
 62
     7
370
    25
100
AcDbLine
 10
36.6334799892
 20
29.0589340149
 30
0.0
 11
36.6334799892
 21
31.3683350912
 31
0.0
  0
LINE
  5
115
330
1F
100
AcDbEntity
  8
0
  6
Continuous
 62
     7
370
    25
100
AcDbLine
 10
61.4322702109
 20
35.3363138239
 30
0.0
 11
36.6334799892
 21
29.0589340149
 31
0.0
  0
LINE
  5
116
330
1F
100
AcDbEntity
  8
0
  6
Continuous
 62
     7
370
    25
100
AcDbLine
 10
62.6459328087
 20
36.2374356641
 30
0.0
 11
61.4322702109
 21
35.3363138239
 31
0.0
  0
LINE
  5
117
330
1F
100
AcDbEntity
  8
0
  6
Continuous
 62
     7
370
    25
100
AcDbLine
 10
86.7990923366
 20
50.1822688192
 30
0.0
 11
62.6459328087
 21
36.2374356641
 31
0.0
  0
LINE
  5
118
330
1F
100
AcDbEntity
  8
0
  6
Continuous
 62
     7
370
    25
100
AcDbLine
 10
86.7990923366
 20
52.4916698962
 30
0.0
 11
86.7990923366
 21
50.1822688192
 31
0.0
  0
LINE
  5
119
330
1F
100
AcDbEntity
  8
0
  6
Continuous
 62
     7
370
    25
100
AcDbLine
 10
62.6459328087
 20
38.5468367407
 30
0.0
 11
86.7990923366
 21
52.4916698962
 31
0.0
  0
LINE
  5
11A
330
1F
100
AcDbEntity
  8
0
  6
Continuous
 62
     7
370
    25
100
AcDbLine
 10
61.432270211
 20
37.6457149005
 30
0.0
 11
62.6459328087
 21
38.5468367407
 31
0.0
  0
LINE
  5
11B
330
1F
100
AcDbEntity
  8
0
  6
Continuous
 62
     7
370
    25
100
AcDbLine
 10
36.6334799892
 20
116.3683350912
 30
0.0
 11
61.432270211
 21
122.6457149005
 31
0.0
  0
LINE
  5
11C
330
1F
100
AcDbEntity
  8
0
  6
Continuous
 62
     7
370
    25
100
AcDbLine
 10
36.6334799892
 20
114.0589340149
 30
0.0
 11
36.6334799892
 21
116.3683350912
 31
0.0
  0
LINE
  5
11D
330
1F
100
AcDbEntity
  8
0
  6
Continuous
 62
     7
370
    25
100
AcDbLine
 10
61.4322702109
 20
120.3363138239
 30
0.0
 11
36.6334799892
 21
114.0589340149
 31
0.0
  0
LINE
  5
11E
330
1F
100
AcDbEntity
  8
0
  6
Continuous
 62
     7
370
    25
100
AcDbLine
 10
62.6459328087
 20
121.2374356641
 30
0.0
 11
61.4322702109
 21
120.3363138239
 31
0.0
  0
LINE
  5
11F
330
1F
100
AcDbEntity
  8
0
  6
Continuous
 62
     7
370
    25
100
AcDbLine
 10
86.7990923367
 20
135.1822688192
 30
0.0
 11
62.6459328087
 21
121.2374356641
 31
0.0
  0
LINE
  5
120
330
1F
100
AcDbEntity
  8
0
  6
Continuous
 62
     7
370
    25
100
AcDbLine
 10
86.7990923367
 20
137.4916698962
 30
0.0
 11
86.7990923367
 21
135.1822688192
 31
0.0
  0
LINE
  5
121
330
1F
100
AcDbEntity
  8
0
  6
Continuous
 62
     7
370
    25
100
AcDbLine
 10
62.6459328087
 20
123.5468367407
 30
0.0
 11
86.7990923367
 21
137.4916698962
 31
0.0
  0
LINE
  5
122
330
1F
100
AcDbEntity
  8
0
  6
Continuous
 62
     7
370
    25
100
AcDbLine
 10
61.432270211
 20
122.6457149005
 30
0.0
 11
62.6459328087
 21
123.5468367407
 31
0.0
  0
LINE
  5
123
330
1F
100
AcDbEntity
  8
0
  6
Continuous
 62
     7
370
    25
100
AcDbLine
 10
36.6334799892
 20
201.3683350912
 30
0.0
 11
61.432270211
 21
207.6457149005
 31
0.0
  0
LINE
  5
124
330
1F
100
AcDbEntity
  8
0
  6
Continuous
 62
     7
370
    25
100
AcDbLine
 10
36.6334799892
 20
199.0589340149
 30
0.0
 11
36.6334799892
 21
201.3683350912
 31
0.0
  0
LINE
  5
125
330
1F
100
AcDbEntity
  8
0
  6
Continuous
 62
     7
370
    25
100
AcDbLine
 10
61.4322702109
 20
205.3363138239
 30
0.0
 11
36.6334799892
 21
199.0589340149
 31
0.0
  0
LINE
  5
126
330
1F
100
AcDbEntity
  8
0
  6
Continuous
 62
     7
370
    25
100
AcDbLine
 10
62.6459328087
 20
206.2374356641
 30
0.0
 11
61.4322702109
 21
205.3363138239
 31
0.0
  0
LINE
  5
127
330
1F
100
AcDbEntity
  8
0
  6
Continuous
 62
     7
370
    25
100
AcDbLine
 10
86.7990923367
 20
220.1822688192
 30
0.0
 11
62.6459328087
 21
206.2374356641
 31
0.0
  0
LINE
  5
128
330
1F
100
AcDbEntity
  8
0
  6
Continuous
 62
     7
370
    25
100
AcDbLine
 10
86.7990923367
 20
222.4916698962
 30
0.0
 11
86.7990923367
 21
220.1822688192
 31
0.0
  0
LINE
  5
129
330
1F
100
AcDbEntity
  8
0
  6
Continuous
 62
     7
370
    25
100
AcDbLine
 10
62.6459328087
 20
208.5468367407
 30
0.0
 11
86.7990923367
 21
222.4916698962
 31
0.0
  0
LINE
  5
12A
330
1F
100
AcDbEntity
  8
0
  6
Continuous
 62
     7
370
    25
100
AcDbLine
 10
61.432270211
 20
207.6457149005
 30
0.0
 11
62.6459328087
 21
208.5468367407
 31
0.0
  0
LINE
  5
12B
330
1F
100
AcDbEntity
  8
0
  6
Continuous
 62
     7
370
    25
100
AcDbLine
 10
36.6334799892
 20
286.3683350912
 30
0.0
 11
61.432270211
 21
292.6457149005
 31
0.0
  0
LINE
  5
12C
330
1F
100
AcDbEntity
  8
0
  6
Continuous
 62
     7
370
    25
100
AcDbLine
 10
36.6334799892
 20
284.0589340149
 30
0.0
 11
36.6334799892
 21
286.3683350912
 31
0.0
  0
LINE
  5
12D
330
1F
100
AcDbEntity
  8
0
  6
Continuous
 62
     7
370
    25
100
AcDbLine
 10
61.4322702109
 20
290.3363138239
 30
0.0
 11
36.6334799892
 21
284.0589340149
 31
0.0
  0
LINE
  5
12E
330
1F
100
AcDbEntity
  8
0
  6
Continuous
 62
     7
370
    25
100
AcDbLine
 10
62.6459328087
 20
291.2374356641
 30
0.0
 11
61.4322702109
 21
290.3363138239
 31
0.0
  0
LINE
  5
12F
330
1F
100
AcDbEntity
  8
0
  6
Continuous
 62
     7
370
    25
100
AcDbLine
 10
86.7990923367
 20
305.1822688192
 30
0.0
 11
62.6459328087
 21
291.2374356641
 31
0.0
  0
LINE
  5
130
330
1F
100
AcDbEntity
  8
0
  6
Continuous
 62
     7
370
    25
100
AcDbLine
 10
86.7990923367
 20
307.4916698962
 30
0.0
 11
86.7990923367
 21
305.1822688192
 31
0.0
  0
LINE
  5
131
330
1F
100
AcDbEntity
  8
0
  6
Continuous
 62
     7
370
    25
100
AcDbLine
 10
62.6459328087
 20
293.5468367407
 30
0.0
 11
86.7990923367
 21
307.4916698962
 31
0.0
  0
LINE
  5
132
330
1F
100
AcDbEntity
  8
0
  6
Continuous
 62
     7
370
    25
100
AcDbLine
 10
61.432270211
 20
292.6457149005
 30
0.0
 11
62.6459328087
 21
293.5468367407
 31
0.0
  0
LINE
  5
133
330
1F
100
AcDbEntity
  8
0
  6
Continuous
 62
     7
370
    25
100
AcDbLine
 10
36.6334799892
 20
371.3683350912
 30
0.0
 11
61.432270211
 21
377.6457149005
 31
0.0
  0
LINE
  5
134
330
1F
100
AcDbEntity
  8
0
  6
Continuous
 62
     7
370
    25
100
AcDbLine
 10
36.6334799892
 20
369.0589340149
 30
0.0
 11
36.6334799892
 21
371.3683350912
 31
0.0
  0
LINE
  5
135
330
1F
100
AcDbEntity
  8
0
  6
Continuous
 62
     7
370
    25
100
AcDbLine
 10
61.4322702109
 20
375.3363138239
 30
0.0
 11
36.6334799892
 21
369.0589340149
 31
0.0
  0
LINE
  5
136
330
1F
100
AcDbEntity
  8
0
  6
Continuous
 62
     7
370
    25
100
AcDbLine
 10
62.6459328087
 20
376.2374356641
 30
0.0
 11
61.4322702109
 21
375.3363138239
 31
0.0
  0
LINE
  5
137
330
1F
100
AcDbEntity
  8
0
  6
Continuous
 62
     7
370
    25
100
AcDbLine
 10
86.7990923367
 20
390.1822688192
 30
0.0
 11
62.6459328087
 21
376.2374356641
 31
0.0
  0
LINE
  5
138
330
1F
100
AcDbEntity
  8
0
  6
Continuous
 62
     7
370
    25
100
AcDbLine
 10
86.7990923367
 20
392.4916698962
 30
0.0
 11
86.7990923367
 21
390.1822688192
 31
0.0
  0
LINE
  5
139
330
1F
100
AcDbEntity
  8
0
  6
Continuous
 62
     7
370
    25
100
AcDbLine
 10
62.6459328087
 20
378.5468367407
 30
0.0
 11
86.7990923367
 21
392.4916698962
 31
0.0
  0
LINE
  5
13A
330
1F
100
AcDbEntity
  8
0
  6
Continuous
 62
     7
370
    25
100
AcDbLine
 10
61.432270211
 20
377.6457149005
 30
0.0
 11
62.6459328087
 21
378.5468367407
 31
0.0
  0
LINE
  5
13B
330
1F
100
AcDbEntity
  8
0
  6
Continuous
 62
     7
370
    25
100
AcDbLine
 10
36.6334799892
 20
456.3683350912
 30
0.0
 11
61.432270211
 21
462.6457149005
 31
0.0
  0
LINE
  5
13C
330
1F
100
AcDbEntity
  8
0
  6
Continuous
 62
     7
370
    25
100
AcDbLine
 10
36.6334799892
 20
454.0589340149
 30
0.0
 11
36.6334799892
 21
456.3683350912
 31
0.0
  0
LINE
  5
13D
330
1F
100
AcDbEntity
  8
0
  6
Continuous
 62
     7
370
    25
100
AcDbLine
 10
61.4322702109
 20
460.3363138239
 30
0.0
 11
36.6334799892
 21
454.0589340149
 31
0.0
  0
LINE
  5
13E
330
1F
100
AcDbEntity
  8
0
  6
Continuous
 62
     7
370
    25
100
AcDbLine
 10
62.6459328087
 20
461.2374356641
 30
0.0
 11
61.4322702109
 21
460.3363138239
 31
0.0
  0
LINE
  5
13F
330
1F
100
AcDbEntity
  8
0
  6
Continuous
 62
     7
370
    25
100
AcDbLine
 10
86.7990923367
 20
475.1822688192
 30
0.0
 11
62.6459328087
 21
461.2374356641
 31
0.0
  0
LINE
  5
140
330
1F
100
AcDbEntity
  8
0
  6
Continuous
 62
     7
370
    25
100
AcDbLine
 10
86.7990923367
 20
477.4916698962
 30
0.0
 11
86.7990923367
 21
475.1822688192
 31
0.0
  0
LINE
  5
141
330
1F
100
AcDbEntity
  8
0
  6
Continuous
 62
     7
370
    25
100
AcDbLine
 10
62.6459328087
 20
463.5468367407
 30
0.0
 11
86.7990923367
 21
477.4916698962
 31
0.0
  0
LINE
  5
142
330
1F
100
AcDbEntity
  8
0
  6
Continuous
 62
     7
370
    25
100
AcDbLine
 10
61.432270211
 20
462.6457149005
 30
0.0
 11
62.6459328087
 21
463.5468367407
 31
0.0
  0
LINE
  5
143
330
1F
100
AcDbEntity
  8
0
  6
Continuous
 62
     7
370
    25
100
AcDbLine
 10
36.6334799892
 20
541.3683350912
 30
0.0
 11
61.432270211
 21
547.6457149005
 31
0.0
  0
LINE
  5
144
330
1F
100
AcDbEntity
  8
0
  6
Continuous
 62
     7
370
    25
100
AcDbLine
 10
36.6334799892
 20
539.0589340149
 30
0.0
 11
36.6334799892
 21
541.3683350912
 31
0.0
  0
LINE
  5
145
330
1F
100
AcDbEntity
  8
0
  6
Continuous
 62
     7
370
    25
100
AcDbLine
 10
61.4322702109
 20
545.3363138239
 30
0.0
 11
36.6334799892
 21
539.0589340149
 31
0.0
  0
LINE
  5
146
330
1F
100
AcDbEntity
  8
0
  6
Continuous
 62
     7
370
    25
100
AcDbLine
 10
62.6459328087
 20
546.2374356641
 30
0.0
 11
61.4322702109
 21
545.3363138239
 31
0.0
  0
LINE
  5
147
330
1F
100
AcDbEntity
  8
0
  6
Continuous
 62
     7
370
    25
100
AcDbLine
 10
86.7990923367
 20
560.1822688192
 30
0.0
 11
62.6459328087
 21
546.2374356641
 31
0.0
  0
LINE
  5
148
330
1F
100
AcDbEntity
  8
0
  6
Continuous
 62
     7
370
    25
100
AcDbLine
 10
86.7990923367
 20
562.4916698962
 30
0.0
 11
86.7990923367
 21
560.1822688192
 31
0.0
  0
LINE
  5
149
330
1F
100
AcDbEntity
  8
0
  6
Continuous
 62
     7
370
    25
100
AcDbLine
 10
62.6459328087
 20
548.5468367407
 30
0.0
 11
86.7990923367
 21
562.4916698962
 31
0.0
  0
LINE
  5
14A
330
1F
100
AcDbEntity
  8
0
  6
Continuous
 62
     7
370
    25
100
AcDbLine
 10
61.432270211
 20
547.6457149005
 30
0.0
 11
62.6459328087
 21
548.5468367407
 31
0.0
  0
LINE
  5
14B
330
1F
100
AcDbEntity
  8
0
  6
Continuous
 62
     7
370
    25
100
AcDbLine
 10
36.6334799892
 20
626.3683350912
 30
0.0
 11
61.4322702112
 21
632.6457149005
 31
0.0
  0
LINE
  5
14C
330
1F
100
AcDbEntity
  8
0
  6
Continuous
 62
     7
370
    25
100
AcDbLine
 10
36.6334799892
 20
624.0589340149
 30
0.0
 11
36.6334799892
 21
626.3683350912
 31
0.0
  0
LINE
  5
14D
330
1F
100
AcDbEntity
  8
0
  6
Continuous
 62
     7
370
    25
100
AcDbLine
 10
61.4322702109
 20
630.3363138239
 30
0.0
 11
36.6334799892
 21
624.0589340149
 31
0.0
  0
LINE
  5
14E
330
1F
100
AcDbEntity
  8
0
  6
Continuous
 62
     7
370
    25
100
AcDbLine
 10
62.6459328087
 20
631.2374356641
 30
0.0
 11
61.4322702109
 21
630.3363138239
 31
0.0
  0
LINE
  5
14F
330
1F
100
AcDbEntity
  8
0
  6
Continuous
 62
     7
370
    25
100
AcDbLine
 10
86.7990923367
 20
645.1822688192
 30
0.0
 11
62.6459328087
 21
631.2374356641
 31
0.0
  0
LINE
  5
150
330
1F
100
AcDbEntity
  8
0
  6
Continuous
 62
     7
370
    25
100
AcDbLine
 10
86.7990923367
 20
647.4916698962
 30
0.0
 11
86.7990923367
 21
645.1822688192
 31
0.0
  0
LINE
  5
151
330
1F
100
AcDbEntity
  8
0
  6
Continuous
 62
     7
370
    25
100
AcDbLine
 10
62.6459328087
 20
633.5468367407
 30
0.0
 11
86.7990923367
 21
647.4916698962
 31
0.0
  0
LINE
  5
152
330
1F
100
AcDbEntity
  8
0
  6
Continuous
 62
     7
370
    25
100
AcDbLine
 10
61.4322702112
 20
632.6457149005
 30
0.0
 11
62.6459328087
 21
633.5468367407
 31
0.0
  0
LINE
  5
153
330
1F
100
AcDbEntity
  8
0
  6
Continuous
 62
     7
370
    25
100
AcDbLine
 10
86.7990923367
 20
817.4916698962
 30
0.0
 11
86.7990923367
 21
815.1822688192
 31
0.0
  0
LINE
  5
154
330
1F
100
AcDbEntity
  8
0
  6
Continuous
 62
     7
370
    25
100
AcDbLine
 10
62.6459328087
 20
803.5468367407
 30
0.0
 11
86.7990923367
 21
817.4916698962
 31
0.0
  0
LINE
  5
155
330
1F
100
AcDbEntity
  8
0
  6
Continuous
 62
     7
370
    25
100
AcDbLine
 10
61.4322702115
 20
802.6457149005
 30
0.0
 11
62.6459328087
 21
803.5468367407
 31
0.0
  0
LINE
  5
156
330
1F
100
AcDbEntity
  8
0
  6
Continuous
 62
     7
370
    25
100
AcDbLine
 10
36.6334799892
 20
796.3683350912
 30
0.0
 11
61.4322702115
 21
802.6457149005
 31
0.0
  0
LINE
  5
157
330
1F
100
AcDbEntity
  8
0
  6
Continuous
 62
     7
370
    25
100
AcDbLine
 10
36.6334799893
 20
794.0589340149
 30
0.0
 11
36.6334799892
 21
796.3683350912
 31
0.0
  0
LINE
  5
158
330
1F
100
AcDbEntity
  8
0
  6
Continuous
 62
     7
370
    25
100
AcDbLine
 10
61.4322702109
 20
800.3363138239
 30
0.0
 11
36.6334799893
 21
794.0589340149
 31
0.0
  0
LINE
  5
159
330
1F
100
AcDbEntity
  8
0
  6
Continuous
 62
     7
370
    25
100
AcDbLine
 10
62.6459328087
 20
801.2374356588
 30
0.0
 11
61.4322702109
 21
800.3363138239
 31
0.0
  0
LINE
  5
15A
330
1F
100
AcDbEntity
  8
0
  6
Continuous
 62
     7
370
    25
100
AcDbLine
 10
86.7990923367
 20
815.1822688192
 30
0.0
 11
62.6459328087
 21
801.2374356588
 31
0.0
  0
LINE
  5
15B
330
1F
100
AcDbEntity
  8
0
  6
Continuous
 62
     7
370
    25
100
AcDbLine
 10
86.7990923367
 20
902.4916698962
 30
0.0
 11
86.7990923367
 21
900.1822688192
 31
0.0
  0
LINE
  5
15C
330
1F
100
AcDbEntity
  8
0
  6
Continuous
 62
     7
370
    25
100
AcDbLine
 10
62.6459328087
 20
888.5468367407
 30
0.0
 11
86.7990923367
 21
902.4916698962
 31
0.0
  0
LINE
  5
15D
330
1F
100
AcDbEntity
  8
0
  6
Continuous
 62
     7
370
    25
100
AcDbLine
 10
61.4322702115
 20
887.6457149005
 30
0.0
 11
62.6459328087
 21
888.5468367407
 31
0.0
  0
LINE
  5
15E
330
1F
100
AcDbEntity
  8
0
  6
Continuous
 62
     7
370
    25
100
AcDbLine
 10
36.6334799892
 20
881.3683350912
 30
0.0
 11
61.4322702115
 21
887.6457149005
 31
0.0
  0
LINE
  5
15F
330
1F
100
AcDbEntity
  8
0
  6
Continuous
 62
     7
370
    25
100
AcDbLine
 10
36.6334799893
 20
879.0589340149
 30
0.0
 11
36.6334799892
 21
881.3683350912
 31
0.0
  0
LINE
  5
160
330
1F
100
AcDbEntity
  8
0
  6
Continuous
 62
     7
370
    25
100
AcDbLine
 10
61.4322702109
 20
885.3363138239
 30
0.0
 11
36.6334799893
 21
879.0589340149
 31
0.0
  0
LINE
  5
161
330
1F
100
AcDbEntity
  8
0
  6
Continuous
 62
     7
370
    25
100
AcDbLine
 10
62.6459328087
 20
886.2374356588
 30
0.0
 11
61.4322702109
 21
885.3363138239
 31
0.0
  0
LINE
  5
162
330
1F
100
AcDbEntity
  8
0
  6
Continuous
 62
     7
370
    25
100
AcDbLine
 10
86.7990923367
 20
900.1822688192
 30
0.0
 11
62.6459328087
 21
886.2374356588
 31
0.0
  0
LINE
  5
163
330
1F
100
AcDbEntity
  8
0
  6
Continuous
 62
     7
370
    25
100
AcDbLine
 10
114.0327196254
 20
0.0000000002
 30
0.0
 11
0.0
 21
0.0000000002
 31
0.0
  0
LINE
  5
164
330
1F
100
AcDbEntity
  8
0
  6
Continuous
 62
     7
370
    25
100
AcDbLine
 10
0.0
 20
0.0000000002
 30
0.0
 11
0.0
 21
1000.0000000002
 31
0.0
  0
LINE
  5
165
330
1F
100
AcDbEntity
  8
0
  6
Continuous
 62
     7
370
    25
100
AcDbLine
 10
0.0
 20
1000.0000000002
 30
0.0
 11
114.0327196254
 21
1000.0000000002
 31
0.0
  0
LINE
  5
166
330
1F
100
AcDbEntity
  8
0
  6
Continuous
 62
     7
370
    25
100
AcDbLine
 10
114.0327196254
 20
1000.0000000002
 30
0.0
 11
114.0327196254
 21
0.0000000002
 31
0.0
  0
ENDSEC
  0
SECTION
  2
OBJECTS
  0
DICTIONARY
  5
C
330
0
100
AcDbDictionary
281
     1
  3
ACAD_GROUP
350
D
  3
ACAD_LAYOUT
350
1A
  3
ACAD_MLINESTYLE
350
17
  3
ACAD_PLOTSETTINGS
350
19
  3
ACAD_PLOTSTYLENAME
350
E
  3
ACAD_SCALELIST
350
47
  3
DWGPROPS
350
167
  0
DICTIONARY
  5
D
102
{ACAD_REACTORS
330
C
102
}
330
C
100
AcDbDictionary
281
     1
  0
DICTIONARY
  5
1A
102
{ACAD_REACTORS
330
C
102
}
330
C
100
AcDbDictionary
281
     1
  3
Layout1
350
1E
  3
Layout2
350
26
  3
Model
350
22
  0
DICTIONARY
  5
17
102
{ACAD_REACTORS
330
C
102
}
330
C
100
AcDbDictionary
281
     1
  3
Standard
350
18
  0
DICTIONARY
  5
19
102
{ACAD_REACTORS
330
C
102
}
330
C
100
AcDbDictionary
281
     1
  0
ACDBDICTIONARYWDFLT
  5
E
102
{ACAD_REACTORS
330
C
102
}
330
C
100
AcDbDictionary
281
     1
  3
Normal
350
F
100
AcDbDictionaryWithDefault
340
F
  0
DICTIONARY
  5
47
102
{ACAD_REACTORS
330
C
102
}
330
C
100
AcDbDictionary
281
     1
  3
A0
350
48
  3
A1
350
49
  3
A2
350
4A
  3
A3
350
4B
  3
A4
350
4C
  3
A5
350
4D
  3
A6
350
4E
  3
A7
350
4F
  3
A8
350
50
  3
A9
350
51
  3
B0
350
52
  3
B1
350
53
  3
B2
350
54
  3
B3
350
55
  3
B4
350
56
  3
B5
350
57
  3
B6
350
58
  3
B7
350
59
  3
B8
350
5A
  3
B9
350
5B
  3
C0
350
5C
  3
C1
350
5D
  3
C2
350
5E
  3
C3
350
5F
  3
C4
350
60
  3
C5
350
61
  3
C6
350
62
  3
C7
350
63
  3
C8
350
64
  3
C9
350
65
  3
D0
350
66
  3
D1
350
67
  3
D2
350
68
  0
XRECORD
  5
167
102
{ACAD_REACTORS
330
C
102
}
330
C
100
AcDbXrecord
280
     1
  1
DWGPROPS COOKIE
  2

  3

  4

  6

  7

  8
barre
  9

300
=
301
=
302
=
303
=
304
=
305
=
306
=
307
=
308
=
309
=
 40
0.0
 41
2460151.43281647
 42
2460151.432852477
  1

 90
        0
  0
LAYOUT
  5
1E
102
{ACAD_REACTORS
330
1A
102
}
330
1A
100
AcDbPlotSettings
  1

  2
none_device
  4

  6

 40
0.0
 41
0.0
 42
0.0
 43
0.0
 44
0.0
 45
0.0
 46
0.0
 47
0.0
 48
0.0
 49
0.0
140
0.0
141
0.0
142
1.0
143
1.0
 70
   688
 72
     1
 73
     0
 74
     5
  7

 75
    16
147
1.0
148
0.0
149
0.0
100
AcDbLayout
  1
Layout1
 70
     1
 71
     1
 10
0.0
 20
0.0
 11
420.0
 21
297.0
 12
0.0
 22
0.0
 32
0.0
 14
1.0000000000E+20
 24
1.0000000000E+20
 34
1.0000000000E+20
 15
-1.0000000000E+20
 25
-1.0000000000E+20
 35
-1.0000000000E+20
146
0.0
 13
0.0
 23
0.0
 33
0.0
 16
1.0
 26
0.0
 36
0.0
 17
0.0
 27
1.0
 37
0.0
 76
     0
330
1B
  0
LAYOUT
  5
26
102
{ACAD_REACTORS
330
1A
102
}
330
1A
100
AcDbPlotSettings
  1

  2
none_device
  4

  6

 40
0.0
 41
0.0
 42
0.0
 43
0.0
 44
0.0
 45
0.0
 46
0.0
 47
0.0
 48
0.0
 49
0.0
140
0.0
141
0.0
142
1.0
143
1.0
 70
   688
 72
     1
 73
     0
 74
     5
  7

 75
    16
147
1.0
148
0.0
149
0.0
100
AcDbLayout
  1
Layout2
 70
     1
 71
     2
 10
0.0
 20
0.0
 11
0.0
 21
0.0
 12
0.0
 22
0.0
 32
0.0
 14
0.0
 24
0.0
 34
0.0
 15
0.0
 25
0.0
 35
0.0
146
0.0
 13
0.0
 23
0.0
 33
0.0
 16
1.0
 26
0.0
 36
0.0
 17
0.0
 27
1.0
 37
0.0
 76
     0
330
23
  0
LAYOUT
  5
22
102
{ACAD_REACTORS
330
1A
102
}
330
1A
100
AcDbPlotSettings
  1

  2
none_device
  4
ANSI_A_(11.00_x_8.50_Inches)
  6

 40
6.35
 41
19.05
 42
6.35000508
 43
19.05000254
 44
279.4
 45
215.9
 46
121.1632636973
 47
-17.97050127
 48
0.0
 49
0.0
140
0.0
141
0.0
142
0.008415
143
1.0
 70
  1696
 72
     0
 73
     0
 74
     0
  7

 75
     0
147
0.0179189148
148
-1300.4909072572
149
0.0
100
AcDbLayout
  1
Model
 70
     1
 71
     0
 10
0.0
 20
0.0
 11
420.0
 21
297.0
 12
0.0
 22
0.0
 32
0.0
 14
0.0
 24
0.0
 34
0.0
 15
114.0327196254
 25
1000.0000000002
 35
0.0
146
0.0
 13
0.0
 23
0.0
 33
0.0
 16
1.0
 26
0.0
 36
0.0
 17
0.0
 27
1.0
 37
0.0
 76
     0
330
1F
331
29
  0
MLINESTYLE
  5
18
102
{ACAD_REACTORS
330
17
102
}
330
17
100
AcDbMlineStyle
  2
Standard
 70
     0
  3

 62
   256
 51
90.0
 52
90.0
 71
     2
 49
0.5
 62
   256
  6
BYLAYER
 49
-0.5
 62
   256
  6
BYLAYER
  0
ACDBPLACEHOLDER
  5
F
102
{ACAD_REACTORS
330
E
102
}
330
E
  0
SCALE
  5
48
102
{ACAD_REACTORS
330
47
102
}
330
47
100
AcDbScale
 70
     0
300
1:1
140
1.0
141
1.0
290
     1
  0
SCALE
  5
49
102
{ACAD_REACTORS
330
47
102
}
330
47
100
AcDbScale
 70
     0
300
1:2
140
1.0
141
2.0
290
     0
  0
SCALE
  5
4A
102
{ACAD_REACTORS
330
47
102
}
330
47
100
AcDbScale
 70
     0
300
1:4
140
1.0
141
4.0
290
     0
  0
SCALE
  5
4B
102
{ACAD_REACTORS
330
47
102
}
330
47
100
AcDbScale
 70
     0
300
1:5
140
1.0
141
5.0
290
     0
  0
SCALE
  5
4C
102
{ACAD_REACTORS
330
47
102
}
330
47
100
AcDbScale
 70
     0
300
1:8
140
1.0
141
8.0
290
     0
  0
SCALE
  5
4D
102
{ACAD_REACTORS
330
47
102
}
330
47
100
AcDbScale
 70
     0
300
1:10
140
1.0
141
10.0
290
     0
  0
SCALE
  5
4E
102
{ACAD_REACTORS
330
47
102
}
330
47
100
AcDbScale
 70
     0
300
1:16
140
1.0
141
16.0
290
     0
  0
SCALE
  5
4F
102
{ACAD_REACTORS
330
47
102
}
330
47
100
AcDbScale
 70
     0
300
1:20
140
1.0
141
20.0
290
     0
  0
SCALE
  5
50
102
{ACAD_REACTORS
330
47
102
}
330
47
100
AcDbScale
 70
     0
300
1:30
140
1.0
141
30.0
290
     0
  0
SCALE
  5
51
102
{ACAD_REACTORS
330
47
102
}
330
47
100
AcDbScale
 70
     0
300
1:40
140
1.0
141
40.0
290
     0
  0
SCALE
  5
52
102
{ACAD_REACTORS
330
47
102
}
330
47
100
AcDbScale
 70
     0
300
1:50
140
1.0
141
50.0
290
     0
  0
SCALE
  5
53
102
{ACAD_REACTORS
330
47
102
}
330
47
100
AcDbScale
 70
     0
300
1:100
140
1.0
141
100.0
290
     0
  0
SCALE
  5
54
102
{ACAD_REACTORS
330
47
102
}
330
47
100
AcDbScale
 70
     0
300
2:1
140
2.0
141
1.0
290
     0
  0
SCALE
  5
55
102
{ACAD_REACTORS
330
47
102
}
330
47
100
AcDbScale
 70
     0
300
4:1
140
4.0
141
1.0
290
     0
  0
SCALE
  5
56
102
{ACAD_REACTORS
330
47
102
}
330
47
100
AcDbScale
 70
     0
300
8:1
140
8.0
141
1.0
290
     0
  0
SCALE
  5
57
102
{ACAD_REACTORS
330
47
102
}
330
47
100
AcDbScale
 70
     0
300
10:1
140
10.0
141
1.0
290
     0
  0
SCALE
  5
58
102
{ACAD_REACTORS
330
47
102
}
330
47
100
AcDbScale
 70
     0
300
100:1
140
100.0
141
1.0
290
     0
  0
SCALE
  5
59
102
{ACAD_REACTORS
330
47
102
}
330
47
100
AcDbScale
 70
     0
300
1/128" = 1'-0"
140
0.0078125
141
12.0
290
     0
  0
SCALE
  5
5A
102
{ACAD_REACTORS
330
47
102
}
330
47
100
AcDbScale
 70
     0
300
1/64" = 1'-0"
140
0.015625
141
12.0
290
     0
  0
SCALE
  5
5B
102
{ACAD_REACTORS
330
47
102
}
330
47
100
AcDbScale
 70
     0
300
1/32" = 1'-0"
140
0.03125
141
12.0
290
     0
  0
SCALE
  5
5C
102
{ACAD_REACTORS
330
47
102
}
330
47
100
AcDbScale
 70
     0
300
1/16" = 1'-0"
140
0.0625
141
12.0
290
     0
  0
SCALE
  5
5D
102
{ACAD_REACTORS
330
47
102
}
330
47
100
AcDbScale
 70
     0
300
3/32" = 1'-0"
140
0.09375
141
12.0
290
     0
  0
SCALE
  5
5E
102
{ACAD_REACTORS
330
47
102
}
330
47
100
AcDbScale
 70
     0
300
1/8" = 1'-0"
140
0.125
141
12.0
290
     0
  0
SCALE
  5
5F
102
{ACAD_REACTORS
330
47
102
}
330
47
100
AcDbScale
 70
     0
300
3/16" = 1'-0"
140
0.1875
141
12.0
290
     0
  0
SCALE
  5
60
102
{ACAD_REACTORS
330
47
102
}
330
47
100
AcDbScale
 70
     0
300
1/4" = 1'-0"
140
0.25
141
12.0
290
     0
  0
SCALE
  5
61
102
{ACAD_REACTORS
330
47
102
}
330
47
100
AcDbScale
 70
     0
300
3/8" = 1'-0"
140
0.375
141
12.0
290
     0
  0
SCALE
  5
62
102
{ACAD_REACTORS
330
47
102
}
330
47
100
AcDbScale
 70
     0
300
1/2" = 1'-0"
140
0.5
141
12.0
290
     0
  0
SCALE
  5
63
102
{ACAD_REACTORS
330
47
102
}
330
47
100
AcDbScale
 70
     0
300
3/4" = 1'-0"
140
0.75
141
12.0
290
     0
  0
SCALE
  5
64
102
{ACAD_REACTORS
330
47
102
}
330
47
100
AcDbScale
 70
     0
300
1" = 1'-0"
140
1.0
141
12.0
290
     0
  0
SCALE
  5
65
102
{ACAD_REACTORS
330
47
102
}
330
47
100
AcDbScale
 70
     0
300
1-1/2" = 1'-0"
140
1.5
141
12.0
290
     0
  0
SCALE
  5
66
102
{ACAD_REACTORS
330
47
102
}
330
47
100
AcDbScale
 70
     0
300
3" = 1'-0"
140
3.0
141
12.0
290
     0
  0
SCALE
  5
67
102
{ACAD_REACTORS
330
47
102
}
330
47
100
AcDbScale
 70
     0
300
6" = 1'-0"
140
6.0
141
12.0
290
     0
  0
SCALE
  5
68
102
{ACAD_REACTORS
330
47
102
}
330
47
100
AcDbScale
 70
     0
300
1'-0" = 1'-0"
140
12.0
141
12.0
290
     0
  0
ENDSEC
  0
EOF
